{"glyphs":{"0":{"ha":806,"x_min":38,"x_max":769,"o":"m 404 -17 q 190 50 271 -17 q 74 231 110 117 q 38 486 38 344 q 74 742 38 628 q 190 922 110 856 q 404 989 271 989 q 617 924 538 989 q 733 744 697 858 q 769 486 769 631 q 733 228 769 342 q 617 49 697 114 q 404 -17 538 -17 m 404 142 q 544 234 500 142 q 589 486 589 326 q 544 738 589 646 q 404 831 500 831 q 263 738 308 831 q 218 486 218 646 q 263 234 218 326 q 404 142 308 142 z "},"1":{"ha":806,"x_min":110,"x_max":768,"o":"m 110 0 l 110 151 l 371 151 l 371 774 l 118 717 l 118 853 l 446 972 l 539 972 l 539 151 l 768 151 l 768 0 l 110 0 z "},"2":{"ha":806,"x_min":74,"x_max":743,"o":"m 74 0 l 74 128 q 88 142 74 128 q 125 182 101 157 q 180 240 149 207 q 247 309 211 272 q 318 383 282 346 q 431 501 379 447 q 515 602 483 554 q 546 694 546 650 q 506 799 546 760 q 401 839 467 839 q 315 815 350 839 q 264 753 281 792 q 247 668 247 714 l 75 668 q 119 844 78 772 q 235 952 161 915 q 406 989 308 989 q 583 949 514 989 q 686 844 653 910 q 719 697 719 778 q 690 572 719 629 q 609 458 660 514 q 496 340 558 403 q 428 273 458 303 q 376 220 399 243 q 340 182 354 197 q 317 159 325 167 q 310 151 310 151 l 743 151 l 743 0 l 74 0 z "},"3":{"ha":806,"x_min":56,"x_max":751,"o":"m 406 -17 q 225 19 303 -17 q 103 126 147 56 q 56 300 58 197 l 228 300 q 276 182 229 229 q 406 135 324 135 q 532 178 483 135 q 581 306 581 221 q 531 426 581 385 q 407 468 482 468 q 352 460 378 468 q 304 440 326 453 l 206 554 l 501 821 l 85 821 l 85 972 l 721 972 l 721 825 l 474 601 q 595 570 543 596 q 682 504 647 544 q 734 413 717 464 q 751 307 751 363 q 708 133 751 206 q 586 22 664 60 q 406 -17 508 -17 z "},"4":{"ha":806,"x_min":44,"x_max":779,"o":"m 489 0 l 489 181 l 44 181 l 44 322 l 371 972 l 546 972 l 232 335 l 500 335 l 500 588 l 667 588 l 667 335 l 779 335 l 779 181 l 667 181 l 667 0 l 489 0 z "},"5":{"ha":806,"x_min":56,"x_max":758,"o":"m 411 -17 q 233 19 311 -17 q 109 119 156 54 q 56 274 63 185 l 229 274 q 290 174 242 214 q 411 135 339 135 q 503 161 464 135 q 565 233 543 188 q 588 333 588 278 q 538 472 588 421 q 414 524 489 524 q 306 493 351 524 q 240 417 260 463 l 69 417 l 153 972 l 692 972 l 692 817 l 286 817 l 242 592 q 325 647 272 625 q 443 668 378 668 q 617 622 547 668 q 722 500 686 575 q 749 420 740 461 q 758 335 758 379 q 715 156 758 235 q 594 30 672 76 q 411 -17 517 -17 z "},"6":{"ha":806,"x_min":58,"x_max":756,"o":"m 432 -17 q 256 24 328 -17 q 140 132 185 64 q 78 283 97 200 q 58 454 58 367 q 102 737 58 617 q 228 922 146 857 q 318 972 268 956 q 426 989 368 989 q 589 949 522 989 q 693 846 656 910 q 723 779 713 814 q 736 708 733 744 l 574 708 q 524 807 561 772 q 425 842 488 842 q 324 804 367 842 q 258 690 281 767 q 232 496 235 613 q 326 590 264 553 q 461 628 389 628 q 606 589 538 628 q 714 479 674 550 q 756 313 756 408 q 715 150 756 225 q 601 29 675 75 q 432 -17 529 -17 m 422 136 q 506 158 469 136 q 564 218 543 179 q 585 306 585 257 q 538 431 585 383 q 419 478 492 478 q 336 455 374 478 q 277 394 299 432 q 256 308 256 356 q 277 219 256 258 q 337 158 299 181 q 422 136 375 136 z "},"7":{"ha":806,"x_min":49,"x_max":760,"o":"m 186 0 l 572 821 l 49 821 l 49 972 l 760 972 l 760 846 l 371 0 l 186 0 z "},"8":{"ha":806,"x_min":64,"x_max":743,"o":"m 404 -17 q 234 19 311 -17 q 110 119 157 54 q 64 271 64 183 q 105 424 64 357 q 225 522 146 492 q 124 607 161 553 q 88 729 88 661 q 131 871 88 813 q 246 959 174 929 q 404 989 318 989 q 562 959 490 989 q 676 871 633 929 q 719 729 719 813 q 682 606 719 661 q 582 522 644 550 q 702 424 661 492 q 743 271 743 356 q 715 148 743 201 q 640 58 688 94 q 531 2 592 21 q 404 -17 469 -17 m 406 132 q 524 172 479 132 q 569 286 569 213 q 526 403 569 363 q 406 443 482 443 q 284 403 329 443 q 239 286 239 363 q 281 175 239 218 q 406 132 322 132 m 404 575 q 506 610 467 575 q 544 708 544 646 q 507 809 544 774 q 404 844 469 844 q 301 809 339 844 q 264 708 264 774 q 303 610 264 646 q 404 575 342 575 z "},"9":{"ha":806,"x_min":51,"x_max":749,"o":"m 381 -17 q 218 23 285 -17 q 114 126 151 63 q 71 264 78 189 l 233 264 q 283 165 246 200 q 382 131 319 131 q 484 169 442 131 q 550 283 526 207 q 575 476 574 360 q 482 382 544 419 q 346 344 419 344 q 201 383 269 344 q 93 493 133 422 q 51 660 51 564 q 92 822 51 747 q 206 943 133 897 q 375 989 279 989 q 551 949 479 989 q 667 840 624 908 q 729 689 710 772 q 749 518 749 606 q 705 235 749 356 q 579 50 661 115 q 489 0 539 17 q 381 -17 439 -17 m 388 494 q 471 517 433 494 q 530 578 508 540 q 551 664 551 617 q 530 753 551 714 q 471 814 508 792 q 385 836 433 836 q 301 815 338 836 q 243 755 264 793 q 222 667 222 717 q 269 542 222 589 q 388 494 315 494 z "},"A":{"ha":964,"x_min":26,"x_max":938,"o":"m 26 0 l 382 972 l 582 972 l 938 0 l 749 0 l 672 221 l 290 221 l 213 0 l 26 0 m 340 364 l 622 364 l 481 768 l 340 364 z "},"Á":{"ha":964,"x_min":26,"x_max":938,"o":"m 26 0 l 382 972 l 582 972 l 938 0 l 749 0 l 672 221 l 290 221 l 213 0 l 26 0 m 340 364 l 622 364 l 481 768 l 340 364 m 325 1028 l 325 1153 l 639 1322 l 639 1178 l 325 1028 z "},"Ă":{"ha":964,"x_min":26,"x_max":938,"o":"m 26 0 l 382 972 l 582 972 l 938 0 l 749 0 l 672 221 l 290 221 l 213 0 l 26 0 m 340 364 l 622 364 l 481 768 l 340 364 m 481 1040 q 323 1097 381 1040 q 265 1251 265 1154 l 265 1274 l 360 1274 q 387 1200 360 1226 q 482 1174 414 1174 q 576 1200 549 1174 q 603 1274 603 1226 l 697 1274 l 697 1250 q 639 1097 697 1154 q 481 1040 581 1040 z "},"Ǎ":{"ha":964,"x_min":26,"x_max":938,"o":"m 26 0 l 382 972 l 582 972 l 938 0 l 749 0 l 672 221 l 290 221 l 213 0 l 26 0 m 340 364 l 622 364 l 481 768 l 340 364 m 482 1036 l 279 1147 l 279 1275 l 482 1157 l 685 1275 l 685 1147 l 482 1036 z "},"Â":{"ha":964,"x_min":26,"x_max":938,"o":"m 26 0 l 382 972 l 582 972 l 938 0 l 749 0 l 672 221 l 290 221 l 213 0 l 26 0 m 340 364 l 622 364 l 481 768 l 340 364 m 279 1038 l 279 1165 l 482 1276 l 685 1165 l 685 1038 l 482 1151 l 279 1038 z "},"Ä":{"ha":964,"x_min":26,"x_max":938,"o":"m 26 0 l 382 972 l 582 972 l 938 0 l 749 0 l 672 221 l 290 221 l 213 0 l 26 0 m 340 364 l 622 364 l 481 768 l 340 364 m 328 1067 q 246 1100 279 1067 q 213 1182 213 1133 q 246 1264 213 1231 q 328 1297 279 1297 q 410 1264 376 1297 q 443 1182 443 1231 q 410 1100 443 1133 q 328 1067 376 1067 m 636 1067 q 554 1100 588 1067 q 521 1182 521 1133 q 554 1264 521 1231 q 636 1297 588 1297 q 718 1264 685 1297 q 751 1182 751 1231 q 718 1100 751 1133 q 636 1067 685 1067 z "},"À":{"ha":964,"x_min":26,"x_max":938,"o":"m 26 0 l 382 972 l 582 972 l 938 0 l 749 0 l 672 221 l 290 221 l 213 0 l 26 0 m 340 364 l 622 364 l 481 768 l 340 364 m 639 1028 l 325 1178 l 325 1322 l 639 1153 l 639 1028 z "},"Ā":{"ha":964,"x_min":26,"x_max":938,"o":"m 26 0 l 382 972 l 582 972 l 938 0 l 749 0 l 672 221 l 290 221 l 213 0 l 26 0 m 340 364 l 622 364 l 481 768 l 340 364 m 236 1088 l 236 1214 l 728 1214 l 728 1088 l 236 1088 z "},"Ą":{"ha":964,"x_min":26,"x_max":944,"o":"m 26 0 l 382 972 l 582 972 l 938 0 l 749 0 l 672 221 l 290 221 l 213 0 l 26 0 m 340 364 l 622 364 l 481 768 l 340 364 m 824 -292 q 694 -257 749 -292 q 639 -147 639 -222 q 681 -42 639 -92 q 833 56 724 8 l 897 83 l 938 0 l 865 -36 q 794 -83 815 -61 q 774 -131 774 -106 q 793 -172 774 -157 q 846 -187 813 -187 q 944 -167 890 -187 l 944 -272 q 887 -286 918 -281 q 824 -292 856 -292 z "},"Å":{"ha":964,"x_min":26,"x_max":938,"o":"m 26 0 l 382 972 l 582 972 l 938 0 l 749 0 l 672 221 l 290 221 l 213 0 l 26 0 m 340 364 l 622 364 l 481 768 l 340 364 m 481 1043 q 370 1085 417 1043 q 324 1199 324 1126 q 370 1313 324 1271 q 481 1354 417 1354 q 594 1313 547 1354 q 640 1199 640 1271 q 594 1085 640 1126 q 481 1043 547 1043 m 481 1124 q 533 1144 513 1124 q 554 1199 554 1165 q 533 1253 554 1233 q 481 1274 513 1274 q 431 1253 451 1274 q 410 1199 410 1233 q 431 1144 410 1165 q 481 1124 451 1124 z "},"Ã":{"ha":964,"x_min":26,"x_max":938,"o":"m 26 0 l 382 972 l 582 972 l 938 0 l 749 0 l 672 221 l 290 221 l 213 0 l 26 0 m 340 364 l 622 364 l 481 768 l 340 364 m 563 1044 q 499 1060 525 1044 q 449 1092 472 1076 q 392 1108 425 1108 q 332 1046 343 1108 l 238 1046 q 294 1176 251 1135 q 400 1218 336 1218 q 465 1202 439 1218 q 515 1170 490 1186 q 571 1154 539 1154 q 610 1169 594 1154 q 631 1217 626 1185 l 725 1217 q 669 1086 713 1128 q 563 1044 625 1044 z "},"Æ":{"ha":1293,"x_min":26,"x_max":1224,"o":"m 26 0 l 553 972 l 1224 972 l 1224 821 l 847 821 l 847 589 l 1163 589 l 1163 438 l 847 438 l 847 151 l 1224 151 l 1224 0 l 669 0 l 669 189 l 322 189 l 219 0 l 26 0 m 397 329 l 669 329 l 669 836 l 397 329 z "},"Ǽ":{"ha":1293,"x_min":26,"x_max":1224,"o":"m 26 0 l 553 972 l 1224 972 l 1224 821 l 847 821 l 847 589 l 1163 589 l 1163 438 l 847 438 l 847 151 l 1224 151 l 1224 0 l 669 0 l 669 189 l 322 189 l 219 0 l 26 0 m 397 329 l 669 329 l 669 836 l 397 329 m 601 1028 l 601 1153 l 915 1322 l 915 1178 l 601 1028 z "},"B":{"ha":865,"x_min":89,"x_max":813,"o":"m 89 0 l 89 972 l 457 972 q 688 905 608 972 q 768 728 768 838 q 729 597 768 647 q 632 521 690 546 q 722 467 681 503 q 788 381 763 431 q 813 274 813 332 q 775 135 813 197 q 667 36 738 72 q 493 0 596 0 l 89 0 m 267 151 l 476 151 q 594 188 556 151 q 632 292 632 224 q 592 396 632 360 q 474 432 551 432 l 267 432 l 267 151 m 267 583 l 442 583 q 551 613 517 583 q 586 703 586 643 q 552 790 586 760 q 439 821 518 821 l 267 821 l 267 583 z "},"C":{"ha":1013,"x_min":57,"x_max":956,"o":"m 529 -17 q 274 49 379 -17 q 113 227 168 114 q 57 485 57 340 q 111 743 57 629 q 271 923 165 857 q 529 989 376 989 q 816 902 704 989 q 956 658 928 815 l 760 658 q 683 783 742 738 q 526 828 624 828 q 373 786 438 828 q 274 668 308 744 q 239 485 239 592 q 274 302 239 379 q 373 184 308 225 q 526 143 438 143 q 683 185 624 143 q 760 303 742 228 l 956 303 q 816 68 928 153 q 529 -17 704 -17 z "},"Ć":{"ha":1013,"x_min":57,"x_max":956,"o":"m 529 -17 q 274 49 379 -17 q 113 227 168 114 q 57 485 57 340 q 111 743 57 629 q 271 923 165 857 q 529 989 376 989 q 816 902 704 989 q 956 658 928 815 l 760 658 q 683 783 742 738 q 526 828 624 828 q 373 786 438 828 q 274 668 308 744 q 239 485 239 592 q 274 302 239 379 q 373 184 308 225 q 526 143 438 143 q 683 185 624 143 q 760 303 742 228 l 956 303 q 816 68 928 153 q 529 -17 704 -17 m 369 1028 l 369 1153 l 683 1322 l 683 1178 l 369 1028 z "},"Č":{"ha":1013,"x_min":57,"x_max":956,"o":"m 529 -17 q 274 49 379 -17 q 113 227 168 114 q 57 485 57 340 q 111 743 57 629 q 271 923 165 857 q 529 989 376 989 q 816 902 704 989 q 956 658 928 815 l 760 658 q 683 783 742 738 q 526 828 624 828 q 373 786 438 828 q 274 668 308 744 q 239 485 239 592 q 274 302 239 379 q 373 184 308 225 q 526 143 438 143 q 683 185 624 143 q 760 303 742 228 l 956 303 q 816 68 928 153 q 529 -17 704 -17 m 526 1036 l 324 1147 l 324 1275 l 526 1157 l 729 1275 l 729 1147 l 526 1036 z "},"Ç":{"ha":1013,"x_min":57,"x_max":956,"o":"m 529 -17 q 274 49 379 -17 q 113 227 168 114 q 57 485 57 340 q 111 743 57 629 q 271 923 165 857 q 529 989 376 989 q 816 902 704 989 q 956 658 928 815 l 760 658 q 683 783 742 738 q 526 828 624 828 q 373 786 438 828 q 274 668 308 744 q 239 485 239 592 q 274 302 239 379 q 373 184 308 225 q 526 143 438 143 q 683 185 624 143 q 760 303 742 228 l 956 303 q 816 68 928 153 q 529 -17 704 -17 m 401 -365 l 401 -262 l 557 -262 q 631 -212 631 -262 q 557 -164 631 -164 l 472 -164 l 472 24 l 583 24 l 583 -69 q 673 -84 632 -68 q 739 -133 714 -100 q 764 -215 764 -165 q 739 -299 764 -265 q 673 -349 714 -332 q 583 -365 632 -365 l 401 -365 z "},"Ċ":{"ha":1013,"x_min":57,"x_max":956,"o":"m 529 -17 q 274 49 379 -17 q 113 227 168 114 q 57 485 57 340 q 111 743 57 629 q 271 923 165 857 q 529 989 376 989 q 816 902 704 989 q 956 658 928 815 l 760 658 q 683 783 742 738 q 526 828 624 828 q 373 786 438 828 q 274 668 308 744 q 239 485 239 592 q 274 302 239 379 q 373 184 308 225 q 526 143 438 143 q 683 185 624 143 q 760 303 742 228 l 956 303 q 816 68 928 153 q 529 -17 704 -17 m 526 1067 q 444 1100 478 1067 q 411 1182 411 1133 q 444 1264 411 1231 q 526 1297 478 1297 q 608 1264 575 1297 q 642 1182 642 1231 q 608 1100 642 1133 q 526 1067 575 1067 z "},"D":{"ha":976,"x_min":89,"x_max":919,"o":"m 89 0 l 89 972 l 421 972 q 705 911 594 972 q 867 740 815 850 q 919 486 919 631 q 862 222 919 331 q 693 56 804 113 q 421 0 582 0 l 89 0 m 267 153 l 413 153 q 607 193 536 153 q 708 308 678 233 q 738 486 738 383 q 658 740 738 660 q 413 821 578 821 l 267 821 l 267 153 z "},"Ď":{"ha":976,"x_min":89,"x_max":919,"o":"m 89 0 l 89 972 l 421 972 q 705 911 594 972 q 867 740 815 850 q 919 486 919 631 q 862 222 919 331 q 693 56 804 113 q 421 0 582 0 l 89 0 m 267 153 l 413 153 q 607 193 536 153 q 708 308 678 233 q 738 486 738 383 q 658 740 738 660 q 413 821 578 821 l 267 821 l 267 153 m 481 1036 l 278 1147 l 278 1275 l 481 1157 l 683 1275 l 683 1147 l 481 1036 z "},"Đ":{"ha":994,"x_min":3,"x_max":938,"o":"m 107 0 l 107 410 l 3 410 l 3 563 l 107 563 l 107 972 l 439 972 q 723 911 613 972 q 885 740 833 850 q 938 486 938 631 q 880 222 938 331 q 711 56 822 113 q 439 0 600 0 l 107 0 m 285 153 l 431 153 q 625 193 554 153 q 726 308 696 233 q 756 486 756 383 q 676 740 756 660 q 431 821 596 821 l 285 821 l 285 563 l 531 563 l 531 410 l 285 410 l 285 153 z "},"Ð":{"ha":994,"x_min":3,"x_max":938,"o":"m 107 0 l 107 410 l 3 410 l 3 563 l 107 563 l 107 972 l 439 972 q 723 911 613 972 q 885 740 833 850 q 938 486 938 631 q 880 222 938 331 q 711 56 822 113 q 439 0 600 0 l 107 0 m 285 153 l 431 153 q 625 193 554 153 q 726 308 696 233 q 756 486 756 383 q 676 740 756 660 q 431 821 596 821 l 285 821 l 285 563 l 531 563 l 531 410 l 285 410 l 285 153 z "},"E":{"ha":781,"x_min":89,"x_max":713,"o":"m 89 0 l 89 972 l 713 972 l 713 821 l 267 821 l 267 589 l 649 589 l 649 438 l 267 438 l 267 151 l 713 151 l 713 0 l 89 0 z "},"É":{"ha":781,"x_min":89,"x_max":713,"o":"m 89 0 l 89 972 l 713 972 l 713 821 l 267 821 l 267 589 l 649 589 l 649 438 l 267 438 l 267 151 l 713 151 l 713 0 l 89 0 m 233 1028 l 233 1153 l 547 1322 l 547 1178 l 233 1028 z "},"Ĕ":{"ha":781,"x_min":89,"x_max":713,"o":"m 89 0 l 89 972 l 713 972 l 713 821 l 267 821 l 267 589 l 649 589 l 649 438 l 267 438 l 267 151 l 713 151 l 713 0 l 89 0 m 389 1040 q 231 1097 289 1040 q 174 1251 174 1154 l 174 1274 l 268 1274 q 295 1200 268 1226 q 390 1174 322 1174 q 484 1200 457 1174 q 511 1274 511 1226 l 606 1274 l 606 1250 q 547 1097 606 1154 q 389 1040 489 1040 z "},"Ě":{"ha":781,"x_min":89,"x_max":713,"o":"m 89 0 l 89 972 l 713 972 l 713 821 l 267 821 l 267 589 l 649 589 l 649 438 l 267 438 l 267 151 l 713 151 l 713 0 l 89 0 m 390 1036 l 188 1147 l 188 1275 l 390 1157 l 593 1275 l 593 1147 l 390 1036 z "},"Ê":{"ha":781,"x_min":89,"x_max":713,"o":"m 89 0 l 89 972 l 713 972 l 713 821 l 267 821 l 267 589 l 649 589 l 649 438 l 267 438 l 267 151 l 713 151 l 713 0 l 89 0 m 188 1038 l 188 1165 l 390 1276 l 593 1165 l 593 1038 l 390 1151 l 188 1038 z "},"Ë":{"ha":781,"x_min":89,"x_max":713,"o":"m 89 0 l 89 972 l 713 972 l 713 821 l 267 821 l 267 589 l 649 589 l 649 438 l 267 438 l 267 151 l 713 151 l 713 0 l 89 0 m 236 1067 q 154 1100 188 1067 q 121 1182 121 1133 q 154 1264 121 1231 q 236 1297 188 1297 q 318 1264 285 1297 q 351 1182 351 1231 q 318 1100 351 1133 q 236 1067 285 1067 m 544 1067 q 463 1100 496 1067 q 429 1182 429 1133 q 463 1264 429 1231 q 544 1297 496 1297 q 626 1264 593 1297 q 660 1182 660 1231 q 626 1100 660 1133 q 544 1067 593 1067 z "},"Ė":{"ha":781,"x_min":89,"x_max":713,"o":"m 89 0 l 89 972 l 713 972 l 713 821 l 267 821 l 267 589 l 649 589 l 649 438 l 267 438 l 267 151 l 713 151 l 713 0 l 89 0 m 390 1067 q 308 1100 342 1067 q 275 1182 275 1133 q 308 1264 275 1231 q 390 1297 342 1297 q 472 1264 439 1297 q 506 1182 506 1231 q 472 1100 506 1133 q 390 1067 439 1067 z "},"È":{"ha":781,"x_min":89,"x_max":713,"o":"m 89 0 l 89 972 l 713 972 l 713 821 l 267 821 l 267 589 l 649 589 l 649 438 l 267 438 l 267 151 l 713 151 l 713 0 l 89 0 m 547 1028 l 233 1178 l 233 1322 l 547 1153 l 547 1028 z "},"Ē":{"ha":781,"x_min":89,"x_max":713,"o":"m 89 0 l 89 972 l 713 972 l 713 821 l 267 821 l 267 589 l 649 589 l 649 438 l 267 438 l 267 151 l 713 151 l 713 0 l 89 0 m 144 1088 l 144 1214 l 636 1214 l 636 1088 l 144 1088 z "},"Ę":{"ha":781,"x_min":89,"x_max":719,"o":"m 89 0 l 89 972 l 713 972 l 713 821 l 267 821 l 267 589 l 649 589 l 649 438 l 267 438 l 267 151 l 713 151 l 713 0 l 89 0 m 599 -292 q 469 -257 524 -292 q 414 -147 414 -222 q 456 -42 414 -92 q 608 56 499 8 l 672 83 l 713 0 l 640 -36 q 569 -83 590 -61 q 549 -131 549 -106 q 568 -172 549 -157 q 621 -187 588 -187 q 719 -167 665 -187 l 719 -272 q 662 -286 693 -281 q 599 -292 631 -292 z "},"Ǝ":{"ha":769,"x_min":63,"x_max":686,"o":"m 63 0 l 63 151 l 508 151 l 508 438 l 126 438 l 126 589 l 508 589 l 508 821 l 63 821 l 63 972 l 686 972 l 686 0 l 63 0 z "},"ǝ":{"ha":769,"x_min":63,"x_max":686,"o":"m 63 0 l 63 151 l 508 151 l 508 438 l 126 438 l 126 589 l 508 589 l 508 821 l 63 821 l 63 972 l 686 972 l 686 0 l 63 0 z "},"Ẽ":{"ha":781,"x_min":89,"x_max":713,"o":"m 89 0 l 89 972 l 713 972 l 713 821 l 267 821 l 267 589 l 649 589 l 649 438 l 267 438 l 267 151 l 713 151 l 713 0 l 89 0 m 471 1044 q 407 1060 433 1044 q 357 1092 381 1076 q 300 1108 333 1108 q 240 1046 251 1108 l 146 1046 q 202 1176 160 1135 q 308 1218 244 1218 q 373 1202 347 1218 q 423 1170 399 1186 q 479 1154 447 1154 q 519 1169 503 1154 q 539 1217 535 1185 l 633 1217 q 577 1086 621 1128 q 471 1044 533 1044 z "},"Ə":{"ha":1053,"x_min":57,"x_max":996,"o":"m 522 -17 q 279 39 383 -17 q 117 200 175 94 q 57 453 57 303 q 58 494 57 472 q 63 536 60 515 l 808 536 q 766 693 804 628 q 665 793 728 758 q 599 819 635 811 q 525 828 564 828 q 361 783 432 828 q 264 658 290 738 l 68 658 q 159 831 96 756 q 315 947 222 906 q 522 989 410 989 q 770 926 664 989 q 936 750 876 863 q 996 483 996 636 q 937 221 996 333 q 771 46 878 108 q 522 -17 665 -17 m 519 146 q 660 176 596 146 q 763 265 724 207 q 808 406 801 321 l 240 406 q 277 269 242 328 q 375 179 313 211 q 519 146 438 146 z "},"F":{"ha":739,"x_min":89,"x_max":701,"o":"m 89 0 l 89 972 l 701 972 l 701 821 l 267 821 l 267 578 l 647 578 l 647 426 l 267 426 l 267 0 l 89 0 z "},"G":{"ha":1063,"x_min":57,"x_max":990,"o":"m 514 -17 q 274 46 376 -17 q 114 221 171 108 q 57 481 57 333 q 113 739 57 624 q 277 922 168 854 q 543 989 386 989 q 826 907 714 989 q 972 681 939 825 l 774 681 q 693 787 751 749 q 543 825 635 825 q 378 783 446 825 q 274 665 310 742 q 239 479 239 588 q 274 297 239 372 q 376 181 310 221 q 531 142 442 142 q 722 206 656 142 q 807 375 789 269 l 497 375 l 497 525 l 990 525 l 990 0 l 826 0 l 813 128 q 694 21 765 58 q 514 -17 624 -17 z "},"Ğ":{"ha":1063,"x_min":57,"x_max":990,"o":"m 514 -17 q 274 46 376 -17 q 114 221 171 108 q 57 481 57 333 q 113 739 57 624 q 277 922 168 854 q 543 989 386 989 q 826 907 714 989 q 972 681 939 825 l 774 681 q 693 787 751 749 q 543 825 635 825 q 378 783 446 825 q 274 665 310 742 q 239 479 239 588 q 274 297 239 372 q 376 181 310 221 q 531 142 442 142 q 722 206 656 142 q 807 375 789 269 l 497 375 l 497 525 l 990 525 l 990 0 l 826 0 l 813 128 q 694 21 765 58 q 514 -17 624 -17 m 531 1040 q 373 1097 431 1040 q 315 1251 315 1154 l 315 1274 l 410 1274 q 437 1200 410 1226 q 532 1174 464 1174 q 626 1200 599 1174 q 653 1274 653 1226 l 747 1274 l 747 1250 q 689 1097 747 1154 q 531 1040 631 1040 z "},"Ģ":{"ha":1063,"x_min":57,"x_max":990,"o":"m 514 -17 q 274 46 376 -17 q 114 221 171 108 q 57 481 57 333 q 113 739 57 624 q 277 922 168 854 q 543 989 386 989 q 826 907 714 989 q 972 681 939 825 l 774 681 q 693 787 751 749 q 543 825 635 825 q 378 783 446 825 q 274 665 310 742 q 239 479 239 588 q 274 297 239 372 q 376 181 310 221 q 531 142 442 142 q 722 206 656 142 q 807 375 789 269 l 497 375 l 497 525 l 990 525 l 990 0 l 826 0 l 813 128 q 694 21 765 58 q 514 -17 624 -17 m 453 -381 l 453 -308 q 522 -222 522 -308 l 522 -201 l 446 -201 l 446 -62 l 597 -62 q 613 -133 608 -99 q 618 -196 618 -167 q 576 -333 618 -285 q 453 -381 535 -381 z "},"Ġ":{"ha":1063,"x_min":57,"x_max":990,"o":"m 514 -17 q 274 46 376 -17 q 114 221 171 108 q 57 481 57 333 q 113 739 57 624 q 277 922 168 854 q 543 989 386 989 q 826 907 714 989 q 972 681 939 825 l 774 681 q 693 787 751 749 q 543 825 635 825 q 378 783 446 825 q 274 665 310 742 q 239 479 239 588 q 274 297 239 372 q 376 181 310 221 q 531 142 442 142 q 722 206 656 142 q 807 375 789 269 l 497 375 l 497 525 l 990 525 l 990 0 l 826 0 l 813 128 q 694 21 765 58 q 514 -17 624 -17 m 532 1067 q 450 1100 483 1067 q 417 1182 417 1133 q 450 1264 417 1231 q 532 1297 483 1297 q 614 1264 581 1297 q 647 1182 647 1231 q 614 1100 647 1133 q 532 1067 581 1067 z "},"H":{"ha":969,"x_min":89,"x_max":881,"o":"m 89 0 l 89 972 l 267 972 l 267 590 l 703 590 l 703 972 l 881 972 l 881 0 l 703 0 l 703 439 l 267 439 l 267 0 l 89 0 z "},"Ħ":{"ha":971,"x_min":33,"x_max":938,"o":"m 90 0 l 90 685 l 33 685 l 33 836 l 90 836 l 90 972 l 268 972 l 268 836 l 704 836 l 704 972 l 882 972 l 882 836 l 938 836 l 938 685 l 882 685 l 882 0 l 704 0 l 704 439 l 268 439 l 268 0 l 90 0 m 268 590 l 704 590 l 704 685 l 268 685 l 268 590 z "},"I":{"ha":356,"x_min":89,"x_max":267,"o":"m 89 0 l 89 972 l 267 972 l 267 0 l 89 0 z "},"Ĳ":{"ha":1083,"x_min":89,"x_max":994,"o":"m 89 0 l 89 972 l 267 972 l 267 0 l 89 0 m 699 -17 q 472 63 557 -17 q 386 290 386 143 l 564 290 q 596 182 565 222 q 694 142 626 142 q 788 180 758 142 q 817 281 817 218 l 817 972 l 994 972 l 994 281 q 915 60 994 138 q 699 -17 835 -17 z "},"Í":{"ha":356,"x_min":21,"x_max":335,"o":"m 89 0 l 89 972 l 267 972 l 267 0 l 89 0 m 21 1028 l 21 1153 l 335 1322 l 335 1178 l 21 1028 z "},"Ĭ":{"ha":356,"x_min":-39,"x_max":393,"o":"m 89 0 l 89 972 l 267 972 l 267 0 l 89 0 m 176 1040 q 19 1097 76 1040 q -39 1251 -39 1154 l -39 1274 l 56 1274 q 83 1200 56 1226 q 178 1174 110 1174 q 272 1200 244 1174 q 299 1274 299 1226 l 393 1274 l 393 1250 q 335 1097 393 1154 q 176 1040 276 1040 z "},"Î":{"ha":356,"x_min":-25,"x_max":381,"o":"m 89 0 l 89 972 l 267 972 l 267 0 l 89 0 m -25 1038 l -25 1165 l 178 1276 l 381 1165 l 381 1038 l 178 1151 l -25 1038 z "},"Ï":{"ha":356,"x_min":-92,"x_max":447,"o":"m 89 0 l 89 972 l 267 972 l 267 0 l 89 0 m 24 1067 q -58 1100 -25 1067 q -92 1182 -92 1133 q -58 1264 -92 1231 q 24 1297 -25 1297 q 106 1264 72 1297 q 139 1182 139 1231 q 106 1100 139 1133 q 24 1067 72 1067 m 332 1067 q 250 1100 283 1067 q 217 1182 217 1133 q 250 1264 217 1231 q 332 1297 283 1297 q 414 1264 381 1297 q 447 1182 447 1231 q 414 1100 447 1133 q 332 1067 381 1067 z "},"İ":{"ha":356,"x_min":63,"x_max":293,"o":"m 89 0 l 89 972 l 267 972 l 267 0 l 89 0 m 178 1067 q 96 1100 129 1067 q 63 1182 63 1133 q 96 1264 63 1231 q 178 1297 129 1297 q 260 1264 226 1297 q 293 1182 293 1231 q 260 1100 293 1133 q 178 1067 226 1067 z "},"Ì":{"ha":356,"x_min":21,"x_max":335,"o":"m 89 0 l 89 972 l 267 972 l 267 0 l 89 0 m 335 1028 l 21 1178 l 21 1322 l 335 1153 l 335 1028 z "},"Ī":{"ha":356,"x_min":-68,"x_max":424,"o":"m 89 0 l 89 972 l 267 972 l 267 0 l 89 0 m -68 1088 l -68 1214 l 424 1214 l 424 1088 l -68 1088 z "},"Į":{"ha":356,"x_min":-32,"x_max":274,"o":"m 89 0 l 89 972 l 267 972 l 267 0 l 89 0 m 153 -292 q 23 -257 78 -292 q -32 -147 -32 -222 q 10 -42 -32 -92 q 163 56 53 8 l 226 83 l 267 0 l 194 -36 q 124 -83 144 -61 q 103 -131 103 -106 q 122 -172 103 -157 q 175 -187 142 -187 q 274 -167 219 -187 l 274 -272 q 216 -286 247 -281 q 153 -292 185 -292 z "},"Ĩ":{"ha":356,"x_min":-67,"x_max":421,"o":"m 89 0 l 89 972 l 267 972 l 267 0 l 89 0 m 258 1044 q 194 1060 221 1044 q 144 1092 168 1076 q 88 1108 121 1108 q 28 1046 39 1108 l -67 1046 q -10 1176 -53 1135 q 96 1218 32 1218 q 160 1202 135 1218 q 210 1170 186 1186 q 267 1154 235 1154 q 306 1169 290 1154 q 326 1217 322 1185 l 421 1217 q 365 1086 408 1128 q 258 1044 321 1044 z "},"J":{"ha":728,"x_min":31,"x_max":639,"o":"m 343 -17 q 116 63 201 -17 q 31 290 31 143 l 208 290 q 240 182 210 222 q 339 142 271 142 q 432 180 403 142 q 461 281 461 218 l 461 972 l 639 972 l 639 281 q 559 60 639 138 q 343 -17 479 -17 z "},"K":{"ha":878,"x_min":89,"x_max":856,"o":"m 826 972 l 482 599 l 856 0 l 646 0 l 363 469 l 267 363 l 267 0 l 89 0 l 89 972 l 267 972 l 267 599 l 610 972 l 826 972 z "},"Ķ":{"ha":878,"x_min":89,"x_max":856,"o":"m 826 972 l 482 599 l 856 0 l 646 0 l 363 469 l 267 363 l 267 0 l 89 0 l 89 972 l 267 972 l 267 599 l 610 972 l 826 972 m 360 -381 l 360 -308 q 429 -222 429 -308 l 429 -201 l 353 -201 l 353 -62 l 504 -62 q 520 -133 515 -99 q 525 -196 525 -167 q 483 -333 525 -285 q 360 -381 442 -381 z "},"L":{"ha":743,"x_min":89,"x_max":686,"o":"m 89 0 l 89 972 l 267 972 l 267 151 l 686 151 l 686 0 l 89 0 z "},"Ĺ":{"ha":743,"x_min":86,"x_max":686,"o":"m 89 0 l 89 972 l 267 972 l 267 151 l 686 151 l 686 0 l 89 0 m 86 1028 l 86 1153 l 400 1322 l 400 1178 l 86 1028 z "},"Ľ":{"ha":743,"x_min":89,"x_max":686,"o":"m 89 0 l 89 972 l 267 972 l 267 151 l 686 151 l 686 0 l 89 0 m 390 758 l 457 972 l 624 972 l 506 758 l 390 758 z "},"Ļ":{"ha":743,"x_min":89,"x_max":686,"o":"m 89 0 l 89 972 l 267 972 l 267 151 l 686 151 l 686 0 l 89 0 m 293 -381 l 293 -308 q 363 -222 363 -308 l 363 -201 l 286 -201 l 286 -62 l 438 -62 q 453 -133 449 -99 q 458 -196 458 -167 q 417 -333 458 -285 q 293 -381 375 -381 z "},"Ŀ":{"ha":743,"x_min":89,"x_max":686,"o":"m 89 0 l 89 972 l 267 972 l 267 151 l 686 151 l 686 0 l 89 0 m 513 371 q 431 405 464 371 q 397 486 397 439 q 431 568 397 535 q 513 601 464 601 q 594 568 561 601 q 628 486 628 535 q 594 405 628 439 q 513 371 561 371 z "},"Ł":{"ha":776,"x_min":22,"x_max":719,"o":"m 122 0 l 122 407 l 22 372 l 22 519 l 122 554 l 122 972 l 300 972 l 300 613 l 443 661 l 443 514 l 300 465 l 300 151 l 719 151 l 719 0 l 122 0 z "},"M":{"ha":1149,"x_min":89,"x_max":1060,"o":"m 89 0 l 89 972 l 300 972 l 576 344 l 849 972 l 1060 972 l 1060 0 l 882 0 l 882 656 l 644 124 l 504 124 l 267 656 l 267 0 l 89 0 z "},"N":{"ha":990,"x_min":89,"x_max":901,"o":"m 89 0 l 89 972 l 267 972 l 724 293 l 724 972 l 901 972 l 901 0 l 724 0 l 267 678 l 267 0 l 89 0 z "},"Ń":{"ha":990,"x_min":89,"x_max":901,"o":"m 89 0 l 89 972 l 267 972 l 724 293 l 724 972 l 901 972 l 901 0 l 724 0 l 267 678 l 267 0 l 89 0 m 339 1028 l 339 1153 l 653 1322 l 653 1178 l 339 1028 z "},"Ň":{"ha":990,"x_min":89,"x_max":901,"o":"m 89 0 l 89 972 l 267 972 l 724 293 l 724 972 l 901 972 l 901 0 l 724 0 l 267 678 l 267 0 l 89 0 m 496 1036 l 293 1147 l 293 1275 l 496 1157 l 699 1275 l 699 1147 l 496 1036 z "},"Ņ":{"ha":990,"x_min":89,"x_max":901,"o":"m 89 0 l 89 972 l 267 972 l 724 293 l 724 972 l 901 972 l 901 0 l 724 0 l 267 678 l 267 0 l 89 0 m 417 -381 l 417 -308 q 486 -222 486 -308 l 486 -201 l 410 -201 l 410 -62 l 561 -62 q 577 -133 572 -99 q 582 -196 582 -167 q 540 -333 582 -285 q 417 -381 499 -381 z "},"Ñ":{"ha":990,"x_min":89,"x_max":901,"o":"m 89 0 l 89 972 l 267 972 l 724 293 l 724 972 l 901 972 l 901 0 l 724 0 l 267 678 l 267 0 l 89 0 m 576 1044 q 513 1060 539 1044 q 463 1092 486 1076 q 406 1108 439 1108 q 346 1046 357 1108 l 251 1046 q 308 1176 265 1135 q 414 1218 350 1218 q 478 1202 453 1218 q 528 1170 504 1186 q 585 1154 553 1154 q 624 1169 608 1154 q 644 1217 640 1185 l 739 1217 q 683 1086 726 1128 q 576 1044 639 1044 z "},"Ŋ":{"ha":990,"x_min":89,"x_max":901,"o":"m 89 0 l 89 972 l 267 972 l 724 293 l 724 972 l 901 972 l 901 -75 q 871 -212 901 -161 q 788 -284 840 -262 q 667 -306 735 -306 l 601 -306 l 601 -154 l 639 -154 q 703 -136 683 -154 q 724 -75 724 -118 l 724 0 l 267 678 l 267 0 l 89 0 z "},"O":{"ha":1107,"x_min":57,"x_max":1050,"o":"m 553 -17 q 366 18 456 -17 q 207 118 276 53 q 97 276 138 183 q 57 486 57 369 q 97 696 57 603 q 207 854 138 789 q 366 954 276 919 q 553 989 456 989 q 741 954 651 989 q 900 854 831 919 q 1010 696 969 789 q 1050 486 1050 603 q 1010 276 1050 369 q 900 118 969 183 q 741 18 831 53 q 553 -17 651 -17 m 553 144 q 703 181 631 144 q 821 294 775 218 q 867 486 867 371 q 821 679 867 603 q 703 792 775 756 q 553 829 631 829 q 404 792 476 829 q 286 679 332 756 q 240 486 240 603 q 286 294 240 371 q 404 181 332 218 q 553 144 476 144 z "},"Ó":{"ha":1107,"x_min":57,"x_max":1050,"o":"m 553 -17 q 366 18 456 -17 q 207 118 276 53 q 97 276 138 183 q 57 486 57 369 q 97 696 57 603 q 207 854 138 789 q 366 954 276 919 q 553 989 456 989 q 741 954 651 989 q 900 854 831 919 q 1010 696 969 789 q 1050 486 1050 603 q 1010 276 1050 369 q 900 118 969 183 q 741 18 831 53 q 553 -17 651 -17 m 553 144 q 703 181 631 144 q 821 294 775 218 q 867 486 867 371 q 821 679 867 603 q 703 792 775 756 q 553 829 631 829 q 404 792 476 829 q 286 679 332 756 q 240 486 240 603 q 286 294 240 371 q 404 181 332 218 q 553 144 476 144 m 397 1028 l 397 1153 l 711 1322 l 711 1178 l 397 1028 z "},"Ŏ":{"ha":1107,"x_min":57,"x_max":1050,"o":"m 553 -17 q 366 18 456 -17 q 207 118 276 53 q 97 276 138 183 q 57 486 57 369 q 97 696 57 603 q 207 854 138 789 q 366 954 276 919 q 553 989 456 989 q 741 954 651 989 q 900 854 831 919 q 1010 696 969 789 q 1050 486 1050 603 q 1010 276 1050 369 q 900 118 969 183 q 741 18 831 53 q 553 -17 651 -17 m 553 144 q 703 181 631 144 q 821 294 775 218 q 867 486 867 371 q 821 679 867 603 q 703 792 775 756 q 553 829 631 829 q 404 792 476 829 q 286 679 332 756 q 240 486 240 603 q 286 294 240 371 q 404 181 332 218 q 553 144 476 144 m 553 1040 q 395 1097 453 1040 q 338 1251 338 1154 l 338 1274 l 432 1274 q 459 1200 432 1226 q 554 1174 486 1174 q 648 1200 621 1174 q 675 1274 675 1226 l 769 1274 l 769 1250 q 711 1097 769 1154 q 553 1040 653 1040 z "},"Ô":{"ha":1107,"x_min":57,"x_max":1050,"o":"m 553 -17 q 366 18 456 -17 q 207 118 276 53 q 97 276 138 183 q 57 486 57 369 q 97 696 57 603 q 207 854 138 789 q 366 954 276 919 q 553 989 456 989 q 741 954 651 989 q 900 854 831 919 q 1010 696 969 789 q 1050 486 1050 603 q 1010 276 1050 369 q 900 118 969 183 q 741 18 831 53 q 553 -17 651 -17 m 553 144 q 703 181 631 144 q 821 294 775 218 q 867 486 867 371 q 821 679 867 603 q 703 792 775 756 q 553 829 631 829 q 404 792 476 829 q 286 679 332 756 q 240 486 240 603 q 286 294 240 371 q 404 181 332 218 q 553 144 476 144 m 351 1038 l 351 1165 l 554 1276 l 757 1165 l 757 1038 l 554 1151 l 351 1038 z "},"Ö":{"ha":1107,"x_min":57,"x_max":1050,"o":"m 553 -17 q 366 18 456 -17 q 207 118 276 53 q 97 276 138 183 q 57 486 57 369 q 97 696 57 603 q 207 854 138 789 q 366 954 276 919 q 553 989 456 989 q 741 954 651 989 q 900 854 831 919 q 1010 696 969 789 q 1050 486 1050 603 q 1010 276 1050 369 q 900 118 969 183 q 741 18 831 53 q 553 -17 651 -17 m 553 144 q 703 181 631 144 q 821 294 775 218 q 867 486 867 371 q 821 679 867 603 q 703 792 775 756 q 553 829 631 829 q 404 792 476 829 q 286 679 332 756 q 240 486 240 603 q 286 294 240 371 q 404 181 332 218 q 553 144 476 144 m 400 1067 q 318 1100 351 1067 q 285 1182 285 1133 q 318 1264 285 1231 q 400 1297 351 1297 q 482 1264 449 1297 q 515 1182 515 1231 q 482 1100 515 1133 q 400 1067 449 1067 m 708 1067 q 626 1100 660 1067 q 593 1182 593 1133 q 626 1264 593 1231 q 708 1297 660 1297 q 790 1264 757 1297 q 824 1182 824 1231 q 790 1100 824 1133 q 708 1067 757 1067 z "},"Ò":{"ha":1107,"x_min":57,"x_max":1050,"o":"m 553 -17 q 366 18 456 -17 q 207 118 276 53 q 97 276 138 183 q 57 486 57 369 q 97 696 57 603 q 207 854 138 789 q 366 954 276 919 q 553 989 456 989 q 741 954 651 989 q 900 854 831 919 q 1010 696 969 789 q 1050 486 1050 603 q 1010 276 1050 369 q 900 118 969 183 q 741 18 831 53 q 553 -17 651 -17 m 553 144 q 703 181 631 144 q 821 294 775 218 q 867 486 867 371 q 821 679 867 603 q 703 792 775 756 q 553 829 631 829 q 404 792 476 829 q 286 679 332 756 q 240 486 240 603 q 286 294 240 371 q 404 181 332 218 q 553 144 476 144 m 711 1028 l 397 1178 l 397 1322 l 711 1153 l 711 1028 z "},"Ő":{"ha":1107,"x_min":57,"x_max":1050,"o":"m 553 -17 q 366 18 456 -17 q 207 118 276 53 q 97 276 138 183 q 57 486 57 369 q 97 696 57 603 q 207 854 138 789 q 366 954 276 919 q 553 989 456 989 q 741 954 651 989 q 900 854 831 919 q 1010 696 969 789 q 1050 486 1050 603 q 1010 276 1050 369 q 900 118 969 183 q 741 18 831 53 q 553 -17 651 -17 m 553 144 q 703 181 631 144 q 821 294 775 218 q 867 486 867 371 q 821 679 867 603 q 703 792 775 756 q 553 829 631 829 q 404 792 476 829 q 286 679 332 756 q 240 486 240 603 q 286 294 240 371 q 404 181 332 218 q 553 144 476 144 m 543 1039 l 656 1288 l 801 1288 l 654 1039 l 543 1039 m 307 1039 l 406 1288 l 550 1288 l 419 1039 l 307 1039 z "},"Ō":{"ha":1107,"x_min":57,"x_max":1050,"o":"m 553 -17 q 366 18 456 -17 q 207 118 276 53 q 97 276 138 183 q 57 486 57 369 q 97 696 57 603 q 207 854 138 789 q 366 954 276 919 q 553 989 456 989 q 741 954 651 989 q 900 854 831 919 q 1010 696 969 789 q 1050 486 1050 603 q 1010 276 1050 369 q 900 118 969 183 q 741 18 831 53 q 553 -17 651 -17 m 553 144 q 703 181 631 144 q 821 294 775 218 q 867 486 867 371 q 821 679 867 603 q 703 792 775 756 q 553 829 631 829 q 404 792 476 829 q 286 679 332 756 q 240 486 240 603 q 286 294 240 371 q 404 181 332 218 q 553 144 476 144 m 308 1088 l 308 1214 l 800 1214 l 800 1088 l 308 1088 z "},"Ø":{"ha":1078,"x_min":38,"x_max":1042,"o":"m 543 -17 q 390 4 461 -17 q 263 64 319 25 l 207 0 l 38 0 l 167 151 q 85 301 114 215 q 57 486 57 386 q 117 746 57 632 q 285 924 176 860 q 543 989 394 989 q 692 969 622 989 q 819 911 763 949 l 872 972 l 1042 972 l 915 826 q 1000 675 971 761 q 1029 486 1029 589 q 969 227 1029 340 q 801 49 910 114 q 543 -17 692 -17 m 543 143 q 704 185 636 143 q 810 303 772 226 q 849 486 849 381 q 836 597 849 546 q 799 690 824 647 l 371 192 q 543 143 444 143 m 283 288 l 710 783 q 543 829 639 829 q 383 788 451 829 q 276 669 314 746 q 238 486 238 593 q 249 379 238 429 q 283 288 261 329 z "},"Õ":{"ha":1107,"x_min":57,"x_max":1050,"o":"m 553 -17 q 366 18 456 -17 q 207 118 276 53 q 97 276 138 183 q 57 486 57 369 q 97 696 57 603 q 207 854 138 789 q 366 954 276 919 q 553 989 456 989 q 741 954 651 989 q 900 854 831 919 q 1010 696 969 789 q 1050 486 1050 603 q 1010 276 1050 369 q 900 118 969 183 q 741 18 831 53 q 553 -17 651 -17 m 553 144 q 703 181 631 144 q 821 294 775 218 q 867 486 867 371 q 821 679 867 603 q 703 792 775 756 q 553 829 631 829 q 404 792 476 829 q 286 679 332 756 q 240 486 240 603 q 286 294 240 371 q 404 181 332 218 q 553 144 476 144 m 635 1044 q 571 1060 597 1044 q 521 1092 544 1076 q 464 1108 497 1108 q 404 1046 415 1108 l 310 1046 q 366 1176 324 1135 q 472 1218 408 1218 q 537 1202 511 1218 q 587 1170 563 1186 q 643 1154 611 1154 q 683 1169 667 1154 q 703 1217 699 1185 l 797 1217 q 741 1086 785 1128 q 635 1044 697 1044 z "},"Œ":{"ha":1521,"x_min":57,"x_max":1453,"o":"m 535 -17 q 342 22 429 -17 q 190 128 254 60 q 92 288 126 196 q 57 486 57 379 q 92 687 57 594 q 192 847 128 779 q 343 951 256 914 q 535 989 431 989 q 717 949 629 989 q 860 835 806 910 l 860 972 l 1453 972 l 1453 821 l 1038 821 l 1038 589 l 1389 589 l 1389 438 l 1038 438 l 1038 151 l 1453 151 l 1453 0 l 860 0 l 860 133 q 718 22 807 61 q 535 -17 629 -17 m 549 143 q 681 171 624 143 q 778 247 739 199 q 839 356 818 294 q 860 486 860 418 q 818 669 860 592 q 706 788 776 746 q 549 829 635 829 q 376 779 444 829 q 273 651 307 729 q 239 486 239 572 q 263 342 239 406 q 331 233 288 278 q 431 166 375 189 q 549 143 486 143 z "},"P":{"ha":832,"x_min":89,"x_max":793,"o":"m 89 0 l 89 972 l 449 972 q 627 938 550 972 q 749 839 704 904 q 793 681 793 774 q 749 522 793 588 q 627 422 704 456 q 449 388 550 388 l 267 388 l 267 0 l 89 0 m 267 539 l 444 539 q 575 578 538 539 q 613 681 613 618 q 575 781 613 742 q 444 821 538 821 l 267 821 l 267 539 z "},"Þ":{"ha":832,"x_min":89,"x_max":793,"o":"m 89 0 l 89 972 l 267 972 l 267 785 l 449 785 q 642 745 565 785 q 756 639 718 706 q 793 485 793 571 q 757 338 793 406 q 644 231 721 271 q 449 189 568 189 l 267 189 l 267 0 l 89 0 m 267 332 l 438 332 q 572 374 531 332 q 613 485 613 415 q 572 598 613 557 q 438 639 531 639 l 267 639 l 267 332 z "},"Q":{"ha":1114,"x_min":57,"x_max":1065,"o":"m 949 -17 l 851 78 q 711 8 788 32 q 553 -17 635 -17 q 366 18 456 -17 q 207 118 276 53 q 97 276 138 183 q 57 486 57 369 q 97 696 57 603 q 207 854 138 789 q 366 954 276 919 q 553 989 456 989 q 741 954 651 989 q 900 854 831 919 q 1010 696 969 789 q 1050 486 1050 603 q 1028 329 1050 401 q 967 199 1007 257 l 1065 106 l 949 -17 m 240 486 q 286 294 240 371 q 404 181 332 218 q 553 144 476 144 q 650 156 606 144 q 732 193 694 168 l 582 338 l 699 460 l 839 322 q 860 393 853 354 q 867 486 867 432 q 821 679 867 603 q 703 792 775 756 q 553 829 631 829 q 404 792 476 829 q 286 679 332 756 q 240 486 240 603 z "},"R":{"ha":854,"x_min":89,"x_max":824,"o":"m 89 0 l 89 972 l 426 972 q 602 940 528 972 q 718 844 676 907 q 760 692 760 782 q 704 525 760 588 q 553 439 649 463 l 824 0 l 614 0 l 375 410 l 267 410 l 267 0 l 89 0 m 267 561 l 422 561 q 519 578 485 561 q 566 625 553 596 q 579 692 579 654 q 566 758 579 729 q 519 804 553 788 q 422 821 485 821 l 267 821 l 267 561 z "},"Ŕ":{"ha":854,"x_min":89,"x_max":824,"o":"m 89 0 l 89 972 l 426 972 q 602 940 528 972 q 718 844 676 907 q 760 692 760 782 q 704 525 760 588 q 553 439 649 463 l 824 0 l 614 0 l 375 410 l 267 410 l 267 0 l 89 0 m 267 561 l 422 561 q 519 578 485 561 q 566 625 553 596 q 579 692 579 654 q 566 758 579 729 q 519 804 553 788 q 422 821 485 821 l 267 821 l 267 561 m 267 1028 l 267 1153 l 581 1322 l 581 1178 l 267 1028 z "},"Ř":{"ha":854,"x_min":89,"x_max":824,"o":"m 89 0 l 89 972 l 426 972 q 602 940 528 972 q 718 844 676 907 q 760 692 760 782 q 704 525 760 588 q 553 439 649 463 l 824 0 l 614 0 l 375 410 l 267 410 l 267 0 l 89 0 m 267 561 l 422 561 q 519 578 485 561 q 566 625 553 596 q 579 692 579 654 q 566 758 579 729 q 519 804 553 788 q 422 821 485 821 l 267 821 l 267 561 m 424 1036 l 221 1147 l 221 1275 l 424 1157 l 626 1275 l 626 1147 l 424 1036 z "},"Ŗ":{"ha":854,"x_min":89,"x_max":824,"o":"m 89 0 l 89 972 l 426 972 q 602 940 528 972 q 718 844 676 907 q 760 692 760 782 q 704 525 760 588 q 553 439 649 463 l 824 0 l 614 0 l 375 410 l 267 410 l 267 0 l 89 0 m 267 561 l 422 561 q 519 578 485 561 q 566 625 553 596 q 579 692 579 654 q 566 758 579 729 q 519 804 553 788 q 422 821 485 821 l 267 821 l 267 561 m 353 -381 l 353 -308 q 422 -222 422 -308 l 422 -201 l 346 -201 l 346 -62 l 497 -62 q 513 -133 508 -99 q 518 -196 518 -167 q 476 -333 518 -285 q 353 -381 435 -381 z "},"S":{"ha":818,"x_min":54,"x_max":763,"o":"m 421 -17 q 237 18 319 -17 q 106 122 154 53 q 54 293 57 190 l 242 293 q 291 179 244 225 q 419 133 338 133 q 532 167 490 133 q 574 257 574 200 q 565 308 574 286 q 531 350 556 331 q 460 388 506 369 q 342 431 415 407 q 188 504 246 463 q 103 598 129 546 q 78 711 78 650 q 122 865 78 803 q 240 958 165 926 q 404 989 314 989 q 570 957 496 989 q 690 863 644 925 q 738 708 736 800 l 547 708 q 506 800 546 761 q 397 839 467 839 q 303 810 342 839 q 264 724 264 781 q 295 653 264 682 q 380 602 326 624 q 499 557 433 581 q 580 525 535 544 q 667 473 625 506 q 735 391 708 440 q 763 269 763 342 q 717 117 763 181 q 595 18 672 53 q 421 -17 518 -17 z "},"Ś":{"ha":818,"x_min":54,"x_max":763,"o":"m 421 -17 q 237 18 319 -17 q 106 122 154 53 q 54 293 57 190 l 242 293 q 291 179 244 225 q 419 133 338 133 q 532 167 490 133 q 574 257 574 200 q 565 308 574 286 q 531 350 556 331 q 460 388 506 369 q 342 431 415 407 q 188 504 246 463 q 103 598 129 546 q 78 711 78 650 q 122 865 78 803 q 240 958 165 926 q 404 989 314 989 q 570 957 496 989 q 690 863 644 925 q 738 708 736 800 l 547 708 q 506 800 546 761 q 397 839 467 839 q 303 810 342 839 q 264 724 264 781 q 295 653 264 682 q 380 602 326 624 q 499 557 433 581 q 580 525 535 544 q 667 473 625 506 q 735 391 708 440 q 763 269 763 342 q 717 117 763 181 q 595 18 672 53 q 421 -17 518 -17 m 253 1028 l 253 1153 l 567 1322 l 567 1178 l 253 1028 z "},"Š":{"ha":818,"x_min":54,"x_max":763,"o":"m 421 -17 q 237 18 319 -17 q 106 122 154 53 q 54 293 57 190 l 242 293 q 291 179 244 225 q 419 133 338 133 q 532 167 490 133 q 574 257 574 200 q 565 308 574 286 q 531 350 556 331 q 460 388 506 369 q 342 431 415 407 q 188 504 246 463 q 103 598 129 546 q 78 711 78 650 q 122 865 78 803 q 240 958 165 926 q 404 989 314 989 q 570 957 496 989 q 690 863 644 925 q 738 708 736 800 l 547 708 q 506 800 546 761 q 397 839 467 839 q 303 810 342 839 q 264 724 264 781 q 295 653 264 682 q 380 602 326 624 q 499 557 433 581 q 580 525 535 544 q 667 473 625 506 q 735 391 708 440 q 763 269 763 342 q 717 117 763 181 q 595 18 672 53 q 421 -17 518 -17 m 410 1036 l 207 1147 l 207 1275 l 410 1157 l 613 1275 l 613 1147 l 410 1036 z "},"Ş":{"ha":818,"x_min":54,"x_max":763,"o":"m 421 -17 q 237 18 319 -17 q 106 122 154 53 q 54 293 57 190 l 242 293 q 291 179 244 225 q 419 133 338 133 q 532 167 490 133 q 574 257 574 200 q 565 308 574 286 q 531 350 556 331 q 460 388 506 369 q 342 431 415 407 q 188 504 246 463 q 103 598 129 546 q 78 711 78 650 q 122 865 78 803 q 240 958 165 926 q 404 989 314 989 q 570 957 496 989 q 690 863 644 925 q 738 708 736 800 l 547 708 q 506 800 546 761 q 397 839 467 839 q 303 810 342 839 q 264 724 264 781 q 295 653 264 682 q 380 602 326 624 q 499 557 433 581 q 580 525 535 544 q 667 473 625 506 q 735 391 708 440 q 763 269 763 342 q 717 117 763 181 q 595 18 672 53 q 421 -17 518 -17 m 282 -365 l 282 -262 l 438 -262 q 511 -212 511 -262 q 438 -164 511 -164 l 353 -164 l 353 24 l 464 24 l 464 -69 q 553 -84 513 -68 q 619 -133 594 -100 q 644 -215 644 -165 q 619 -299 644 -265 q 553 -349 594 -332 q 464 -365 513 -365 l 282 -365 z "},"Ș":{"ha":818,"x_min":54,"x_max":763,"o":"m 421 -17 q 237 18 319 -17 q 106 122 154 53 q 54 293 57 190 l 242 293 q 291 179 244 225 q 419 133 338 133 q 532 167 490 133 q 574 257 574 200 q 565 308 574 286 q 531 350 556 331 q 460 388 506 369 q 342 431 415 407 q 188 504 246 463 q 103 598 129 546 q 78 711 78 650 q 122 865 78 803 q 240 958 165 926 q 404 989 314 989 q 570 957 496 989 q 690 863 644 925 q 738 708 736 800 l 547 708 q 506 800 546 761 q 397 839 467 839 q 303 810 342 839 q 264 724 264 781 q 295 653 264 682 q 380 602 326 624 q 499 557 433 581 q 580 525 535 544 q 667 473 625 506 q 735 391 708 440 q 763 269 763 342 q 717 117 763 181 q 595 18 672 53 q 421 -17 518 -17 m 331 -381 l 331 -308 q 400 -222 400 -308 l 400 -201 l 324 -201 l 324 -62 l 475 -62 q 491 -133 486 -99 q 496 -196 496 -167 q 454 -333 496 -285 q 331 -381 413 -381 z "},"ẞ":{"ha":926,"x_min":64,"x_max":911,"o":"m 631 -14 q 428 49 513 -14 q 328 243 343 113 l 496 243 q 538 151 503 185 q 628 118 572 118 q 707 140 676 118 q 738 210 738 163 q 719 269 738 247 q 672 304 701 290 q 608 331 643 318 q 509 370 558 349 q 427 426 460 392 q 394 514 394 460 q 413 579 394 551 q 457 625 431 607 q 483 643 471 635 q 510 661 496 651 q 551 699 532 678 q 571 754 571 721 q 524 842 571 815 q 415 868 476 868 q 317 847 356 868 q 260 788 278 826 q 242 693 242 749 l 242 0 l 64 0 l 64 707 q 111 877 64 808 q 240 981 158 946 q 422 1017 321 1017 q 586 988 513 1017 q 703 906 660 960 q 747 772 747 851 q 730 701 747 731 q 687 652 713 672 q 635 614 661 632 q 594 584 615 601 q 574 542 574 567 q 588 506 574 521 q 633 478 601 492 q 715 446 664 465 q 857 364 803 414 q 911 221 911 314 q 875 94 911 147 q 776 14 839 42 q 631 -14 713 -14 z "},"T":{"ha":808,"x_min":32,"x_max":778,"o":"m 315 0 l 315 821 l 32 821 l 32 972 l 778 972 l 778 821 l 493 821 l 493 0 l 315 0 z "},"Ť":{"ha":808,"x_min":32,"x_max":778,"o":"m 315 0 l 315 821 l 32 821 l 32 972 l 778 972 l 778 821 l 493 821 l 493 0 l 315 0 m 406 1036 l 203 1147 l 203 1275 l 406 1157 l 608 1275 l 608 1147 l 406 1036 z "},"Ţ":{"ha":808,"x_min":32,"x_max":778,"o":"m 315 0 l 315 821 l 32 821 l 32 972 l 778 972 l 778 821 l 493 821 l 493 0 l 315 0 m 278 -365 l 278 -262 l 433 -262 q 507 -212 507 -262 q 433 -164 507 -164 l 349 -164 l 349 24 l 460 24 l 460 -69 q 549 -84 508 -68 q 615 -133 590 -100 q 640 -215 640 -165 q 615 -299 640 -265 q 549 -349 590 -332 q 460 -365 508 -365 l 278 -365 z "},"Ț":{"ha":808,"x_min":32,"x_max":778,"o":"m 315 0 l 315 821 l 32 821 l 32 972 l 778 972 l 778 821 l 493 821 l 493 0 l 315 0 m 326 -381 l 326 -308 q 396 -222 396 -308 l 396 -201 l 319 -201 l 319 -62 l 471 -62 q 487 -133 482 -99 q 492 -196 492 -167 q 450 -333 492 -285 q 326 -381 408 -381 z "},"U":{"ha":935,"x_min":83,"x_max":853,"o":"m 464 -17 q 247 37 331 -17 q 123 179 163 90 q 83 372 83 268 l 83 972 l 261 972 l 261 371 q 316 201 261 257 q 468 146 371 146 q 619 201 564 146 q 675 371 675 257 l 675 972 l 853 972 l 853 372 q 818 188 853 263 q 726 68 783 113 q 599 3 668 24 q 464 -17 531 -17 z "},"Ú":{"ha":935,"x_min":83,"x_max":853,"o":"m 464 -17 q 247 37 331 -17 q 123 179 163 90 q 83 372 83 268 l 83 972 l 261 972 l 261 371 q 316 201 261 257 q 468 146 371 146 q 619 201 564 146 q 675 371 675 257 l 675 972 l 853 972 l 853 372 q 818 188 853 263 q 726 68 783 113 q 599 3 668 24 q 464 -17 531 -17 m 311 1028 l 311 1153 l 625 1322 l 625 1178 l 311 1028 z "},"Ŭ":{"ha":935,"x_min":83,"x_max":853,"o":"m 464 -17 q 247 37 331 -17 q 123 179 163 90 q 83 372 83 268 l 83 972 l 261 972 l 261 371 q 316 201 261 257 q 468 146 371 146 q 619 201 564 146 q 675 371 675 257 l 675 972 l 853 972 l 853 372 q 818 188 853 263 q 726 68 783 113 q 599 3 668 24 q 464 -17 531 -17 m 467 1040 q 309 1097 367 1040 q 251 1251 251 1154 l 251 1274 l 346 1274 q 373 1200 346 1226 q 468 1174 400 1174 q 562 1200 535 1174 q 589 1274 589 1226 l 683 1274 l 683 1250 q 625 1097 683 1154 q 467 1040 567 1040 z "},"Û":{"ha":935,"x_min":83,"x_max":853,"o":"m 464 -17 q 247 37 331 -17 q 123 179 163 90 q 83 372 83 268 l 83 972 l 261 972 l 261 371 q 316 201 261 257 q 468 146 371 146 q 619 201 564 146 q 675 371 675 257 l 675 972 l 853 972 l 853 372 q 818 188 853 263 q 726 68 783 113 q 599 3 668 24 q 464 -17 531 -17 m 265 1038 l 265 1165 l 468 1276 l 671 1165 l 671 1038 l 468 1151 l 265 1038 z "},"Ü":{"ha":935,"x_min":83,"x_max":853,"o":"m 464 -17 q 247 37 331 -17 q 123 179 163 90 q 83 372 83 268 l 83 972 l 261 972 l 261 371 q 316 201 261 257 q 468 146 371 146 q 619 201 564 146 q 675 371 675 257 l 675 972 l 853 972 l 853 372 q 818 188 853 263 q 726 68 783 113 q 599 3 668 24 q 464 -17 531 -17 m 314 1067 q 232 1100 265 1067 q 199 1182 199 1133 q 232 1264 199 1231 q 314 1297 265 1297 q 396 1264 363 1297 q 429 1182 429 1231 q 396 1100 429 1133 q 314 1067 363 1067 m 622 1067 q 540 1100 574 1067 q 507 1182 507 1133 q 540 1264 507 1231 q 622 1297 574 1297 q 704 1264 671 1297 q 738 1182 738 1231 q 704 1100 738 1133 q 622 1067 671 1067 z "},"Ù":{"ha":935,"x_min":83,"x_max":853,"o":"m 464 -17 q 247 37 331 -17 q 123 179 163 90 q 83 372 83 268 l 83 972 l 261 972 l 261 371 q 316 201 261 257 q 468 146 371 146 q 619 201 564 146 q 675 371 675 257 l 675 972 l 853 972 l 853 372 q 818 188 853 263 q 726 68 783 113 q 599 3 668 24 q 464 -17 531 -17 m 625 1028 l 311 1178 l 311 1322 l 625 1153 l 625 1028 z "},"Ű":{"ha":935,"x_min":83,"x_max":853,"o":"m 464 -17 q 247 37 331 -17 q 123 179 163 90 q 83 372 83 268 l 83 972 l 261 972 l 261 371 q 316 201 261 257 q 468 146 371 146 q 619 201 564 146 q 675 371 675 257 l 675 972 l 853 972 l 853 372 q 818 188 853 263 q 726 68 783 113 q 599 3 668 24 q 464 -17 531 -17 m 457 1039 l 569 1288 l 715 1288 l 568 1039 l 457 1039 m 221 1039 l 319 1288 l 464 1288 l 333 1039 l 221 1039 z "},"Ū":{"ha":935,"x_min":83,"x_max":853,"o":"m 464 -17 q 247 37 331 -17 q 123 179 163 90 q 83 372 83 268 l 83 972 l 261 972 l 261 371 q 316 201 261 257 q 468 146 371 146 q 619 201 564 146 q 675 371 675 257 l 675 972 l 853 972 l 853 372 q 818 188 853 263 q 726 68 783 113 q 599 3 668 24 q 464 -17 531 -17 m 222 1088 l 222 1214 l 714 1214 l 714 1088 l 222 1088 z "},"Ų":{"ha":935,"x_min":83,"x_max":853,"o":"m 464 -17 q 247 37 331 -17 q 123 179 163 90 q 83 372 83 268 l 83 972 l 261 972 l 261 371 q 316 201 261 257 q 468 146 371 146 q 619 201 564 146 q 675 371 675 257 l 675 972 l 853 972 l 853 372 q 818 188 853 263 q 726 68 783 113 q 599 3 668 24 q 464 -17 531 -17 m 467 -278 q 337 -243 392 -278 q 282 -133 282 -208 q 324 -28 282 -78 q 476 69 367 22 l 540 97 l 581 14 l 508 -22 q 438 -69 458 -47 q 417 -117 417 -92 q 436 -158 417 -143 q 489 -174 456 -174 q 588 -153 533 -174 l 588 -258 q 530 -272 561 -267 q 467 -278 499 -278 z "},"Ů":{"ha":935,"x_min":83,"x_max":853,"o":"m 464 -17 q 247 37 331 -17 q 123 179 163 90 q 83 372 83 268 l 83 972 l 261 972 l 261 371 q 316 201 261 257 q 468 146 371 146 q 619 201 564 146 q 675 371 675 257 l 675 972 l 853 972 l 853 372 q 818 188 853 263 q 726 68 783 113 q 599 3 668 24 q 464 -17 531 -17 m 467 1043 q 356 1085 403 1043 q 310 1199 310 1126 q 356 1313 310 1271 q 467 1354 403 1354 q 580 1313 533 1354 q 626 1199 626 1271 q 580 1085 626 1126 q 467 1043 533 1043 m 467 1124 q 519 1144 499 1124 q 540 1199 540 1165 q 519 1253 540 1233 q 467 1274 499 1274 q 417 1253 438 1274 q 396 1199 396 1233 q 417 1144 396 1165 q 467 1124 438 1124 z "},"Ũ":{"ha":935,"x_min":83,"x_max":853,"o":"m 464 -17 q 247 37 331 -17 q 123 179 163 90 q 83 372 83 268 l 83 972 l 261 972 l 261 371 q 316 201 261 257 q 468 146 371 146 q 619 201 564 146 q 675 371 675 257 l 675 972 l 853 972 l 853 372 q 818 188 853 263 q 726 68 783 113 q 599 3 668 24 q 464 -17 531 -17 m 549 1044 q 485 1060 511 1044 q 435 1092 458 1076 q 378 1108 411 1108 q 318 1046 329 1108 l 224 1046 q 280 1176 238 1135 q 386 1218 322 1218 q 451 1202 425 1218 q 501 1170 476 1186 q 557 1154 525 1154 q 597 1169 581 1154 q 617 1217 613 1185 l 711 1217 q 655 1086 699 1128 q 549 1044 611 1044 z "},"V":{"ha":960,"x_min":15,"x_max":944,"o":"m 371 0 l 15 972 l 206 972 l 481 182 l 757 972 l 944 972 l 589 0 l 371 0 z "},"W":{"ha":1385,"x_min":25,"x_max":1360,"o":"m 363 0 l 25 972 l 207 972 l 469 168 l 574 493 l 406 972 l 585 972 l 693 632 l 800 972 l 981 972 l 811 493 l 915 168 l 1178 972 l 1360 972 l 1022 0 l 811 0 l 693 353 l 574 0 l 363 0 z "},"Ẃ":{"ha":1385,"x_min":25,"x_max":1360,"o":"m 363 0 l 25 972 l 207 972 l 469 168 l 574 493 l 406 972 l 585 972 l 693 632 l 800 972 l 981 972 l 811 493 l 915 168 l 1178 972 l 1360 972 l 1022 0 l 811 0 l 693 353 l 574 0 l 363 0 m 536 1028 l 536 1153 l 850 1322 l 850 1178 l 536 1028 z "},"Ŵ":{"ha":1385,"x_min":25,"x_max":1360,"o":"m 363 0 l 25 972 l 207 972 l 469 168 l 574 493 l 406 972 l 585 972 l 693 632 l 800 972 l 981 972 l 811 493 l 915 168 l 1178 972 l 1360 972 l 1022 0 l 811 0 l 693 353 l 574 0 l 363 0 m 490 1038 l 490 1165 l 693 1276 l 896 1165 l 896 1038 l 693 1151 l 490 1038 z "},"Ẅ":{"ha":1385,"x_min":25,"x_max":1360,"o":"m 363 0 l 25 972 l 207 972 l 469 168 l 574 493 l 406 972 l 585 972 l 693 632 l 800 972 l 981 972 l 811 493 l 915 168 l 1178 972 l 1360 972 l 1022 0 l 811 0 l 693 353 l 574 0 l 363 0 m 539 1067 q 457 1100 490 1067 q 424 1182 424 1133 q 457 1264 424 1231 q 539 1297 490 1297 q 621 1264 588 1297 q 654 1182 654 1231 q 621 1100 654 1133 q 539 1067 588 1067 m 847 1067 q 765 1100 799 1067 q 732 1182 732 1133 q 765 1264 732 1231 q 847 1297 799 1297 q 929 1264 896 1297 q 963 1182 963 1231 q 929 1100 963 1133 q 847 1067 896 1067 z "},"Ẁ":{"ha":1385,"x_min":25,"x_max":1360,"o":"m 363 0 l 25 972 l 207 972 l 469 168 l 574 493 l 406 972 l 585 972 l 693 632 l 800 972 l 981 972 l 811 493 l 915 168 l 1178 972 l 1360 972 l 1022 0 l 811 0 l 693 353 l 574 0 l 363 0 m 850 1028 l 536 1178 l 536 1322 l 850 1153 l 850 1028 z "},"X":{"ha":904,"x_min":40,"x_max":868,"o":"m 40 0 l 349 529 l 85 972 l 286 972 l 454 690 l 611 972 l 813 972 l 553 529 l 868 0 l 667 0 l 449 367 l 242 0 l 40 0 z "},"Y":{"ha":857,"x_min":14,"x_max":843,"o":"m 340 0 l 340 390 l 14 972 l 215 972 l 431 568 l 644 972 l 843 972 l 518 390 l 518 0 l 340 0 z "},"Ý":{"ha":857,"x_min":14,"x_max":843,"o":"m 340 0 l 340 390 l 14 972 l 215 972 l 431 568 l 644 972 l 843 972 l 518 390 l 518 0 l 340 0 m 272 1028 l 272 1153 l 586 1322 l 586 1178 l 272 1028 z "},"Ŷ":{"ha":857,"x_min":14,"x_max":843,"o":"m 340 0 l 340 390 l 14 972 l 215 972 l 431 568 l 644 972 l 843 972 l 518 390 l 518 0 l 340 0 m 226 1038 l 226 1165 l 429 1276 l 632 1165 l 632 1038 l 429 1151 l 226 1038 z "},"Ÿ":{"ha":857,"x_min":14,"x_max":843,"o":"m 340 0 l 340 390 l 14 972 l 215 972 l 431 568 l 644 972 l 843 972 l 518 390 l 518 0 l 340 0 m 275 1067 q 193 1100 226 1067 q 160 1182 160 1133 q 193 1264 160 1231 q 275 1297 226 1297 q 357 1264 324 1297 q 390 1182 390 1231 q 357 1100 390 1133 q 275 1067 324 1067 m 583 1067 q 501 1100 535 1067 q 468 1182 468 1133 q 501 1264 468 1231 q 583 1297 535 1297 q 665 1264 632 1297 q 699 1182 699 1231 q 665 1100 699 1133 q 583 1067 632 1067 z "},"Ỳ":{"ha":857,"x_min":14,"x_max":843,"o":"m 340 0 l 340 390 l 14 972 l 215 972 l 431 568 l 644 972 l 843 972 l 518 390 l 518 0 l 340 0 m 586 1028 l 272 1178 l 272 1322 l 586 1153 l 586 1028 z "},"Ỹ":{"ha":857,"x_min":14,"x_max":843,"o":"m 340 0 l 340 390 l 14 972 l 215 972 l 431 568 l 644 972 l 843 972 l 518 390 l 518 0 l 340 0 m 510 1044 q 446 1060 472 1044 q 396 1092 419 1076 q 339 1108 372 1108 q 279 1046 290 1108 l 185 1046 q 241 1176 199 1135 q 347 1218 283 1218 q 412 1202 386 1218 q 462 1170 438 1186 q 518 1154 486 1154 q 558 1169 542 1154 q 578 1217 574 1185 l 672 1217 q 616 1086 660 1128 q 510 1044 572 1044 z "},"Z":{"ha":775,"x_min":60,"x_max":715,"o":"m 60 0 l 60 136 l 506 822 l 64 822 l 64 972 l 713 972 l 713 836 l 264 151 l 715 151 l 715 0 l 60 0 z "},"Ź":{"ha":775,"x_min":60,"x_max":715,"o":"m 60 0 l 60 136 l 506 822 l 64 822 l 64 972 l 713 972 l 713 836 l 264 151 l 715 151 l 715 0 l 60 0 m 231 1028 l 231 1153 l 544 1322 l 544 1178 l 231 1028 z "},"Ž":{"ha":775,"x_min":60,"x_max":715,"o":"m 60 0 l 60 136 l 506 822 l 64 822 l 64 972 l 713 972 l 713 836 l 264 151 l 715 151 l 715 0 l 60 0 m 388 1036 l 185 1147 l 185 1275 l 388 1157 l 590 1275 l 590 1147 l 388 1036 z "},"Ż":{"ha":775,"x_min":60,"x_max":715,"o":"m 60 0 l 60 136 l 506 822 l 64 822 l 64 972 l 713 972 l 713 836 l 264 151 l 715 151 l 715 0 l 60 0 m 388 1067 q 306 1100 339 1067 q 272 1182 272 1133 q 306 1264 272 1231 q 388 1297 339 1297 q 469 1264 436 1297 q 503 1182 503 1231 q 469 1100 503 1133 q 388 1067 436 1067 z "},"Ꞌ":{"ha":357,"x_min":83,"x_max":274,"o":"m 103 292 l 83 972 l 274 972 l 253 292 l 103 292 z "},"a":{"ha":771,"x_min":42,"x_max":747,"o":"m 274 -17 q 160 8 213 -17 q 74 80 107 33 q 42 190 42 126 q 79 315 42 267 q 183 388 117 364 q 331 411 249 411 l 494 411 q 480 490 494 458 q 437 540 465 522 q 367 557 408 557 q 280 535 318 557 q 233 464 242 514 l 56 464 q 107 593 63 539 q 221 676 151 647 q 369 706 290 706 q 534 669 467 706 q 638 567 601 633 q 674 411 674 501 l 674 201 q 696 160 676 171 q 747 149 715 149 l 747 0 q 638 13 682 0 q 567 49 594 25 q 519 111 539 74 q 420 20 488 57 q 274 -17 353 -17 m 325 126 q 409 147 371 126 q 471 206 447 168 q 494 292 494 243 l 494 297 l 342 297 q 283 288 311 297 q 239 260 256 279 q 222 210 222 242 q 252 147 222 167 q 325 126 282 126 z "},"á":{"ha":771,"x_min":42,"x_max":747,"o":"m 274 -17 q 160 8 213 -17 q 74 80 107 33 q 42 190 42 126 q 79 315 42 267 q 183 388 117 364 q 331 411 249 411 l 494 411 q 480 490 494 458 q 437 540 465 522 q 367 557 408 557 q 280 535 318 557 q 233 464 242 514 l 56 464 q 107 593 63 539 q 221 676 151 647 q 369 706 290 706 q 534 669 467 706 q 638 567 601 633 q 674 411 674 501 l 674 201 q 696 160 676 171 q 747 149 715 149 l 747 0 q 638 13 682 0 q 567 49 594 25 q 519 111 539 74 q 420 20 488 57 q 274 -17 353 -17 m 325 126 q 409 147 371 126 q 471 206 447 168 q 494 292 494 243 l 494 297 l 342 297 q 283 288 311 297 q 239 260 256 279 q 222 210 222 242 q 252 147 222 167 q 325 126 282 126 m 213 749 l 213 874 l 526 1043 l 526 899 l 213 749 z "},"ă":{"ha":771,"x_min":42,"x_max":747,"o":"m 274 -17 q 160 8 213 -17 q 74 80 107 33 q 42 190 42 126 q 79 315 42 267 q 183 388 117 364 q 331 411 249 411 l 494 411 q 480 490 494 458 q 437 540 465 522 q 367 557 408 557 q 280 535 318 557 q 233 464 242 514 l 56 464 q 107 593 63 539 q 221 676 151 647 q 369 706 290 706 q 534 669 467 706 q 638 567 601 633 q 674 411 674 501 l 674 201 q 696 160 676 171 q 747 149 715 149 l 747 0 q 638 13 682 0 q 567 49 594 25 q 519 111 539 74 q 420 20 488 57 q 274 -17 353 -17 m 325 126 q 409 147 371 126 q 471 206 447 168 q 494 292 494 243 l 494 297 l 342 297 q 283 288 311 297 q 239 260 256 279 q 222 210 222 242 q 252 147 222 167 q 325 126 282 126 m 368 756 q 210 813 268 756 q 153 967 153 869 l 153 989 l 247 989 q 274 915 247 942 q 369 889 301 889 q 463 915 436 889 q 490 989 490 942 l 585 989 l 585 965 q 526 813 585 869 q 368 756 468 756 z "},"ǎ":{"ha":771,"x_min":42,"x_max":747,"o":"m 274 -17 q 160 8 213 -17 q 74 80 107 33 q 42 190 42 126 q 79 315 42 267 q 183 388 117 364 q 331 411 249 411 l 494 411 q 480 490 494 458 q 437 540 465 522 q 367 557 408 557 q 280 535 318 557 q 233 464 242 514 l 56 464 q 107 593 63 539 q 221 676 151 647 q 369 706 290 706 q 534 669 467 706 q 638 567 601 633 q 674 411 674 501 l 674 201 q 696 160 676 171 q 747 149 715 149 l 747 0 q 638 13 682 0 q 567 49 594 25 q 519 111 539 74 q 420 20 488 57 q 274 -17 353 -17 m 325 126 q 409 147 371 126 q 471 206 447 168 q 494 292 494 243 l 494 297 l 342 297 q 283 288 311 297 q 239 260 256 279 q 222 210 222 242 q 252 147 222 167 q 325 126 282 126 m 369 769 l 167 881 l 167 1008 l 369 890 l 572 1008 l 572 881 l 369 769 z "},"â":{"ha":771,"x_min":42,"x_max":747,"o":"m 274 -17 q 160 8 213 -17 q 74 80 107 33 q 42 190 42 126 q 79 315 42 267 q 183 388 117 364 q 331 411 249 411 l 494 411 q 480 490 494 458 q 437 540 465 522 q 367 557 408 557 q 280 535 318 557 q 233 464 242 514 l 56 464 q 107 593 63 539 q 221 676 151 647 q 369 706 290 706 q 534 669 467 706 q 638 567 601 633 q 674 411 674 501 l 674 201 q 696 160 676 171 q 747 149 715 149 l 747 0 q 638 13 682 0 q 567 49 594 25 q 519 111 539 74 q 420 20 488 57 q 274 -17 353 -17 m 325 126 q 409 147 371 126 q 471 206 447 168 q 494 292 494 243 l 494 297 l 342 297 q 283 288 311 297 q 239 260 256 279 q 222 210 222 242 q 252 147 222 167 q 325 126 282 126 m 167 769 l 167 897 l 369 1008 l 572 897 l 572 769 l 369 883 l 167 769 z "},"ä":{"ha":771,"x_min":42,"x_max":747,"o":"m 274 -17 q 160 8 213 -17 q 74 80 107 33 q 42 190 42 126 q 79 315 42 267 q 183 388 117 364 q 331 411 249 411 l 494 411 q 480 490 494 458 q 437 540 465 522 q 367 557 408 557 q 280 535 318 557 q 233 464 242 514 l 56 464 q 107 593 63 539 q 221 676 151 647 q 369 706 290 706 q 534 669 467 706 q 638 567 601 633 q 674 411 674 501 l 674 201 q 696 160 676 171 q 747 149 715 149 l 747 0 q 638 13 682 0 q 567 49 594 25 q 519 111 539 74 q 420 20 488 57 q 274 -17 353 -17 m 325 126 q 409 147 371 126 q 471 206 447 168 q 494 292 494 243 l 494 297 l 342 297 q 283 288 311 297 q 239 260 256 279 q 222 210 222 242 q 252 147 222 167 q 325 126 282 126 m 215 778 q 133 811 167 778 q 100 893 100 844 q 133 975 100 942 q 215 1008 167 1008 q 297 975 264 1008 q 331 893 331 942 q 297 811 331 844 q 215 778 264 778 m 524 778 q 442 811 475 778 q 408 893 408 844 q 442 975 408 942 q 524 1008 475 1008 q 606 975 572 1008 q 639 893 639 942 q 606 811 639 844 q 524 778 572 778 z "},"à":{"ha":771,"x_min":42,"x_max":747,"o":"m 274 -17 q 160 8 213 -17 q 74 80 107 33 q 42 190 42 126 q 79 315 42 267 q 183 388 117 364 q 331 411 249 411 l 494 411 q 480 490 494 458 q 437 540 465 522 q 367 557 408 557 q 280 535 318 557 q 233 464 242 514 l 56 464 q 107 593 63 539 q 221 676 151 647 q 369 706 290 706 q 534 669 467 706 q 638 567 601 633 q 674 411 674 501 l 674 201 q 696 160 676 171 q 747 149 715 149 l 747 0 q 638 13 682 0 q 567 49 594 25 q 519 111 539 74 q 420 20 488 57 q 274 -17 353 -17 m 325 126 q 409 147 371 126 q 471 206 447 168 q 494 292 494 243 l 494 297 l 342 297 q 283 288 311 297 q 239 260 256 279 q 222 210 222 242 q 252 147 222 167 q 325 126 282 126 m 526 749 l 213 899 l 213 1043 l 526 874 l 526 749 z "},"ā":{"ha":771,"x_min":42,"x_max":747,"o":"m 274 -17 q 160 8 213 -17 q 74 80 107 33 q 42 190 42 126 q 79 315 42 267 q 183 388 117 364 q 331 411 249 411 l 494 411 q 480 490 494 458 q 437 540 465 522 q 367 557 408 557 q 280 535 318 557 q 233 464 242 514 l 56 464 q 107 593 63 539 q 221 676 151 647 q 369 706 290 706 q 534 669 467 706 q 638 567 601 633 q 674 411 674 501 l 674 201 q 696 160 676 171 q 747 149 715 149 l 747 0 q 638 13 682 0 q 567 49 594 25 q 519 111 539 74 q 420 20 488 57 q 274 -17 353 -17 m 325 126 q 409 147 371 126 q 471 206 447 168 q 494 292 494 243 l 494 297 l 342 297 q 283 288 311 297 q 239 260 256 279 q 222 210 222 242 q 252 147 222 167 q 325 126 282 126 m 124 832 l 124 958 l 615 958 l 615 832 l 124 832 z "},"ą":{"ha":771,"x_min":42,"x_max":754,"o":"m 274 -17 q 160 8 213 -17 q 74 80 107 33 q 42 190 42 126 q 79 315 42 267 q 183 388 117 364 q 331 411 249 411 l 494 411 q 480 490 494 458 q 437 540 465 522 q 367 557 408 557 q 280 535 318 557 q 233 464 242 514 l 56 464 q 107 593 63 539 q 221 676 151 647 q 369 706 290 706 q 534 669 467 706 q 638 567 601 633 q 674 411 674 501 l 674 201 q 696 160 676 171 q 747 149 715 149 l 747 0 q 638 13 682 0 q 567 49 594 25 q 519 111 539 74 q 420 20 488 57 q 274 -17 353 -17 m 325 126 q 409 147 371 126 q 471 206 447 168 q 494 292 494 243 l 494 297 l 342 297 q 283 288 311 297 q 239 260 256 279 q 222 210 222 242 q 252 147 222 167 q 325 126 282 126 m 633 -292 q 503 -257 558 -292 q 449 -147 449 -222 q 491 -42 449 -92 q 643 56 533 8 l 707 83 l 747 0 l 675 -36 q 604 -83 625 -61 q 583 -131 583 -106 q 603 -172 583 -157 q 656 -187 622 -187 q 754 -167 700 -187 l 754 -272 q 697 -286 728 -281 q 633 -292 665 -292 z "},"å":{"ha":771,"x_min":42,"x_max":747,"o":"m 274 -17 q 160 8 213 -17 q 74 80 107 33 q 42 190 42 126 q 79 315 42 267 q 183 388 117 364 q 331 411 249 411 l 494 411 q 480 490 494 458 q 437 540 465 522 q 367 557 408 557 q 280 535 318 557 q 233 464 242 514 l 56 464 q 107 593 63 539 q 221 676 151 647 q 369 706 290 706 q 534 669 467 706 q 638 567 601 633 q 674 411 674 501 l 674 201 q 696 160 676 171 q 747 149 715 149 l 747 0 q 638 13 682 0 q 567 49 594 25 q 519 111 539 74 q 420 20 488 57 q 274 -17 353 -17 m 325 126 q 409 147 371 126 q 471 206 447 168 q 494 292 494 243 l 494 297 l 342 297 q 283 288 311 297 q 239 260 256 279 q 222 210 222 242 q 252 147 222 167 q 325 126 282 126 m 368 757 q 258 799 304 757 q 211 913 211 840 q 258 1026 211 985 q 368 1068 304 1068 q 481 1026 435 1068 q 528 913 528 985 q 481 799 528 840 q 368 757 435 757 m 368 838 q 421 858 400 838 q 442 913 442 879 q 421 967 442 947 q 368 988 400 988 q 318 967 339 988 q 297 913 297 947 q 318 858 297 879 q 368 838 339 838 z "},"ã":{"ha":771,"x_min":42,"x_max":747,"o":"m 274 -17 q 160 8 213 -17 q 74 80 107 33 q 42 190 42 126 q 79 315 42 267 q 183 388 117 364 q 331 411 249 411 l 494 411 q 480 490 494 458 q 437 540 465 522 q 367 557 408 557 q 280 535 318 557 q 233 464 242 514 l 56 464 q 107 593 63 539 q 221 676 151 647 q 369 706 290 706 q 534 669 467 706 q 638 567 601 633 q 674 411 674 501 l 674 201 q 696 160 676 171 q 747 149 715 149 l 747 0 q 638 13 682 0 q 567 49 594 25 q 519 111 539 74 q 420 20 488 57 q 274 -17 353 -17 m 325 126 q 409 147 371 126 q 471 206 447 168 q 494 292 494 243 l 494 297 l 342 297 q 283 288 311 297 q 239 260 256 279 q 222 210 222 242 q 252 147 222 167 q 325 126 282 126 m 450 804 q 386 820 413 804 q 336 852 360 836 q 279 868 313 868 q 240 853 254 868 q 219 806 225 838 l 125 806 q 181 936 139 894 q 288 978 224 978 q 352 962 326 978 q 402 930 378 946 q 458 914 426 914 q 498 929 482 914 q 518 976 514 944 l 613 976 q 556 846 600 888 q 450 804 513 804 z "},"æ":{"ha":1251,"x_min":42,"x_max":1219,"o":"m 313 -17 q 176 8 238 -17 q 78 81 114 33 q 42 193 42 128 q 74 307 42 258 q 172 383 106 356 q 336 411 238 411 l 521 411 q 481 526 521 492 q 385 561 442 561 q 294 536 333 561 q 246 463 256 511 l 72 463 q 126 597 81 543 q 241 678 172 651 q 385 706 310 706 q 531 680 467 706 q 633 606 594 654 q 742 679 679 653 q 878 706 806 706 q 1052 663 975 706 q 1174 545 1129 621 q 1219 367 1219 469 q 1219 336 1219 353 q 1217 300 1218 319 l 703 300 q 733 208 708 246 q 794 149 757 169 q 876 129 832 129 q 965 153 929 129 q 1021 214 1001 176 l 1200 214 q 1137 99 1181 151 q 1028 15 1093 47 q 878 -17 963 -17 q 713 21 788 -17 q 592 125 639 58 q 483 24 550 64 q 313 -17 417 -17 m 338 122 q 422 144 385 122 q 482 205 458 167 q 514 288 506 243 l 514 300 l 358 300 q 260 275 290 300 q 229 211 229 250 q 259 147 229 171 q 338 122 289 122 m 706 411 l 1040 411 q 990 522 1035 482 q 879 561 944 561 q 768 524 817 561 q 706 411 719 486 z "},"ǽ":{"ha":1251,"x_min":42,"x_max":1219,"o":"m 313 -17 q 176 8 238 -17 q 78 81 114 33 q 42 193 42 128 q 74 307 42 258 q 172 383 106 356 q 336 411 238 411 l 521 411 q 481 526 521 492 q 385 561 442 561 q 294 536 333 561 q 246 463 256 511 l 72 463 q 126 597 81 543 q 241 678 172 651 q 385 706 310 706 q 531 680 467 706 q 633 606 594 654 q 742 679 679 653 q 878 706 806 706 q 1052 663 975 706 q 1174 545 1129 621 q 1219 367 1219 469 q 1219 336 1219 353 q 1217 300 1218 319 l 703 300 q 733 208 708 246 q 794 149 757 169 q 876 129 832 129 q 965 153 929 129 q 1021 214 1001 176 l 1200 214 q 1137 99 1181 151 q 1028 15 1093 47 q 878 -17 963 -17 q 713 21 788 -17 q 592 125 639 58 q 483 24 550 64 q 313 -17 417 -17 m 338 122 q 422 144 385 122 q 482 205 458 167 q 514 288 506 243 l 514 300 l 358 300 q 260 275 290 300 q 229 211 229 250 q 259 147 229 171 q 338 122 289 122 m 706 411 l 1040 411 q 990 522 1035 482 q 879 561 944 561 q 768 524 817 561 q 706 411 719 486 m 469 749 l 469 874 l 783 1043 l 783 899 l 469 749 z "},"b":{"ha":831,"x_min":63,"x_max":790,"o":"m 471 -17 q 341 10 401 -17 q 240 94 281 38 l 240 0 l 63 0 l 63 972 l 239 972 l 239 592 q 339 677 278 649 q 471 706 400 706 q 641 658 569 706 q 751 528 713 610 q 790 347 790 447 q 751 165 790 249 q 641 33 713 82 q 471 -17 569 -17 m 424 139 q 521 167 479 139 q 586 242 563 194 q 610 347 610 290 q 584 458 610 413 q 516 526 558 503 q 424 550 474 550 q 328 524 369 550 q 264 451 288 497 q 240 344 240 404 q 265 237 240 283 q 331 165 289 190 q 424 139 372 139 z "},"c":{"ha":756,"x_min":40,"x_max":715,"o":"m 386 -17 q 204 30 282 -17 q 83 158 126 76 q 40 344 40 239 q 83 531 40 449 q 203 659 125 613 q 386 706 281 706 q 598 643 511 706 q 715 458 685 581 l 525 458 q 477 527 513 499 q 385 556 442 556 q 292 526 328 556 q 238 449 256 497 q 221 344 221 401 q 238 240 221 288 q 292 163 256 192 q 385 135 328 135 q 474 159 439 135 q 525 231 508 183 l 715 231 q 651 97 697 153 q 537 13 604 42 q 386 -17 469 -17 z "},"ć":{"ha":756,"x_min":40,"x_max":715,"o":"m 386 -17 q 204 30 282 -17 q 83 158 126 76 q 40 344 40 239 q 83 531 40 449 q 203 659 125 613 q 386 706 281 706 q 598 643 511 706 q 715 458 685 581 l 525 458 q 477 527 513 499 q 385 556 442 556 q 292 526 328 556 q 238 449 256 497 q 221 344 221 401 q 238 240 221 288 q 292 163 256 192 q 385 135 328 135 q 474 159 439 135 q 525 231 508 183 l 715 231 q 651 97 697 153 q 537 13 604 42 q 386 -17 469 -17 m 226 749 l 226 874 l 540 1043 l 540 899 l 226 749 z "},"č":{"ha":756,"x_min":40,"x_max":715,"o":"m 386 -17 q 204 30 282 -17 q 83 158 126 76 q 40 344 40 239 q 83 531 40 449 q 203 659 125 613 q 386 706 281 706 q 598 643 511 706 q 715 458 685 581 l 525 458 q 477 527 513 499 q 385 556 442 556 q 292 526 328 556 q 238 449 256 497 q 221 344 221 401 q 238 240 221 288 q 292 163 256 192 q 385 135 328 135 q 474 159 439 135 q 525 231 508 183 l 715 231 q 651 97 697 153 q 537 13 604 42 q 386 -17 469 -17 m 383 769 l 181 881 l 181 1008 l 383 890 l 586 1008 l 586 881 l 383 769 z "},"ç":{"ha":756,"x_min":40,"x_max":715,"o":"m 386 -17 q 204 30 282 -17 q 83 158 126 76 q 40 344 40 239 q 83 531 40 449 q 203 659 125 613 q 386 706 281 706 q 598 643 511 706 q 715 458 685 581 l 525 458 q 477 527 513 499 q 385 556 442 556 q 292 526 328 556 q 238 449 256 497 q 221 344 221 401 q 238 240 221 288 q 292 163 256 192 q 385 135 328 135 q 474 159 439 135 q 525 231 508 183 l 715 231 q 651 97 697 153 q 537 13 604 42 q 386 -17 469 -17 m 256 -365 l 256 -262 l 411 -262 q 485 -212 485 -262 q 411 -164 485 -164 l 326 -164 l 326 24 l 438 24 l 438 -69 q 527 -84 486 -68 q 593 -133 568 -100 q 618 -215 618 -165 q 593 -299 618 -265 q 527 -349 568 -332 q 438 -365 486 -365 l 256 -365 z "},"ċ":{"ha":756,"x_min":40,"x_max":715,"o":"m 386 -17 q 204 30 282 -17 q 83 158 126 76 q 40 344 40 239 q 83 531 40 449 q 203 659 125 613 q 386 706 281 706 q 598 643 511 706 q 715 458 685 581 l 525 458 q 477 527 513 499 q 385 556 442 556 q 292 526 328 556 q 238 449 256 497 q 221 344 221 401 q 238 240 221 288 q 292 163 256 192 q 385 135 328 135 q 474 159 439 135 q 525 231 508 183 l 715 231 q 651 97 697 153 q 537 13 604 42 q 386 -17 469 -17 m 383 778 q 301 811 335 778 q 268 893 268 844 q 301 975 268 942 q 383 1008 335 1008 q 465 975 432 1008 q 499 893 499 942 q 465 811 499 844 q 383 778 432 778 z "},"d":{"ha":831,"x_min":40,"x_max":768,"o":"m 360 -17 q 188 33 260 -17 q 78 165 117 82 q 40 347 40 247 q 79 528 40 447 q 190 658 118 610 q 360 706 263 706 q 487 678 426 706 q 589 597 547 650 l 589 972 l 768 972 l 768 0 l 589 0 l 589 99 q 492 13 554 42 q 360 -17 429 -17 m 406 139 q 502 165 461 139 q 567 238 543 192 q 590 344 590 285 q 561 463 590 418 q 489 529 532 508 q 404 550 446 550 q 309 524 350 550 q 244 452 268 497 q 221 347 221 407 q 244 242 221 289 q 310 167 268 194 q 406 139 351 139 z "},"ď":{"ha":831,"x_min":40,"x_max":1036,"o":"m 360 -17 q 188 33 260 -17 q 78 165 117 82 q 40 347 40 247 q 79 528 40 447 q 190 658 118 610 q 360 706 263 706 q 487 678 426 706 q 589 597 547 650 l 589 972 l 768 972 l 768 0 l 589 0 l 589 99 q 492 13 554 42 q 360 -17 429 -17 m 406 139 q 502 165 461 139 q 567 238 543 192 q 590 344 590 285 q 561 463 590 418 q 489 529 532 508 q 404 550 446 550 q 309 524 350 550 q 244 452 268 497 q 221 347 221 407 q 244 242 221 289 q 310 167 268 194 q 406 139 351 139 m 803 758 l 869 972 l 1036 972 l 918 758 l 803 758 z "},"đ":{"ha":831,"x_min":40,"x_max":822,"o":"m 360 -17 q 188 33 260 -17 q 78 165 117 82 q 40 347 40 247 q 79 528 40 447 q 190 658 118 610 q 360 706 263 706 q 487 678 426 706 q 589 597 547 650 l 589 775 l 374 775 l 374 900 l 589 900 l 589 972 l 768 972 l 768 900 l 822 900 l 822 775 l 768 775 l 768 0 l 589 0 l 589 99 q 492 13 554 42 q 360 -17 429 -17 m 221 347 q 244 242 221 289 q 310 167 268 194 q 406 139 351 139 q 502 165 461 139 q 567 238 543 192 q 590 344 590 285 q 561 463 590 418 q 489 529 532 508 q 404 550 446 550 q 309 524 350 550 q 244 452 268 497 q 221 347 221 407 z "},"ð":{"ha":840,"x_min":40,"x_max":800,"o":"m 415 -17 q 222 31 306 -17 q 89 160 138 79 q 53 245 65 200 q 40 342 40 290 q 89 525 40 444 q 218 653 138 606 q 403 699 300 699 q 508 683 458 699 q 603 633 558 667 q 565 719 588 676 q 514 803 542 761 l 339 746 l 339 853 l 446 888 q 405 932 426 911 q 360 972 383 953 l 528 972 q 551 951 539 963 q 574 929 563 940 l 743 985 l 743 878 l 646 846 q 762 626 724 742 q 800 401 800 511 q 749 180 800 274 q 610 35 697 86 q 415 -17 524 -17 m 421 138 q 525 164 481 138 q 594 237 569 190 q 619 343 619 283 q 588 462 619 417 q 510 528 557 507 q 419 549 464 549 q 318 522 363 549 q 249 451 274 496 q 224 346 224 406 q 249 240 224 288 q 319 165 275 193 q 421 138 364 138 z "},"e":{"ha":768,"x_min":40,"x_max":736,"o":"m 392 -17 q 205 31 283 -17 q 83 160 126 78 q 40 344 40 242 q 85 535 40 454 q 208 660 129 615 q 392 706 288 706 q 572 661 494 706 q 692 539 649 617 q 736 360 736 461 q 735 324 736 342 q 731 292 733 307 l 219 292 q 245 206 224 243 q 303 149 267 169 q 388 129 340 129 q 472 150 436 129 q 528 214 507 171 l 718 214 q 656 100 699 153 q 547 15 613 47 q 392 -17 481 -17 m 221 410 l 553 410 q 502 519 551 479 q 386 560 453 560 q 281 524 329 560 q 221 410 232 489 z "},"é":{"ha":768,"x_min":40,"x_max":736,"o":"m 392 -17 q 205 31 283 -17 q 83 160 126 78 q 40 344 40 242 q 85 535 40 454 q 208 660 129 615 q 392 706 288 706 q 572 661 494 706 q 692 539 649 617 q 736 360 736 461 q 735 324 736 342 q 731 292 733 307 l 219 292 q 245 206 224 243 q 303 149 267 169 q 388 129 340 129 q 472 150 436 129 q 528 214 507 171 l 718 214 q 656 100 699 153 q 547 15 613 47 q 392 -17 481 -17 m 221 410 l 553 410 q 502 519 551 479 q 386 560 453 560 q 281 524 329 560 q 221 410 232 489 m 228 749 l 228 874 l 542 1043 l 542 899 l 228 749 z "},"ĕ":{"ha":768,"x_min":40,"x_max":736,"o":"m 392 -17 q 205 31 283 -17 q 83 160 126 78 q 40 344 40 242 q 85 535 40 454 q 208 660 129 615 q 392 706 288 706 q 572 661 494 706 q 692 539 649 617 q 736 360 736 461 q 735 324 736 342 q 731 292 733 307 l 219 292 q 245 206 224 243 q 303 149 267 169 q 388 129 340 129 q 472 150 436 129 q 528 214 507 171 l 718 214 q 656 100 699 153 q 547 15 613 47 q 392 -17 481 -17 m 221 410 l 553 410 q 502 519 551 479 q 386 560 453 560 q 281 524 329 560 q 221 410 232 489 m 383 756 q 226 813 283 756 q 168 967 168 869 l 168 989 l 263 989 q 290 915 263 942 q 385 889 317 889 q 478 915 451 889 q 506 989 506 942 l 600 989 l 600 965 q 542 813 600 869 q 383 756 483 756 z "},"ě":{"ha":768,"x_min":40,"x_max":736,"o":"m 392 -17 q 205 31 283 -17 q 83 160 126 78 q 40 344 40 242 q 85 535 40 454 q 208 660 129 615 q 392 706 288 706 q 572 661 494 706 q 692 539 649 617 q 736 360 736 461 q 735 324 736 342 q 731 292 733 307 l 219 292 q 245 206 224 243 q 303 149 267 169 q 388 129 340 129 q 472 150 436 129 q 528 214 507 171 l 718 214 q 656 100 699 153 q 547 15 613 47 q 392 -17 481 -17 m 221 410 l 553 410 q 502 519 551 479 q 386 560 453 560 q 281 524 329 560 q 221 410 232 489 m 385 769 l 182 881 l 182 1008 l 385 890 l 588 1008 l 588 881 l 385 769 z "},"ê":{"ha":768,"x_min":40,"x_max":736,"o":"m 392 -17 q 205 31 283 -17 q 83 160 126 78 q 40 344 40 242 q 85 535 40 454 q 208 660 129 615 q 392 706 288 706 q 572 661 494 706 q 692 539 649 617 q 736 360 736 461 q 735 324 736 342 q 731 292 733 307 l 219 292 q 245 206 224 243 q 303 149 267 169 q 388 129 340 129 q 472 150 436 129 q 528 214 507 171 l 718 214 q 656 100 699 153 q 547 15 613 47 q 392 -17 481 -17 m 221 410 l 553 410 q 502 519 551 479 q 386 560 453 560 q 281 524 329 560 q 221 410 232 489 m 182 769 l 182 897 l 385 1008 l 588 897 l 588 769 l 385 883 l 182 769 z "},"ë":{"ha":768,"x_min":40,"x_max":736,"o":"m 392 -17 q 205 31 283 -17 q 83 160 126 78 q 40 344 40 242 q 85 535 40 454 q 208 660 129 615 q 392 706 288 706 q 572 661 494 706 q 692 539 649 617 q 736 360 736 461 q 735 324 736 342 q 731 292 733 307 l 219 292 q 245 206 224 243 q 303 149 267 169 q 388 129 340 129 q 472 150 436 129 q 528 214 507 171 l 718 214 q 656 100 699 153 q 547 15 613 47 q 392 -17 481 -17 m 221 410 l 553 410 q 502 519 551 479 q 386 560 453 560 q 281 524 329 560 q 221 410 232 489 m 231 778 q 149 811 182 778 q 115 893 115 844 q 149 975 115 942 q 231 1008 182 1008 q 313 975 279 1008 q 346 893 346 942 q 313 811 346 844 q 231 778 279 778 m 539 778 q 457 811 490 778 q 424 893 424 844 q 457 975 424 942 q 539 1008 490 1008 q 621 975 588 1008 q 654 893 654 942 q 621 811 654 844 q 539 778 588 778 z "},"ė":{"ha":768,"x_min":40,"x_max":736,"o":"m 392 -17 q 205 31 283 -17 q 83 160 126 78 q 40 344 40 242 q 85 535 40 454 q 208 660 129 615 q 392 706 288 706 q 572 661 494 706 q 692 539 649 617 q 736 360 736 461 q 735 324 736 342 q 731 292 733 307 l 219 292 q 245 206 224 243 q 303 149 267 169 q 388 129 340 129 q 472 150 436 129 q 528 214 507 171 l 718 214 q 656 100 699 153 q 547 15 613 47 q 392 -17 481 -17 m 221 410 l 553 410 q 502 519 551 479 q 386 560 453 560 q 281 524 329 560 q 221 410 232 489 m 385 778 q 303 811 336 778 q 269 893 269 844 q 303 975 269 942 q 385 1008 336 1008 q 467 975 433 1008 q 500 893 500 942 q 467 811 500 844 q 385 778 433 778 z "},"è":{"ha":768,"x_min":40,"x_max":736,"o":"m 392 -17 q 205 31 283 -17 q 83 160 126 78 q 40 344 40 242 q 85 535 40 454 q 208 660 129 615 q 392 706 288 706 q 572 661 494 706 q 692 539 649 617 q 736 360 736 461 q 735 324 736 342 q 731 292 733 307 l 219 292 q 245 206 224 243 q 303 149 267 169 q 388 129 340 129 q 472 150 436 129 q 528 214 507 171 l 718 214 q 656 100 699 153 q 547 15 613 47 q 392 -17 481 -17 m 221 410 l 553 410 q 502 519 551 479 q 386 560 453 560 q 281 524 329 560 q 221 410 232 489 m 542 749 l 228 899 l 228 1043 l 542 874 l 542 749 z "},"ē":{"ha":768,"x_min":40,"x_max":736,"o":"m 392 -17 q 205 31 283 -17 q 83 160 126 78 q 40 344 40 242 q 85 535 40 454 q 208 660 129 615 q 392 706 288 706 q 572 661 494 706 q 692 539 649 617 q 736 360 736 461 q 735 324 736 342 q 731 292 733 307 l 219 292 q 245 206 224 243 q 303 149 267 169 q 388 129 340 129 q 472 150 436 129 q 528 214 507 171 l 718 214 q 656 100 699 153 q 547 15 613 47 q 392 -17 481 -17 m 221 410 l 553 410 q 502 519 551 479 q 386 560 453 560 q 281 524 329 560 q 221 410 232 489 m 139 832 l 139 958 l 631 958 l 631 832 l 139 832 z "},"ę":{"ha":768,"x_min":40,"x_max":736,"o":"m 392 -17 q 205 31 283 -17 q 83 160 126 78 q 40 344 40 242 q 85 535 40 454 q 208 660 129 615 q 392 706 288 706 q 572 661 494 706 q 692 539 649 617 q 736 360 736 461 q 735 324 736 342 q 731 292 733 307 l 219 292 q 245 206 224 243 q 303 149 267 169 q 388 129 340 129 q 472 150 436 129 q 528 214 507 171 l 718 214 q 656 100 699 153 q 547 15 613 47 q 392 -17 481 -17 m 221 410 l 553 410 q 502 519 551 479 q 386 560 453 560 q 281 524 329 560 q 221 410 232 489 m 425 -278 q 295 -243 350 -278 q 240 -133 240 -208 q 283 -28 240 -78 q 435 69 325 22 l 499 97 l 539 14 l 467 -22 q 396 -69 417 -47 q 375 -117 375 -92 q 394 -158 375 -143 q 447 -174 414 -174 q 546 -153 492 -174 l 546 -258 q 488 -272 519 -267 q 425 -278 457 -278 z "},"ẽ":{"ha":768,"x_min":40,"x_max":736,"o":"m 392 -17 q 205 31 283 -17 q 83 160 126 78 q 40 344 40 242 q 85 535 40 454 q 208 660 129 615 q 392 706 288 706 q 572 661 494 706 q 692 539 649 617 q 736 360 736 461 q 735 324 736 342 q 731 292 733 307 l 219 292 q 245 206 224 243 q 303 149 267 169 q 388 129 340 129 q 472 150 436 129 q 528 214 507 171 l 718 214 q 656 100 699 153 q 547 15 613 47 q 392 -17 481 -17 m 221 410 l 553 410 q 502 519 551 479 q 386 560 453 560 q 281 524 329 560 q 221 410 232 489 m 465 804 q 401 820 428 804 q 351 852 375 836 q 294 868 328 868 q 255 853 269 868 q 235 806 240 838 l 140 806 q 197 936 154 894 q 303 978 239 978 q 367 962 342 978 q 417 930 393 946 q 474 914 442 914 q 513 929 497 914 q 533 976 529 944 l 628 976 q 572 846 615 888 q 465 804 528 804 z "},"ə":{"ha":768,"x_min":32,"x_max":728,"o":"m 376 -17 q 197 28 275 -17 q 76 150 119 72 q 32 329 32 228 q 33 365 32 349 q 38 397 35 382 l 549 397 q 498 515 543 471 q 381 560 453 560 q 297 539 332 560 q 240 475 261 518 l 50 475 q 113 589 69 536 q 222 674 156 642 q 376 706 288 706 q 564 658 485 706 q 685 530 643 611 q 728 344 728 449 q 683 155 728 236 q 560 28 639 74 q 376 -17 482 -17 m 382 129 q 488 165 439 129 q 547 279 536 200 l 215 279 q 267 169 218 210 q 382 129 315 129 z "},"f":{"ha":429,"x_min":0,"x_max":382,"o":"m 81 0 l 81 540 l 0 540 l 0 689 l 81 689 l 81 742 q 144 919 81 867 q 315 972 207 972 l 374 972 l 374 821 l 343 821 q 278 803 297 821 q 258 742 258 785 l 258 689 l 382 689 l 382 540 l 258 540 l 258 0 l 81 0 z "},"g":{"ha":732,"x_min":35,"x_max":708,"o":"m 367 -322 q 197 -301 272 -322 q 78 -234 122 -281 q 35 -112 35 -187 q 56 -28 35 -64 q 119 33 76 7 q 65 86 83 54 q 47 160 47 118 q 133 301 47 251 q 86 374 103 333 q 69 460 69 415 q 106 590 69 535 q 206 675 142 644 q 351 706 269 706 q 461 689 411 706 l 708 689 l 708 556 l 613 556 q 627 508 621 532 q 633 460 633 485 q 596 332 633 388 q 495 245 558 276 q 351 214 432 214 q 288 220 317 214 q 231 240 258 226 q 200 192 200 225 q 301 131 200 131 l 428 131 q 570 108 511 131 q 660 36 629 85 q 690 -87 690 -12 q 647 -212 690 -160 q 531 -294 604 -265 q 367 -322 457 -322 m 367 -183 q 480 -162 433 -183 q 526 -97 526 -140 q 413 -15 526 -15 l 313 -15 q 227 -36 257 -15 q 197 -97 197 -57 q 221 -148 197 -129 q 283 -175 244 -167 q 367 -183 322 -183 m 350 353 q 437 383 403 353 q 471 460 471 413 q 437 536 471 506 q 350 567 403 567 q 265 536 297 567 q 232 460 232 506 q 263 383 232 413 q 350 353 294 353 z "},"ğ":{"ha":732,"x_min":35,"x_max":708,"o":"m 367 -322 q 197 -301 272 -322 q 78 -234 122 -281 q 35 -112 35 -187 q 56 -28 35 -64 q 119 33 76 7 q 65 86 83 54 q 47 160 47 118 q 133 301 47 251 q 86 374 103 333 q 69 460 69 415 q 106 590 69 535 q 206 675 142 644 q 351 706 269 706 q 461 689 411 706 l 708 689 l 708 556 l 613 556 q 627 508 621 532 q 633 460 633 485 q 596 332 633 388 q 495 245 558 276 q 351 214 432 214 q 288 220 317 214 q 231 240 258 226 q 200 192 200 225 q 301 131 200 131 l 428 131 q 570 108 511 131 q 660 36 629 85 q 690 -87 690 -12 q 647 -212 690 -160 q 531 -294 604 -265 q 367 -322 457 -322 m 367 -183 q 480 -162 433 -183 q 526 -97 526 -140 q 413 -15 526 -15 l 313 -15 q 227 -36 257 -15 q 197 -97 197 -57 q 221 -148 197 -129 q 283 -175 244 -167 q 367 -183 322 -183 m 350 353 q 437 383 403 353 q 471 460 471 413 q 437 536 471 506 q 350 567 403 567 q 265 536 297 567 q 232 460 232 506 q 263 383 232 413 q 350 353 294 353 m 350 756 q 192 813 250 756 q 135 967 135 869 l 135 989 l 229 989 q 256 915 229 942 q 351 889 283 889 q 445 915 418 889 q 472 989 472 942 l 567 989 l 567 965 q 508 813 567 869 q 350 756 450 756 z "},"ģ":{"ha":732,"x_min":35,"x_max":708,"o":"m 367 -322 q 197 -301 272 -322 q 78 -234 122 -281 q 35 -112 35 -187 q 56 -28 35 -64 q 119 33 76 7 q 65 86 83 54 q 47 160 47 118 q 133 301 47 251 q 86 374 103 333 q 69 460 69 415 q 106 590 69 535 q 206 675 142 644 q 351 706 269 706 q 461 689 411 706 l 708 689 l 708 556 l 613 556 q 627 508 621 532 q 633 460 633 485 q 596 332 633 388 q 495 245 558 276 q 351 214 432 214 q 288 220 317 214 q 231 240 258 226 q 200 192 200 225 q 301 131 200 131 l 428 131 q 570 108 511 131 q 660 36 629 85 q 690 -87 690 -12 q 647 -212 690 -160 q 531 -294 604 -265 q 367 -322 457 -322 m 367 -183 q 480 -162 433 -183 q 526 -97 526 -140 q 413 -15 526 -15 l 313 -15 q 227 -36 257 -15 q 197 -97 197 -57 q 221 -148 197 -129 q 283 -175 244 -167 q 367 -183 322 -183 m 350 353 q 437 383 403 353 q 471 460 471 413 q 437 536 471 506 q 350 567 403 567 q 265 536 297 567 q 232 460 232 506 q 263 383 232 413 q 350 353 294 353 m 426 1144 l 426 1072 q 357 986 357 1072 l 357 965 l 433 965 l 433 826 l 282 826 q 266 897 271 863 q 261 960 261 931 q 303 1097 261 1049 q 426 1144 344 1144 z "},"ġ":{"ha":732,"x_min":35,"x_max":708,"o":"m 367 -322 q 197 -301 272 -322 q 78 -234 122 -281 q 35 -112 35 -187 q 56 -28 35 -64 q 119 33 76 7 q 65 86 83 54 q 47 160 47 118 q 133 301 47 251 q 86 374 103 333 q 69 460 69 415 q 106 590 69 535 q 206 675 142 644 q 351 706 269 706 q 461 689 411 706 l 708 689 l 708 556 l 613 556 q 627 508 621 532 q 633 460 633 485 q 596 332 633 388 q 495 245 558 276 q 351 214 432 214 q 288 220 317 214 q 231 240 258 226 q 200 192 200 225 q 301 131 200 131 l 428 131 q 570 108 511 131 q 660 36 629 85 q 690 -87 690 -12 q 647 -212 690 -160 q 531 -294 604 -265 q 367 -322 457 -322 m 367 -183 q 480 -162 433 -183 q 526 -97 526 -140 q 413 -15 526 -15 l 313 -15 q 227 -36 257 -15 q 197 -97 197 -57 q 221 -148 197 -129 q 283 -175 244 -167 q 367 -183 322 -183 m 350 353 q 437 383 403 353 q 471 460 471 413 q 437 536 471 506 q 350 567 403 567 q 265 536 297 567 q 232 460 232 506 q 263 383 232 413 q 350 353 294 353 m 351 778 q 269 811 303 778 q 236 893 236 844 q 269 975 236 942 q 351 1008 303 1008 q 433 975 400 1008 q 467 893 467 942 q 433 811 467 844 q 351 778 400 778 z "},"h":{"ha":781,"x_min":63,"x_max":729,"o":"m 63 0 l 63 972 l 239 972 l 239 608 q 335 681 275 657 q 457 706 396 706 q 653 628 576 706 q 729 406 729 551 l 729 0 l 553 0 l 553 382 q 513 508 553 460 q 397 556 474 556 q 280 508 321 556 q 239 382 239 460 l 239 0 l 63 0 z "},"ħ":{"ha":781,"x_min":8,"x_max":729,"o":"m 63 0 l 63 775 l 8 775 l 8 900 l 63 900 l 63 972 l 239 972 l 239 900 l 457 900 l 457 775 l 239 775 l 239 608 q 335 681 275 657 q 457 706 396 706 q 653 628 576 706 q 729 406 729 551 l 729 0 l 553 0 l 553 382 q 513 508 553 460 q 397 556 474 556 q 280 508 321 556 q 239 382 239 460 l 239 0 l 63 0 z "},"i":{"ha":315,"x_min":43,"x_max":274,"o":"m 158 778 q 77 812 111 778 q 43 893 43 846 q 77 975 43 942 q 158 1008 111 1008 q 240 975 207 1008 q 274 893 274 942 q 240 812 274 846 q 158 778 207 778 m 69 0 l 69 689 l 247 689 l 247 0 l 69 0 z "},"ı":{"ha":304,"x_min":63,"x_max":240,"o":"m 63 0 l 63 689 l 240 689 l 240 0 l 63 0 z "},"í":{"ha":304,"x_min":-4,"x_max":310,"o":"m 63 0 l 63 689 l 240 689 l 240 0 l 63 0 m -4 749 l -4 874 l 310 1043 l 310 899 l -4 749 z "},"ĭ":{"ha":304,"x_min":-64,"x_max":368,"o":"m 63 0 l 63 689 l 240 689 l 240 0 l 63 0 m 151 756 q -6 813 51 756 q -64 967 -64 869 l -64 989 l 31 989 q 58 915 31 942 q 153 889 85 889 q 247 915 219 889 q 274 989 274 942 l 368 989 l 368 965 q 310 813 368 869 q 151 756 251 756 z "},"î":{"ha":304,"x_min":-50,"x_max":356,"o":"m 63 0 l 63 689 l 240 689 l 240 0 l 63 0 m -50 769 l -50 897 l 153 1008 l 356 897 l 356 769 l 153 883 l -50 769 z "},"ï":{"ha":304,"x_min":-103,"x_max":408,"o":"m 63 0 l 63 689 l 240 689 l 240 0 l 63 0 m 13 778 q -69 811 -36 778 q -103 893 -103 844 q -69 975 -103 942 q 13 1008 -36 1008 q 94 975 61 1008 q 128 893 128 942 q 94 811 128 844 q 13 778 61 778 m 293 778 q 211 811 244 778 q 178 893 178 844 q 211 975 178 942 q 293 1008 244 1008 q 375 975 342 1008 q 408 893 408 942 q 375 811 408 844 q 293 778 342 778 z "},"ì":{"ha":304,"x_min":-4,"x_max":310,"o":"m 63 0 l 63 689 l 240 689 l 240 0 l 63 0 m 310 749 l -4 899 l -4 1043 l 310 874 l 310 749 z "},"ī":{"ha":304,"x_min":-93,"x_max":399,"o":"m 63 0 l 63 689 l 240 689 l 240 0 l 63 0 m -93 832 l -93 958 l 399 958 l 399 832 l -93 832 z "},"į":{"ha":304,"x_min":-58,"x_max":268,"o":"m 63 0 l 63 689 l 240 689 l 240 0 l 63 0 m 153 778 q 71 811 104 778 q 38 893 38 844 q 71 975 38 942 q 153 1008 104 1008 q 235 975 201 1008 q 268 893 268 942 q 235 811 268 844 q 153 778 201 778 m 126 -292 q -3 -257 51 -292 q -58 -147 -58 -222 q -16 -42 -58 -92 q 136 56 26 8 l 200 83 l 240 0 l 168 -36 q 97 -83 118 -61 q 76 -131 76 -106 q 96 -172 76 -157 q 149 -187 115 -187 q 247 -167 193 -187 l 247 -272 q 190 -286 221 -281 q 126 -292 158 -292 z "},"ĩ":{"ha":304,"x_min":-92,"x_max":396,"o":"m 63 0 l 63 689 l 240 689 l 240 0 l 63 0 m 233 804 q 169 820 196 804 q 119 852 143 836 q 63 868 96 868 q 23 853 38 868 q 3 806 8 838 l -92 806 q -35 936 -78 894 q 71 978 7 978 q 135 962 110 978 q 185 930 161 946 q 242 914 210 914 q 281 929 265 914 q 301 976 297 944 l 396 976 q 340 846 383 888 q 233 804 296 804 z "},"ĳ":{"ha":632,"x_min":43,"x_max":592,"o":"m 158 778 q 77 812 111 778 q 43 893 43 846 q 77 975 43 942 q 158 1008 111 1008 q 240 975 207 1008 q 274 893 274 942 q 240 812 274 846 q 158 778 207 778 m 69 0 l 69 689 l 247 689 l 247 0 l 69 0 m 264 -306 l 264 -154 l 301 -154 q 366 -136 346 -154 q 386 -75 386 -118 l 386 689 l 564 689 l 564 -75 q 533 -212 564 -161 q 450 -284 503 -262 q 329 -306 397 -306 l 264 -306 m 476 778 q 394 812 428 778 q 361 893 361 846 q 394 975 361 942 q 476 1008 428 1008 q 558 975 525 1008 q 592 893 592 942 q 558 812 592 846 q 476 778 525 778 z "},"j":{"ha":317,"x_min":-51,"x_max":276,"o":"m -51 -306 l -51 -154 l -14 -154 q 51 -136 31 -154 q 71 -75 71 -118 l 71 689 l 249 689 l 249 -75 q 218 -212 249 -161 q 135 -284 188 -262 q 14 -306 82 -306 l -51 -306 m 161 778 q 79 812 113 778 q 46 893 46 846 q 79 975 46 942 q 161 1008 113 1008 q 243 975 210 1008 q 276 893 276 942 q 243 812 276 846 q 161 778 210 778 z "},"ȷ":{"ha":317,"x_min":-51,"x_max":249,"o":"m -51 -306 l -51 -154 l -14 -154 q 51 -136 31 -154 q 71 -75 71 -118 l 71 689 l 249 689 l 249 -75 q 218 -212 249 -161 q 135 -284 188 -262 q 14 -306 82 -306 l -51 -306 z "},"k":{"ha":726,"x_min":63,"x_max":703,"o":"m 63 0 l 63 972 l 240 972 l 240 397 l 469 689 l 699 689 l 396 343 l 703 0 l 474 0 l 240 293 l 240 0 l 63 0 z "},"ķ":{"ha":726,"x_min":63,"x_max":703,"o":"m 63 0 l 63 972 l 240 972 l 240 397 l 469 689 l 699 689 l 396 343 l 703 0 l 474 0 l 240 293 l 240 0 l 63 0 m 285 -381 l 285 -308 q 354 -222 354 -308 l 354 -201 l 278 -201 l 278 -62 l 429 -62 q 445 -133 440 -99 q 450 -196 450 -167 q 408 -333 450 -285 q 285 -381 367 -381 z "},"l":{"ha":304,"x_min":63,"x_max":240,"o":"m 63 0 l 63 972 l 240 972 l 240 0 l 63 0 z "},"ĺ":{"ha":304,"x_min":-4,"x_max":310,"o":"m 63 0 l 63 972 l 240 972 l 240 0 l 63 0 m -4 1032 l -4 1157 l 310 1326 l 310 1182 l -4 1032 z "},"ľ":{"ha":304,"x_min":63,"x_max":514,"o":"m 63 0 l 63 972 l 240 972 l 240 0 l 63 0 m 281 758 l 347 972 l 514 972 l 396 758 l 281 758 z "},"ļ":{"ha":304,"x_min":63,"x_max":240,"o":"m 63 0 l 63 972 l 240 972 l 240 0 l 63 0 m 74 -381 l 74 -308 q 143 -222 143 -308 l 143 -201 l 67 -201 l 67 -62 l 218 -62 q 234 -133 229 -99 q 239 -196 239 -167 q 197 -333 239 -285 q 74 -381 156 -381 z "},"ŀ":{"ha":492,"x_min":69,"x_max":486,"o":"m 69 0 l 69 972 l 247 972 l 247 0 l 69 0 m 400 422 q 339 447 364 422 q 314 507 314 471 q 339 569 314 543 q 400 594 364 594 q 461 569 436 594 q 486 507 486 543 q 461 447 486 471 q 400 422 436 422 z "},"ł":{"ha":440,"x_min":21,"x_max":392,"o":"m 117 0 l 117 440 l 21 407 l 21 556 l 117 589 l 117 972 l 294 972 l 294 650 l 392 685 l 392 536 l 294 503 l 294 0 l 117 0 z "},"m":{"ha":1258,"x_min":63,"x_max":1207,"o":"m 63 0 l 63 689 l 239 689 l 239 610 q 328 682 274 658 q 442 706 382 706 q 587 673 519 706 q 692 571 654 640 q 788 670 726 635 q 924 706 850 706 q 1067 673 1003 706 q 1169 574 1132 640 q 1207 407 1207 507 l 1207 0 l 1031 0 l 1031 382 q 993 506 1031 460 q 878 551 956 551 q 763 506 801 551 q 724 382 724 460 l 724 0 l 547 0 l 547 382 q 508 506 547 461 q 394 551 468 551 q 285 512 332 551 q 239 382 239 472 l 239 0 l 63 0 z "},"n":{"ha":781,"x_min":63,"x_max":729,"o":"m 63 0 l 63 689 l 239 689 l 239 608 q 335 681 275 657 q 457 706 396 706 q 653 628 576 706 q 729 406 729 551 l 729 0 l 553 0 l 553 382 q 513 508 553 460 q 397 556 474 556 q 280 508 321 556 q 239 382 239 460 l 239 0 l 63 0 z "},"ń":{"ha":781,"x_min":63,"x_max":729,"o":"m 63 0 l 63 689 l 239 689 l 239 608 q 335 681 275 657 q 457 706 396 706 q 653 628 576 706 q 729 406 729 551 l 729 0 l 553 0 l 553 382 q 513 508 553 460 q 397 556 474 556 q 280 508 321 556 q 239 382 239 460 l 239 0 l 63 0 m 240 749 l 240 874 l 554 1043 l 554 899 l 240 749 z "},"ň":{"ha":781,"x_min":63,"x_max":729,"o":"m 63 0 l 63 689 l 239 689 l 239 608 q 335 681 275 657 q 457 706 396 706 q 653 628 576 706 q 729 406 729 551 l 729 0 l 553 0 l 553 382 q 513 508 553 460 q 397 556 474 556 q 280 508 321 556 q 239 382 239 460 l 239 0 l 63 0 m 397 769 l 194 881 l 194 1008 l 397 890 l 600 1008 l 600 881 l 397 769 z "},"ņ":{"ha":781,"x_min":63,"x_max":729,"o":"m 63 0 l 63 689 l 239 689 l 239 608 q 335 681 275 657 q 457 706 396 706 q 653 628 576 706 q 729 406 729 551 l 729 0 l 553 0 l 553 382 q 513 508 553 460 q 397 556 474 556 q 280 508 321 556 q 239 382 239 460 l 239 0 l 63 0 m 322 -381 l 322 -308 q 392 -222 392 -308 l 392 -201 l 315 -201 l 315 -62 l 467 -62 q 483 -133 478 -99 q 488 -196 488 -167 q 446 -333 488 -285 q 322 -381 404 -381 z "},"ñ":{"ha":781,"x_min":63,"x_max":729,"o":"m 63 0 l 63 689 l 239 689 l 239 608 q 335 681 275 657 q 457 706 396 706 q 653 628 576 706 q 729 406 729 551 l 729 0 l 553 0 l 553 382 q 513 508 553 460 q 397 556 474 556 q 280 508 321 556 q 239 382 239 460 l 239 0 l 63 0 m 478 804 q 414 820 440 804 q 364 852 388 836 q 307 868 340 868 q 267 853 282 868 q 247 806 253 838 l 153 806 q 209 936 167 894 q 315 978 251 978 q 380 962 354 978 q 430 930 406 946 q 486 914 454 914 q 526 929 510 914 q 546 976 542 944 l 640 976 q 584 846 628 888 q 478 804 540 804 z "},"ŋ":{"ha":781,"x_min":63,"x_max":729,"o":"m 429 -306 l 429 -154 l 468 -154 q 533 -136 513 -154 q 553 -75 553 -118 l 553 382 q 513 508 553 460 q 397 556 474 556 q 280 508 321 556 q 239 382 239 460 l 239 0 l 63 0 l 63 689 l 239 689 l 239 608 q 335 681 275 657 q 457 706 396 706 q 653 628 576 706 q 729 406 729 551 l 729 -75 q 699 -212 729 -161 q 615 -284 668 -262 q 494 -306 563 -306 l 429 -306 z "},"o":{"ha":808,"x_min":40,"x_max":768,"o":"m 399 -17 q 213 28 294 -17 q 86 156 132 74 q 40 344 40 238 q 90 538 40 457 q 222 663 139 619 q 404 706 304 706 q 590 660 508 706 q 720 535 672 615 q 768 344 768 454 q 721 158 768 240 q 591 30 674 76 q 399 -17 508 -17 m 401 138 q 498 166 457 138 q 563 242 539 194 q 586 347 586 290 q 560 458 586 413 q 493 528 535 504 q 401 551 451 551 q 306 525 347 551 q 242 452 265 499 q 219 344 219 406 q 244 236 219 283 q 310 163 268 189 q 401 138 351 138 z "},"ó":{"ha":808,"x_min":40,"x_max":768,"o":"m 399 -17 q 213 28 294 -17 q 86 156 132 74 q 40 344 40 238 q 90 538 40 457 q 222 663 139 619 q 404 706 304 706 q 590 660 508 706 q 720 535 672 615 q 768 344 768 454 q 721 158 768 240 q 591 30 674 76 q 399 -17 508 -17 m 401 138 q 498 166 457 138 q 563 242 539 194 q 586 347 586 290 q 560 458 586 413 q 493 528 535 504 q 401 551 451 551 q 306 525 347 551 q 242 452 265 499 q 219 344 219 406 q 244 236 219 283 q 310 163 268 189 q 401 138 351 138 m 247 749 l 247 874 l 561 1043 l 561 899 l 247 749 z "},"ŏ":{"ha":808,"x_min":40,"x_max":768,"o":"m 399 -17 q 213 28 294 -17 q 86 156 132 74 q 40 344 40 238 q 90 538 40 457 q 222 663 139 619 q 404 706 304 706 q 590 660 508 706 q 720 535 672 615 q 768 344 768 454 q 721 158 768 240 q 591 30 674 76 q 399 -17 508 -17 m 401 138 q 498 166 457 138 q 563 242 539 194 q 586 347 586 290 q 560 458 586 413 q 493 528 535 504 q 401 551 451 551 q 306 525 347 551 q 242 452 265 499 q 219 344 219 406 q 244 236 219 283 q 310 163 268 189 q 401 138 351 138 m 403 756 q 245 813 303 756 q 188 967 188 869 l 188 989 l 282 989 q 309 915 282 942 q 404 889 336 889 q 498 915 471 889 q 525 989 525 942 l 619 989 l 619 965 q 561 813 619 869 q 403 756 503 756 z "},"ô":{"ha":808,"x_min":40,"x_max":768,"o":"m 399 -17 q 213 28 294 -17 q 86 156 132 74 q 40 344 40 238 q 90 538 40 457 q 222 663 139 619 q 404 706 304 706 q 590 660 508 706 q 720 535 672 615 q 768 344 768 454 q 721 158 768 240 q 591 30 674 76 q 399 -17 508 -17 m 401 138 q 498 166 457 138 q 563 242 539 194 q 586 347 586 290 q 560 458 586 413 q 493 528 535 504 q 401 551 451 551 q 306 525 347 551 q 242 452 265 499 q 219 344 219 406 q 244 236 219 283 q 310 163 268 189 q 401 138 351 138 m 201 769 l 201 897 l 404 1008 l 607 897 l 607 769 l 404 883 l 201 769 z "},"ö":{"ha":808,"x_min":40,"x_max":768,"o":"m 399 -17 q 213 28 294 -17 q 86 156 132 74 q 40 344 40 238 q 90 538 40 457 q 222 663 139 619 q 404 706 304 706 q 590 660 508 706 q 720 535 672 615 q 768 344 768 454 q 721 158 768 240 q 591 30 674 76 q 399 -17 508 -17 m 401 138 q 498 166 457 138 q 563 242 539 194 q 586 347 586 290 q 560 458 586 413 q 493 528 535 504 q 401 551 451 551 q 306 525 347 551 q 242 452 265 499 q 219 344 219 406 q 244 236 219 283 q 310 163 268 189 q 401 138 351 138 m 250 778 q 168 811 201 778 q 135 893 135 844 q 168 975 135 942 q 250 1008 201 1008 q 332 975 299 1008 q 365 893 365 942 q 332 811 365 844 q 250 778 299 778 m 558 778 q 476 811 510 778 q 443 893 443 844 q 476 975 443 942 q 558 1008 510 1008 q 640 975 607 1008 q 674 893 674 942 q 640 811 674 844 q 558 778 607 778 z "},"ò":{"ha":808,"x_min":40,"x_max":768,"o":"m 399 -17 q 213 28 294 -17 q 86 156 132 74 q 40 344 40 238 q 90 538 40 457 q 222 663 139 619 q 404 706 304 706 q 590 660 508 706 q 720 535 672 615 q 768 344 768 454 q 721 158 768 240 q 591 30 674 76 q 399 -17 508 -17 m 401 138 q 498 166 457 138 q 563 242 539 194 q 586 347 586 290 q 560 458 586 413 q 493 528 535 504 q 401 551 451 551 q 306 525 347 551 q 242 452 265 499 q 219 344 219 406 q 244 236 219 283 q 310 163 268 189 q 401 138 351 138 m 561 749 l 247 899 l 247 1043 l 561 874 l 561 749 z "},"ő":{"ha":808,"x_min":40,"x_max":768,"o":"m 399 -17 q 213 28 294 -17 q 86 156 132 74 q 40 344 40 238 q 90 538 40 457 q 222 663 139 619 q 404 706 304 706 q 590 660 508 706 q 720 535 672 615 q 768 344 768 454 q 721 158 768 240 q 591 30 674 76 q 399 -17 508 -17 m 401 138 q 498 166 457 138 q 563 242 539 194 q 586 347 586 290 q 560 458 586 413 q 493 528 535 504 q 401 551 451 551 q 306 525 347 551 q 242 452 265 499 q 219 344 219 406 q 244 236 219 283 q 310 163 268 189 q 401 138 351 138 m 435 756 l 547 1004 l 693 1004 l 546 756 l 435 756 m 199 756 l 297 1004 l 442 1004 l 311 756 l 199 756 z "},"ō":{"ha":808,"x_min":40,"x_max":768,"o":"m 399 -17 q 213 28 294 -17 q 86 156 132 74 q 40 344 40 238 q 90 538 40 457 q 222 663 139 619 q 404 706 304 706 q 590 660 508 706 q 720 535 672 615 q 768 344 768 454 q 721 158 768 240 q 591 30 674 76 q 399 -17 508 -17 m 401 138 q 498 166 457 138 q 563 242 539 194 q 586 347 586 290 q 560 458 586 413 q 493 528 535 504 q 401 551 451 551 q 306 525 347 551 q 242 452 265 499 q 219 344 219 406 q 244 236 219 283 q 310 163 268 189 q 401 138 351 138 m 158 832 l 158 958 l 650 958 l 650 832 l 158 832 z "},"ø":{"ha":808,"x_min":29,"x_max":779,"o":"m 399 -17 q 201 35 285 -17 l 171 0 l 29 0 l 121 104 q 61 211 82 150 q 40 344 40 272 q 90 538 40 457 q 222 663 139 619 q 404 706 304 706 q 512 692 461 706 q 606 651 563 678 l 638 689 l 779 689 l 686 583 q 747 477 725 538 q 768 344 768 417 q 721 158 768 240 q 591 30 674 76 q 399 -17 508 -17 m 401 138 q 498 166 457 138 q 563 242 539 194 q 586 347 586 290 q 581 401 586 376 q 565 447 576 426 l 314 161 q 401 138 353 138 m 242 240 l 494 526 q 401 551 453 551 q 306 525 347 551 q 242 452 265 499 q 219 344 219 406 q 226 290 219 315 q 242 240 232 264 z "},"õ":{"ha":808,"x_min":40,"x_max":768,"o":"m 399 -17 q 213 28 294 -17 q 86 156 132 74 q 40 344 40 238 q 90 538 40 457 q 222 663 139 619 q 404 706 304 706 q 590 660 508 706 q 720 535 672 615 q 768 344 768 454 q 721 158 768 240 q 591 30 674 76 q 399 -17 508 -17 m 401 138 q 498 166 457 138 q 563 242 539 194 q 586 347 586 290 q 560 458 586 413 q 493 528 535 504 q 401 551 451 551 q 306 525 347 551 q 242 452 265 499 q 219 344 219 406 q 244 236 219 283 q 310 163 268 189 q 401 138 351 138 m 485 804 q 421 820 447 804 q 371 852 394 836 q 314 868 347 868 q 274 853 289 868 q 254 806 260 838 l 160 806 q 216 936 174 894 q 322 978 258 978 q 387 962 361 978 q 437 930 413 946 q 493 914 461 914 q 533 929 517 914 q 553 976 549 944 l 647 976 q 591 846 635 888 q 485 804 547 804 z "},"œ":{"ha":1299,"x_min":40,"x_max":1267,"o":"m 393 -17 q 213 30 293 -17 q 88 157 133 76 q 52 244 64 197 q 40 344 40 292 q 88 533 40 451 q 215 660 135 614 q 394 706 294 706 q 542 673 476 706 q 650 581 607 640 q 765 672 694 639 q 922 706 835 706 q 1103 662 1025 706 q 1224 540 1181 618 q 1267 368 1267 464 q 1266 336 1267 353 q 1264 301 1265 319 l 740 301 q 798 174 747 219 q 921 129 849 129 q 1010 153 974 129 q 1068 214 1047 176 l 1247 214 q 1183 99 1228 151 q 1073 15 1139 46 q 922 -17 1007 -17 q 765 16 835 -17 q 649 107 694 49 q 540 16 606 49 q 393 -17 475 -17 m 393 138 q 479 160 440 138 q 542 230 518 183 q 565 344 565 276 q 542 460 565 414 q 479 528 518 506 q 394 551 440 551 q 308 528 347 551 q 246 460 269 506 q 222 344 222 414 q 246 230 222 276 q 308 160 269 183 q 393 138 347 138 m 746 413 l 1088 413 q 1037 521 1083 481 q 922 561 990 561 q 842 544 879 561 q 779 495 804 528 q 746 413 754 463 z "},"p":{"ha":831,"x_min":63,"x_max":790,"o":"m 63 -306 l 63 689 l 239 689 l 239 593 q 340 677 279 649 q 471 706 400 706 q 642 657 571 706 q 752 527 714 608 q 790 347 790 446 q 751 165 790 249 q 641 33 713 82 q 471 -17 569 -17 q 326 19 383 -17 q 240 94 268 56 l 240 -306 l 63 -306 m 424 139 q 521 167 479 139 q 586 243 563 196 q 610 347 610 290 q 584 458 610 413 q 516 526 558 503 q 424 550 474 550 q 329 524 371 550 q 263 451 288 497 q 239 344 239 404 q 263 240 239 288 q 328 166 286 193 q 424 139 369 139 z "},"þ":{"ha":850,"x_min":63,"x_max":810,"o":"m 63 -306 l 63 972 l 240 972 l 240 590 q 328 671 274 636 q 471 706 383 706 q 649 656 574 706 q 767 525 725 607 q 810 343 810 443 q 767 160 810 242 q 647 31 724 79 q 471 -17 571 -17 q 335 13 393 -17 q 240 94 276 42 l 240 -306 l 63 -306 m 433 139 q 534 165 490 139 q 603 237 578 190 q 629 343 629 283 q 603 451 629 404 q 534 524 578 497 q 433 550 490 550 q 332 524 376 550 q 263 451 288 497 q 238 344 238 406 q 263 238 238 285 q 332 165 288 192 q 433 139 376 139 z "},"q":{"ha":832,"x_min":40,"x_max":769,"o":"m 592 -306 l 592 90 q 508 20 565 56 q 364 -15 450 -15 q 199 32 271 -15 q 85 161 126 79 q 40 346 43 243 q 82 527 40 446 q 198 656 124 608 q 367 704 272 704 q 493 678 433 704 q 592 603 553 653 l 592 689 l 769 689 l 769 -306 l 592 -306 m 406 139 q 494 162 451 139 q 565 231 538 185 q 592 344 592 276 q 567 450 592 404 q 501 523 543 496 q 406 550 460 550 q 310 522 351 550 q 245 449 268 494 q 222 346 222 403 q 246 240 222 288 q 310 166 269 193 q 406 139 351 139 z "},"r":{"ha":475,"x_min":63,"x_max":454,"o":"m 63 0 l 63 689 l 239 689 l 239 586 q 331 675 275 644 q 454 706 386 706 l 454 519 l 407 519 q 281 479 322 519 q 239 344 239 439 l 239 0 l 63 0 z "},"ŕ":{"ha":475,"x_min":63,"x_max":454,"o":"m 63 0 l 63 689 l 239 689 l 239 586 q 331 675 275 644 q 454 706 386 706 l 454 519 l 407 519 q 281 479 322 519 q 239 344 239 439 l 239 0 l 63 0 m 81 749 l 81 874 l 394 1043 l 394 899 l 81 749 z "},"ř":{"ha":475,"x_min":35,"x_max":454,"o":"m 63 0 l 63 689 l 239 689 l 239 586 q 331 675 275 644 q 454 706 386 706 l 454 519 l 407 519 q 281 479 322 519 q 239 344 239 439 l 239 0 l 63 0 m 238 769 l 35 881 l 35 1008 l 238 890 l 440 1008 l 440 881 l 238 769 z "},"ŗ":{"ha":475,"x_min":63,"x_max":454,"o":"m 63 0 l 63 689 l 239 689 l 239 586 q 331 675 275 644 q 454 706 386 706 l 454 519 l 407 519 q 281 479 322 519 q 239 344 239 439 l 239 0 l 63 0 m 82 -381 l 82 -308 q 151 -222 151 -308 l 151 -201 l 75 -201 l 75 -62 l 226 -62 q 242 -133 238 -99 q 247 -196 247 -167 q 206 -333 247 -285 q 82 -381 164 -381 z "},"s":{"ha":658,"x_min":39,"x_max":619,"o":"m 344 -17 q 199 12 267 -17 q 87 93 131 40 q 39 217 43 146 l 217 217 q 260 147 224 172 q 343 122 297 122 q 416 140 382 122 q 450 194 450 157 q 425 240 450 224 q 367 267 400 257 q 306 283 333 276 q 179 323 236 300 q 89 387 122 346 q 56 496 56 428 q 94 610 56 563 q 195 681 132 657 q 332 706 258 706 q 526 647 447 706 q 613 475 606 589 l 444 475 q 408 542 440 519 q 326 565 375 565 q 257 551 288 565 q 226 499 226 538 q 251 453 226 471 q 311 426 276 436 q 372 408 346 415 q 499 367 444 390 q 586 303 554 343 q 619 194 618 263 q 581 79 619 126 q 481 8 543 32 q 344 -17 418 -17 z "},"ś":{"ha":658,"x_min":39,"x_max":619,"o":"m 344 -17 q 199 12 267 -17 q 87 93 131 40 q 39 217 43 146 l 217 217 q 260 147 224 172 q 343 122 297 122 q 416 140 382 122 q 450 194 450 157 q 425 240 450 224 q 367 267 400 257 q 306 283 333 276 q 179 323 236 300 q 89 387 122 346 q 56 496 56 428 q 94 610 56 563 q 195 681 132 657 q 332 706 258 706 q 526 647 447 706 q 613 475 606 589 l 444 475 q 408 542 440 519 q 326 565 375 565 q 257 551 288 565 q 226 499 226 538 q 251 453 226 471 q 311 426 276 436 q 372 408 346 415 q 499 367 444 390 q 586 303 554 343 q 619 194 618 263 q 581 79 619 126 q 481 8 543 32 q 344 -17 418 -17 m 172 749 l 172 874 l 486 1043 l 486 899 l 172 749 z "},"š":{"ha":658,"x_min":39,"x_max":619,"o":"m 344 -17 q 199 12 267 -17 q 87 93 131 40 q 39 217 43 146 l 217 217 q 260 147 224 172 q 343 122 297 122 q 416 140 382 122 q 450 194 450 157 q 425 240 450 224 q 367 267 400 257 q 306 283 333 276 q 179 323 236 300 q 89 387 122 346 q 56 496 56 428 q 94 610 56 563 q 195 681 132 657 q 332 706 258 706 q 526 647 447 706 q 613 475 606 589 l 444 475 q 408 542 440 519 q 326 565 375 565 q 257 551 288 565 q 226 499 226 538 q 251 453 226 471 q 311 426 276 436 q 372 408 346 415 q 499 367 444 390 q 586 303 554 343 q 619 194 618 263 q 581 79 619 126 q 481 8 543 32 q 344 -17 418 -17 m 329 769 l 126 881 l 126 1008 l 329 890 l 532 1008 l 532 881 l 329 769 z "},"ş":{"ha":658,"x_min":39,"x_max":619,"o":"m 344 -17 q 199 12 267 -17 q 87 93 131 40 q 39 217 43 146 l 217 217 q 260 147 224 172 q 343 122 297 122 q 416 140 382 122 q 450 194 450 157 q 425 240 450 224 q 367 267 400 257 q 306 283 333 276 q 179 323 236 300 q 89 387 122 346 q 56 496 56 428 q 94 610 56 563 q 195 681 132 657 q 332 706 258 706 q 526 647 447 706 q 613 475 606 589 l 444 475 q 408 542 440 519 q 326 565 375 565 q 257 551 288 565 q 226 499 226 538 q 251 453 226 471 q 311 426 276 436 q 372 408 346 415 q 499 367 444 390 q 586 303 554 343 q 619 194 618 263 q 581 79 619 126 q 481 8 543 32 q 344 -17 418 -17 m 211 -365 l 211 -262 l 367 -262 q 440 -212 440 -262 q 367 -164 440 -164 l 282 -164 l 282 24 l 393 24 l 393 -69 q 483 -84 442 -68 q 549 -133 524 -100 q 574 -215 574 -165 q 549 -299 574 -265 q 483 -349 524 -332 q 393 -365 442 -365 l 211 -365 z "},"ș":{"ha":658,"x_min":39,"x_max":619,"o":"m 344 -17 q 199 12 267 -17 q 87 93 131 40 q 39 217 43 146 l 217 217 q 260 147 224 172 q 343 122 297 122 q 416 140 382 122 q 450 194 450 157 q 425 240 450 224 q 367 267 400 257 q 306 283 333 276 q 179 323 236 300 q 89 387 122 346 q 56 496 56 428 q 94 610 56 563 q 195 681 132 657 q 332 706 258 706 q 526 647 447 706 q 613 475 606 589 l 444 475 q 408 542 440 519 q 326 565 375 565 q 257 551 288 565 q 226 499 226 538 q 251 453 226 471 q 311 426 276 436 q 372 408 346 415 q 499 367 444 390 q 586 303 554 343 q 619 194 618 263 q 581 79 619 126 q 481 8 543 32 q 344 -17 418 -17 m 263 -381 l 263 -308 q 332 -222 332 -308 l 332 -201 l 256 -201 l 256 -62 l 407 -62 q 423 -133 418 -99 q 428 -196 428 -167 q 386 -333 428 -285 q 263 -381 344 -381 z "},"ß":{"ha":926,"x_min":64,"x_max":911,"o":"m 631 -14 q 428 49 513 -14 q 328 243 343 113 l 496 243 q 538 151 503 185 q 628 118 572 118 q 707 140 676 118 q 738 210 738 163 q 719 269 738 247 q 672 304 701 290 q 608 331 643 318 q 509 370 558 349 q 427 426 460 392 q 394 514 394 460 q 413 579 394 551 q 457 625 431 607 q 483 643 471 635 q 510 661 496 651 q 551 699 532 678 q 571 754 571 721 q 524 842 571 815 q 415 868 476 868 q 317 847 356 868 q 260 788 278 826 q 242 693 242 749 l 242 0 l 64 0 l 64 707 q 111 877 64 808 q 240 981 158 946 q 422 1017 321 1017 q 586 988 513 1017 q 703 906 660 960 q 747 772 747 851 q 730 701 747 731 q 687 652 713 672 q 635 614 661 632 q 594 584 615 601 q 574 542 574 567 q 588 506 574 521 q 633 478 601 492 q 715 446 664 465 q 857 364 803 414 q 911 221 911 314 q 875 94 911 147 q 776 14 839 42 q 631 -14 713 -14 z "},"t":{"ha":488,"x_min":21,"x_max":444,"o":"m 333 0 q 166 54 222 0 q 110 217 110 108 l 110 540 l 21 540 l 21 689 l 110 689 l 110 857 l 288 857 l 288 689 l 444 689 l 444 540 l 288 540 l 288 215 q 308 163 288 176 q 363 149 329 149 l 444 149 l 444 0 l 333 0 z "},"ť":{"ha":488,"x_min":21,"x_max":585,"o":"m 333 0 q 166 54 222 0 q 110 217 110 108 l 110 540 l 21 540 l 21 689 l 110 689 l 110 857 l 288 857 l 288 689 l 444 689 l 444 540 l 288 540 l 288 215 q 308 163 288 176 q 363 149 329 149 l 444 149 l 444 0 l 333 0 m 351 758 l 418 972 l 585 972 l 467 758 l 351 758 z "},"ţ":{"ha":488,"x_min":21,"x_max":536,"o":"m 333 0 q 166 54 222 0 q 110 217 110 108 l 110 540 l 21 540 l 21 689 l 110 689 l 110 857 l 288 857 l 288 689 l 444 689 l 444 540 l 288 540 l 288 215 q 308 163 288 176 q 363 149 329 149 l 444 149 l 444 0 l 333 0 m 174 -365 l 174 -262 l 329 -262 q 403 -212 403 -262 q 329 -164 403 -164 l 244 -164 l 244 24 l 356 24 l 356 -69 q 445 -84 404 -68 q 511 -133 486 -100 q 536 -215 536 -165 q 511 -299 536 -265 q 445 -349 486 -332 q 356 -365 404 -365 l 174 -365 z "},"ț":{"ha":488,"x_min":21,"x_max":444,"o":"m 333 0 q 166 54 222 0 q 110 217 110 108 l 110 540 l 21 540 l 21 689 l 110 689 l 110 857 l 288 857 l 288 689 l 444 689 l 444 540 l 288 540 l 288 215 q 308 163 288 176 q 363 149 329 149 l 444 149 l 444 0 l 333 0 m 225 -381 l 225 -308 q 294 -222 294 -308 l 294 -201 l 218 -201 l 218 -62 l 369 -62 q 385 -133 381 -99 q 390 -196 390 -167 q 349 -333 390 -285 q 225 -381 307 -381 z "},"u":{"ha":781,"x_min":51,"x_max":718,"o":"m 332 -17 q 181 22 243 -17 q 85 127 118 60 q 51 281 51 194 l 51 689 l 228 689 l 228 307 q 267 182 228 231 q 383 133 307 133 q 501 181 463 133 q 540 307 540 228 l 540 689 l 718 689 l 718 0 l 540 0 l 540 81 q 449 8 506 33 q 332 -17 393 -17 z "},"ú":{"ha":781,"x_min":51,"x_max":718,"o":"m 332 -17 q 181 22 243 -17 q 85 127 118 60 q 51 281 51 194 l 51 689 l 228 689 l 228 307 q 267 182 228 231 q 383 133 307 133 q 501 181 463 133 q 540 307 540 228 l 540 689 l 718 689 l 718 0 l 540 0 l 540 81 q 449 8 506 33 q 332 -17 393 -17 m 232 749 l 232 874 l 546 1043 l 546 899 l 232 749 z "},"ŭ":{"ha":781,"x_min":51,"x_max":718,"o":"m 332 -17 q 181 22 243 -17 q 85 127 118 60 q 51 281 51 194 l 51 689 l 228 689 l 228 307 q 267 182 228 231 q 383 133 307 133 q 501 181 463 133 q 540 307 540 228 l 540 689 l 718 689 l 718 0 l 540 0 l 540 81 q 449 8 506 33 q 332 -17 393 -17 m 388 756 q 230 813 288 756 q 172 967 172 869 l 172 989 l 267 989 q 294 915 267 942 q 389 889 321 889 q 483 915 456 889 q 510 989 510 942 l 604 989 l 604 965 q 546 813 604 869 q 388 756 488 756 z "},"û":{"ha":781,"x_min":51,"x_max":718,"o":"m 332 -17 q 181 22 243 -17 q 85 127 118 60 q 51 281 51 194 l 51 689 l 228 689 l 228 307 q 267 182 228 231 q 383 133 307 133 q 501 181 463 133 q 540 307 540 228 l 540 689 l 718 689 l 718 0 l 540 0 l 540 81 q 449 8 506 33 q 332 -17 393 -17 m 186 769 l 186 897 l 389 1008 l 592 897 l 592 769 l 389 883 l 186 769 z "},"ü":{"ha":781,"x_min":51,"x_max":718,"o":"m 332 -17 q 181 22 243 -17 q 85 127 118 60 q 51 281 51 194 l 51 689 l 228 689 l 228 307 q 267 182 228 231 q 383 133 307 133 q 501 181 463 133 q 540 307 540 228 l 540 689 l 718 689 l 718 0 l 540 0 l 540 81 q 449 8 506 33 q 332 -17 393 -17 m 235 778 q 153 811 186 778 q 119 893 119 844 q 153 975 119 942 q 235 1008 186 1008 q 317 975 283 1008 q 350 893 350 942 q 317 811 350 844 q 235 778 283 778 m 543 778 q 461 811 494 778 q 428 893 428 844 q 461 975 428 942 q 543 1008 494 1008 q 625 975 592 1008 q 658 893 658 942 q 625 811 658 844 q 543 778 592 778 z "},"ù":{"ha":781,"x_min":51,"x_max":718,"o":"m 332 -17 q 181 22 243 -17 q 85 127 118 60 q 51 281 51 194 l 51 689 l 228 689 l 228 307 q 267 182 228 231 q 383 133 307 133 q 501 181 463 133 q 540 307 540 228 l 540 689 l 718 689 l 718 0 l 540 0 l 540 81 q 449 8 506 33 q 332 -17 393 -17 m 546 749 l 232 899 l 232 1043 l 546 874 l 546 749 z "},"ű":{"ha":781,"x_min":51,"x_max":718,"o":"m 332 -17 q 181 22 243 -17 q 85 127 118 60 q 51 281 51 194 l 51 689 l 228 689 l 228 307 q 267 182 228 231 q 383 133 307 133 q 501 181 463 133 q 540 307 540 228 l 540 689 l 718 689 l 718 0 l 540 0 l 540 81 q 449 8 506 33 q 332 -17 393 -17 m 419 756 l 532 1004 l 678 1004 l 531 756 l 419 756 m 183 756 l 282 1004 l 426 1004 l 296 756 l 183 756 z "},"ū":{"ha":781,"x_min":51,"x_max":718,"o":"m 332 -17 q 181 22 243 -17 q 85 127 118 60 q 51 281 51 194 l 51 689 l 228 689 l 228 307 q 267 182 228 231 q 383 133 307 133 q 501 181 463 133 q 540 307 540 228 l 540 689 l 718 689 l 718 0 l 540 0 l 540 81 q 449 8 506 33 q 332 -17 393 -17 m 143 832 l 143 958 l 635 958 l 635 832 l 143 832 z "},"ų":{"ha":781,"x_min":51,"x_max":725,"o":"m 332 -17 q 181 22 243 -17 q 85 127 118 60 q 51 281 51 194 l 51 689 l 228 689 l 228 307 q 267 182 228 231 q 383 133 307 133 q 501 181 463 133 q 540 307 540 228 l 540 689 l 718 689 l 718 0 l 540 0 l 540 81 q 449 8 506 33 q 332 -17 393 -17 m 604 -292 q 474 -257 529 -292 q 419 -147 419 -222 q 462 -42 419 -92 q 614 56 504 8 l 678 83 l 718 0 l 646 -36 q 575 -83 596 -61 q 554 -131 554 -106 q 574 -172 554 -157 q 626 -187 593 -187 q 725 -167 671 -187 l 725 -272 q 667 -286 699 -281 q 604 -292 636 -292 z "},"ů":{"ha":781,"x_min":51,"x_max":718,"o":"m 332 -17 q 181 22 243 -17 q 85 127 118 60 q 51 281 51 194 l 51 689 l 228 689 l 228 307 q 267 182 228 231 q 383 133 307 133 q 501 181 463 133 q 540 307 540 228 l 540 689 l 718 689 l 718 0 l 540 0 l 540 81 q 449 8 506 33 q 332 -17 393 -17 m 388 757 q 277 799 324 757 q 231 913 231 840 q 277 1026 231 985 q 388 1068 324 1068 q 501 1026 454 1068 q 547 913 547 985 q 501 799 547 840 q 388 757 454 757 m 388 838 q 440 858 419 838 q 461 913 461 879 q 440 967 461 947 q 388 988 419 988 q 338 967 358 988 q 317 913 317 947 q 338 858 317 879 q 388 838 358 838 z "},"ũ":{"ha":781,"x_min":51,"x_max":718,"o":"m 332 -17 q 181 22 243 -17 q 85 127 118 60 q 51 281 51 194 l 51 689 l 228 689 l 228 307 q 267 182 228 231 q 383 133 307 133 q 501 181 463 133 q 540 307 540 228 l 540 689 l 718 689 l 718 0 l 540 0 l 540 81 q 449 8 506 33 q 332 -17 393 -17 m 469 804 q 406 820 432 804 q 356 852 379 836 q 299 868 332 868 q 259 853 274 868 q 239 806 244 838 l 144 806 q 201 936 158 894 q 307 978 243 978 q 372 962 346 978 q 422 930 397 946 q 478 914 446 914 q 517 929 501 914 q 538 976 533 944 l 632 976 q 576 846 619 888 q 469 804 532 804 z "},"v":{"ha":728,"x_min":-1,"x_max":729,"o":"m 257 0 l -1 689 l 188 689 l 365 160 l 542 689 l 729 689 l 471 0 l 257 0 z "},"w":{"ha":1038,"x_min":-4,"x_max":1043,"o":"m 201 0 l -4 689 l 175 689 l 299 165 l 432 689 l 619 689 l 750 167 l 874 689 l 1043 689 l 839 1 l 649 1 l 521 482 l 393 0 l 201 0 z "},"ẃ":{"ha":1038,"x_min":-4,"x_max":1043,"o":"m 201 0 l -4 689 l 175 689 l 299 165 l 432 689 l 619 689 l 750 167 l 874 689 l 1043 689 l 839 1 l 649 1 l 521 482 l 393 0 l 201 0 m 364 749 l 364 874 l 678 1043 l 678 899 l 364 749 z "},"ŵ":{"ha":1038,"x_min":-4,"x_max":1043,"o":"m 201 0 l -4 689 l 175 689 l 299 165 l 432 689 l 619 689 l 750 167 l 874 689 l 1043 689 l 839 1 l 649 1 l 521 482 l 393 0 l 201 0 m 318 769 l 318 897 l 521 1008 l 724 897 l 724 769 l 521 883 l 318 769 z "},"ẅ":{"ha":1038,"x_min":-4,"x_max":1043,"o":"m 201 0 l -4 689 l 175 689 l 299 165 l 432 689 l 619 689 l 750 167 l 874 689 l 1043 689 l 839 1 l 649 1 l 521 482 l 393 0 l 201 0 m 367 778 q 285 811 318 778 q 251 893 251 844 q 285 975 251 942 q 367 1008 318 1008 q 449 975 415 1008 q 482 893 482 942 q 449 811 482 844 q 367 778 415 778 m 675 778 q 593 811 626 778 q 560 893 560 844 q 593 975 560 942 q 675 1008 626 1008 q 757 975 724 1008 q 790 893 790 942 q 757 811 790 844 q 675 778 724 778 z "},"ẁ":{"ha":1038,"x_min":-4,"x_max":1043,"o":"m 201 0 l -4 689 l 175 689 l 299 165 l 432 689 l 619 689 l 750 167 l 874 689 l 1043 689 l 839 1 l 649 1 l 521 482 l 393 0 l 201 0 m 678 749 l 364 899 l 364 1043 l 678 874 l 678 749 z "},"x":{"ha":656,"x_min":-3,"x_max":660,"o":"m 0 0 l 228 346 l -3 689 l 197 689 l 339 476 l 468 689 l 657 689 l 428 346 l 660 0 l 461 0 l 317 214 l 189 0 l 0 0 z "},"y":{"ha":743,"x_min":-1,"x_max":744,"o":"m 126 -306 l 278 32 l -1 689 l 197 689 l 375 219 l 557 689 l 744 689 l 314 -306 l 126 -306 z "},"ý":{"ha":743,"x_min":-1,"x_max":744,"o":"m 126 -306 l 278 32 l -1 689 l 197 689 l 375 219 l 557 689 l 744 689 l 314 -306 l 126 -306 m 215 749 l 215 874 l 529 1043 l 529 899 l 215 749 z "},"ŷ":{"ha":743,"x_min":-1,"x_max":744,"o":"m 126 -306 l 278 32 l -1 689 l 197 689 l 375 219 l 557 689 l 744 689 l 314 -306 l 126 -306 m 169 769 l 169 897 l 372 1008 l 575 897 l 575 769 l 372 883 l 169 769 z "},"ÿ":{"ha":743,"x_min":-1,"x_max":744,"o":"m 126 -306 l 278 32 l -1 689 l 197 689 l 375 219 l 557 689 l 744 689 l 314 -306 l 126 -306 m 218 778 q 136 811 169 778 q 103 893 103 844 q 136 975 103 942 q 218 1008 169 1008 q 300 975 267 1008 q 333 893 333 942 q 300 811 333 844 q 218 778 267 778 m 526 778 q 444 811 478 778 q 411 893 411 844 q 444 975 411 942 q 526 1008 478 1008 q 608 975 575 1008 q 642 893 642 942 q 608 811 642 844 q 526 778 575 778 z "},"ỳ":{"ha":743,"x_min":-1,"x_max":744,"o":"m 126 -306 l 278 32 l -1 689 l 197 689 l 375 219 l 557 689 l 744 689 l 314 -306 l 126 -306 m 529 749 l 215 899 l 215 1043 l 529 874 l 529 749 z "},"ỹ":{"ha":743,"x_min":-1,"x_max":744,"o":"m 126 -306 l 278 32 l -1 689 l 197 689 l 375 219 l 557 689 l 744 689 l 314 -306 l 126 -306 m 453 804 q 389 820 415 804 q 339 852 363 836 q 282 868 315 868 q 242 853 257 868 q 222 806 228 838 l 128 806 q 184 936 142 894 q 290 978 226 978 q 355 962 329 978 q 405 930 381 946 q 461 914 429 914 q 501 929 485 914 q 521 976 517 944 l 615 976 q 559 846 603 888 q 453 804 515 804 z "},"z":{"ha":574,"x_min":31,"x_max":543,"o":"m 31 0 l 31 143 l 336 544 l 32 544 l 32 689 l 539 689 l 539 547 l 232 146 l 543 146 l 543 0 l 31 0 z "},"ź":{"ha":574,"x_min":31,"x_max":543,"o":"m 31 0 l 31 143 l 336 544 l 32 544 l 32 689 l 539 689 l 539 547 l 232 146 l 543 146 l 543 0 l 31 0 m 131 749 l 131 874 l 444 1043 l 444 899 l 131 749 z "},"ž":{"ha":574,"x_min":31,"x_max":543,"o":"m 31 0 l 31 143 l 336 544 l 32 544 l 32 689 l 539 689 l 539 547 l 232 146 l 543 146 l 543 0 l 31 0 m 288 769 l 85 881 l 85 1008 l 288 890 l 490 1008 l 490 881 l 288 769 z "},"ż":{"ha":574,"x_min":31,"x_max":543,"o":"m 31 0 l 31 143 l 336 544 l 32 544 l 32 689 l 539 689 l 539 547 l 232 146 l 543 146 l 543 0 l 31 0 m 288 778 q 206 811 239 778 q 172 893 172 844 q 206 975 172 942 q 288 1008 239 1008 q 369 975 336 1008 q 403 893 403 942 q 369 811 403 844 q 288 778 336 778 z "},"ꞌ":{"ha":357,"x_min":83,"x_max":274,"o":"m 110 458 l 83 972 l 274 972 l 246 458 l 110 458 z "},"ﬁ":{"ha":742,"x_min":0,"x_max":699,"o":"m 81 0 l 81 540 l 0 540 l 0 689 l 81 689 l 81 742 q 144 919 81 867 q 315 972 207 972 l 374 972 l 374 821 l 343 821 q 278 803 297 821 q 258 742 258 785 l 258 689 l 382 689 l 382 540 l 258 540 l 258 0 l 81 0 m 494 0 l 494 689 l 672 689 l 672 0 l 494 0 m 583 778 q 502 812 536 778 q 468 893 468 846 q 502 975 468 942 q 583 1008 536 1008 q 665 975 632 1008 q 699 893 699 942 q 665 812 699 846 q 583 778 632 778 z "},"ﬂ":{"ha":732,"x_min":0,"x_max":668,"o":"m 81 0 l 81 540 l 0 540 l 0 689 l 81 689 l 81 742 q 144 919 81 867 q 315 972 207 972 l 374 972 l 374 821 l 343 821 q 278 803 297 821 q 258 742 258 785 l 258 689 l 382 689 l 382 540 l 258 540 l 258 0 l 81 0 m 490 0 l 490 972 l 668 972 l 668 0 l 490 0 z "},"ª":{"ha":561,"x_min":40,"x_max":533,"o":"m 203 482 q 126 499 164 482 q 65 547 89 515 q 40 625 40 579 q 68 715 40 681 q 142 764 96 749 q 242 779 188 779 l 357 779 q 333 853 356 824 q 265 882 310 882 q 210 865 233 882 q 178 817 186 849 l 54 817 q 95 909 65 871 q 169 967 125 947 q 269 986 214 986 q 349 974 311 986 q 417 935 388 961 q 465 870 447 910 q 482 776 482 831 l 482 644 q 497 608 482 619 q 533 596 511 596 l 533 492 l 510 492 q 425 510 461 492 q 371 564 389 528 q 301 503 343 524 q 203 482 258 482 m 239 581 q 297 595 271 581 q 340 637 324 610 q 357 700 357 664 l 250 700 q 193 686 219 700 q 167 639 167 672 q 188 594 167 608 q 239 581 208 581 z "},"º":{"ha":582,"x_min":40,"x_max":542,"o":"m 288 485 q 161 516 217 485 q 73 604 106 547 q 40 738 40 661 q 75 874 40 818 q 167 959 110 929 q 292 989 224 989 q 419 958 363 989 q 508 870 475 926 q 542 738 542 814 q 510 609 542 667 q 422 518 479 551 q 288 485 365 485 m 288 592 q 358 611 329 592 q 401 664 386 631 q 415 738 415 697 q 383 840 415 799 q 290 882 351 882 q 222 863 250 882 q 180 810 194 843 q 165 738 165 778 q 198 634 165 676 q 288 592 231 592 z "},"Я":{"ha":854,"x_min":31,"x_max":765,"o":"m 31 0 l 301 439 q 150 525 206 463 q 94 692 94 588 q 136 844 94 782 q 253 940 178 907 q 428 972 328 972 l 765 972 l 765 0 l 588 0 l 588 410 l 479 410 l 240 0 l 31 0 m 432 561 l 588 561 l 588 821 l 432 821 q 336 804 371 821 q 288 758 301 788 q 275 692 275 729 q 288 625 275 654 q 336 578 301 596 q 432 561 371 561 z "},"я":{"ha":854,"x_min":31,"x_max":765,"o":"m 31 0 l 301 439 q 150 525 206 463 q 94 692 94 588 q 136 844 94 782 q 253 940 178 907 q 428 972 328 972 l 765 972 l 765 0 l 588 0 l 588 410 l 479 410 l 240 0 l 31 0 m 432 561 l 588 561 l 588 821 l 432 821 q 336 804 371 821 q 288 758 301 788 q 275 692 275 729 q 288 625 275 654 q 336 578 301 596 q 432 561 371 561 z "},"Δ":{"ha":988,"x_min":32,"x_max":956,"o":"m 32 0 l 32 136 l 421 972 l 567 972 l 956 136 l 956 0 l 32 0 m 214 136 l 774 136 l 493 771 l 214 136 z "},"Π":{"ha":899,"x_min":46,"x_max":853,"o":"m 149 0 l 149 553 l 46 553 l 46 689 l 853 689 l 853 553 l 749 553 l 749 0 l 571 0 l 571 553 l 326 553 l 326 0 l 149 0 z "},"Ω":{"ha":1094,"x_min":54,"x_max":1042,"o":"m 67 0 l 67 136 l 229 136 q 97 296 139 200 q 54 504 54 392 q 92 701 54 613 q 196 855 129 790 q 353 954 263 919 q 547 989 443 989 q 742 954 653 989 q 899 856 832 919 q 1004 703 967 792 q 1042 504 1042 614 q 999 296 1042 392 q 865 136 957 200 l 1028 136 l 1028 0 l 650 0 l 650 142 q 760 218 713 169 q 834 335 807 267 q 861 486 861 403 q 838 630 861 567 q 773 737 815 693 q 674 803 731 781 q 547 826 617 826 q 406 797 465 826 q 309 719 347 768 q 253 610 271 671 q 235 486 235 549 q 262 335 235 403 q 336 218 289 267 q 444 142 383 169 l 444 0 l 67 0 z "},"μ":{"ha":857,"x_min":90,"x_max":765,"o":"m 90 -306 l 90 689 l 268 689 l 268 317 q 305 181 268 228 q 418 133 342 133 q 540 186 493 133 q 588 333 588 239 l 588 689 l 765 689 l 765 0 l 610 0 l 596 117 q 503 19 563 56 q 361 -17 443 -17 q 310 -11 333 -17 q 268 6 288 -6 l 268 -306 l 90 -306 z "},"⓪":{"ha":1081,"x_min":38,"x_max":1043,"o":"m 540 -17 q 345 22 436 -17 q 185 131 254 61 q 76 291 115 200 q 38 486 38 382 q 76 681 38 590 q 185 842 115 772 q 345 950 254 911 q 540 989 436 989 q 735 950 644 989 q 896 842 826 911 q 1004 681 965 772 q 1043 486 1043 590 q 1004 291 1043 382 q 896 131 965 200 q 735 22 826 61 q 540 -17 644 -17 m 540 78 q 702 108 628 78 q 832 194 776 139 q 918 324 888 250 q 949 486 949 399 q 918 648 949 574 q 832 778 888 722 q 702 864 776 833 q 540 894 628 894 q 379 864 453 894 q 250 778 306 833 q 164 648 194 722 q 133 486 133 574 q 164 324 133 399 q 250 194 194 250 q 379 108 306 139 q 540 78 453 78 m 542 229 q 399 300 444 229 q 365 381 376 335 q 354 486 354 428 q 365 591 354 544 q 399 672 376 638 q 542 743 444 743 q 683 674 638 743 q 728 486 728 604 q 683 299 728 368 q 542 229 638 229 m 542 328 q 597 369 579 328 q 610 419 606 390 q 615 486 615 449 q 610 553 615 524 q 597 603 606 582 q 542 643 579 643 q 485 603 503 643 q 467 486 467 563 q 485 369 467 410 q 542 328 504 328 z "},"➀":{"ha":1081,"x_min":38,"x_max":1043,"o":"m 540 -17 q 345 22 436 -17 q 185 131 254 61 q 76 291 115 200 q 38 486 38 382 q 76 681 38 590 q 185 842 115 772 q 345 950 254 911 q 540 989 436 989 q 735 950 644 989 q 896 842 826 911 q 1004 681 965 772 q 1043 486 1043 590 q 1004 291 1043 382 q 896 131 965 200 q 735 22 826 61 q 540 -17 644 -17 m 540 78 q 702 108 628 78 q 832 194 776 139 q 918 324 888 250 q 949 486 949 399 q 918 648 949 574 q 832 778 888 722 q 702 864 776 833 q 540 894 628 894 q 379 864 453 894 q 250 778 306 833 q 164 648 194 722 q 133 486 133 574 q 164 324 133 399 q 250 194 194 250 q 379 108 306 139 q 540 78 453 78 m 385 244 l 385 342 l 506 342 l 506 617 l 390 596 l 390 683 l 551 740 l 610 740 l 610 342 l 721 342 l 721 244 l 385 244 z "},"➁":{"ha":1081,"x_min":38,"x_max":1043,"o":"m 540 -17 q 345 22 436 -17 q 185 131 254 61 q 76 291 115 200 q 38 486 38 382 q 76 681 38 590 q 185 842 115 772 q 345 950 254 911 q 540 989 436 989 q 735 950 644 989 q 896 842 826 911 q 1004 681 965 772 q 1043 486 1043 590 q 1004 291 1043 382 q 896 131 965 200 q 735 22 826 61 q 540 -17 644 -17 m 540 78 q 702 108 628 78 q 832 194 776 139 q 918 324 888 250 q 949 486 949 399 q 918 648 949 574 q 832 778 888 722 q 702 864 776 833 q 540 894 628 894 q 379 864 453 894 q 250 778 306 833 q 164 648 194 722 q 133 486 133 574 q 164 324 133 399 q 250 194 194 250 q 379 108 306 139 q 540 78 453 78 m 367 244 l 367 319 l 510 467 q 547 504 525 482 q 585 550 568 526 q 601 594 601 574 q 586 640 601 624 q 540 656 571 656 q 489 632 504 656 q 474 581 474 608 l 367 581 q 392 678 368 642 q 456 733 417 715 q 543 750 496 750 q 629 732 592 750 q 688 681 667 714 q 710 600 710 647 q 690 525 710 560 q 642 460 671 490 q 585 403 613 431 l 522 342 l 719 342 l 719 244 l 367 244 z "},"➂":{"ha":1081,"x_min":38,"x_max":1043,"o":"m 540 -17 q 345 22 436 -17 q 185 131 254 61 q 76 291 115 200 q 38 486 38 382 q 76 681 38 590 q 185 842 115 772 q 345 950 254 911 q 540 989 436 989 q 735 950 644 989 q 896 842 826 911 q 1004 681 965 772 q 1043 486 1043 590 q 1004 291 1043 382 q 896 131 965 200 q 735 22 826 61 q 540 -17 644 -17 m 540 78 q 702 108 628 78 q 832 194 776 139 q 918 324 888 250 q 949 486 949 399 q 918 648 949 574 q 832 778 888 722 q 702 864 776 833 q 540 894 628 894 q 379 864 453 894 q 250 778 306 833 q 164 648 194 722 q 133 486 133 574 q 164 324 133 399 q 250 194 194 250 q 379 108 306 139 q 540 78 453 78 m 542 219 q 409 263 460 219 q 360 393 358 306 l 467 393 q 490 333 467 350 q 542 315 514 315 q 594 332 574 315 q 615 388 615 349 q 592 441 615 424 q 542 458 569 458 q 515 455 528 458 q 490 444 503 451 l 431 514 l 568 629 l 371 629 l 371 725 l 707 725 l 707 631 l 599 542 q 695 485 668 529 q 722 389 722 442 q 670 263 722 307 q 542 219 618 219 z "},"➃":{"ha":1081,"x_min":38,"x_max":1043,"o":"m 540 -17 q 345 22 436 -17 q 185 131 254 61 q 76 291 115 200 q 38 486 38 382 q 76 681 38 590 q 185 842 115 772 q 345 950 254 911 q 540 989 436 989 q 735 950 644 989 q 896 842 826 911 q 1004 681 965 772 q 1043 486 1043 590 q 1004 291 1043 382 q 896 131 965 200 q 735 22 826 61 q 540 -17 644 -17 m 557 244 l 557 328 l 329 328 l 329 418 l 493 740 l 601 740 l 447 424 l 565 424 l 565 544 l 669 544 l 669 424 l 717 424 l 717 328 l 669 328 l 669 244 l 557 244 m 540 78 q 702 108 628 78 q 832 194 776 139 q 918 324 888 250 q 949 486 949 399 q 918 648 949 574 q 832 778 888 722 q 702 864 776 833 q 540 894 628 894 q 379 864 453 894 q 250 778 306 833 q 164 648 194 722 q 133 486 133 574 q 164 324 133 399 q 250 194 194 250 q 379 108 306 139 q 540 78 453 78 z "},"➄":{"ha":1081,"x_min":38,"x_max":1043,"o":"m 540 -17 q 345 22 436 -17 q 185 131 254 61 q 76 291 115 200 q 38 486 38 382 q 76 681 38 590 q 185 842 115 772 q 345 950 254 911 q 540 989 436 989 q 735 950 644 989 q 896 842 826 911 q 1004 681 965 772 q 1043 486 1043 590 q 1004 291 1043 382 q 896 131 965 200 q 735 22 826 61 q 540 -17 644 -17 m 540 78 q 702 108 628 78 q 832 194 776 139 q 918 324 888 250 q 949 486 949 399 q 918 648 949 574 q 832 778 888 722 q 702 864 776 833 q 540 894 628 894 q 379 864 453 894 q 250 778 306 833 q 164 648 194 722 q 133 486 133 574 q 164 324 133 399 q 250 194 194 250 q 379 108 306 139 q 540 78 453 78 m 544 222 q 416 261 469 222 q 360 375 363 300 l 468 375 q 497 333 475 349 q 544 318 518 318 q 598 344 578 318 q 618 404 618 369 q 599 460 618 438 q 546 483 579 483 q 501 470 522 483 q 472 436 481 457 l 365 436 l 407 728 l 693 728 l 693 631 l 490 631 l 471 539 q 515 565 489 557 q 565 574 540 574 q 656 549 621 574 q 708 485 692 524 q 725 404 725 447 q 674 274 725 325 q 544 222 624 222 z "},"➅":{"ha":1081,"x_min":38,"x_max":1043,"o":"m 540 -17 q 345 22 436 -17 q 185 131 254 61 q 76 291 115 200 q 38 486 38 382 q 76 681 38 590 q 185 842 115 772 q 345 950 254 911 q 540 989 436 989 q 735 950 644 989 q 896 842 826 911 q 1004 681 965 772 q 1043 486 1043 590 q 1004 291 1043 382 q 896 131 965 200 q 735 22 826 61 q 540 -17 644 -17 m 540 78 q 702 108 628 78 q 832 194 776 139 q 918 324 888 250 q 949 486 949 399 q 918 648 949 574 q 832 778 888 722 q 702 864 776 833 q 540 894 628 894 q 379 864 453 894 q 250 778 306 833 q 164 648 194 722 q 133 486 133 574 q 164 324 133 399 q 250 194 194 250 q 379 108 306 139 q 540 78 453 78 m 544 324 q 590 340 567 324 q 613 394 613 356 q 590 451 613 435 q 542 467 567 467 q 493 447 513 467 q 474 397 474 428 q 493 344 474 365 q 544 324 513 324 m 550 229 q 437 263 481 229 q 373 353 393 297 q 353 472 353 408 q 372 603 353 542 q 434 704 392 665 q 546 743 476 743 q 631 724 594 743 q 688 671 667 704 q 711 594 710 638 l 610 594 q 589 637 604 621 q 546 653 574 653 q 494 628 511 653 q 471 569 476 604 q 464 499 465 533 q 506 542 478 522 q 574 561 535 561 q 651 538 618 561 q 701 476 683 514 q 718 399 718 439 q 698 315 718 354 q 640 253 678 276 q 550 229 603 229 z "},"➆":{"ha":1081,"x_min":38,"x_max":1043,"o":"m 540 -17 q 345 22 436 -17 q 185 131 254 61 q 76 291 115 200 q 38 486 38 382 q 76 681 38 590 q 185 842 115 772 q 345 950 254 911 q 540 989 436 989 q 735 950 644 989 q 896 842 826 911 q 1004 681 965 772 q 1043 486 1043 590 q 1004 291 1043 382 q 896 131 965 200 q 735 22 826 61 q 540 -17 644 -17 m 424 232 l 611 633 l 357 633 l 357 728 l 731 728 l 731 650 l 539 232 l 424 232 m 540 78 q 702 108 628 78 q 832 194 776 139 q 918 324 888 250 q 949 486 949 399 q 918 648 949 574 q 832 778 888 722 q 702 864 776 833 q 540 894 628 894 q 379 864 453 894 q 250 778 306 833 q 164 648 194 722 q 133 486 133 574 q 164 324 133 399 q 250 194 194 250 q 379 108 306 139 q 540 78 453 78 z "},"➇":{"ha":1081,"x_min":38,"x_max":1043,"o":"m 540 -17 q 345 22 436 -17 q 185 131 254 61 q 76 291 115 200 q 38 486 38 382 q 76 681 38 590 q 185 842 115 772 q 345 950 254 911 q 540 989 436 989 q 735 950 644 989 q 896 842 826 911 q 1004 681 965 772 q 1043 486 1043 590 q 1004 291 1043 382 q 896 131 965 200 q 735 22 826 61 q 540 -17 644 -17 m 543 321 q 593 339 575 321 q 611 389 611 357 q 593 440 611 421 q 543 458 575 458 q 492 442 513 458 q 472 389 472 425 q 488 340 472 358 q 543 321 504 321 m 540 78 q 702 108 628 78 q 832 194 776 139 q 918 324 888 250 q 949 486 949 399 q 918 648 949 574 q 832 778 888 722 q 702 864 776 833 q 540 894 628 894 q 379 864 453 894 q 250 778 306 833 q 164 648 194 722 q 133 486 133 574 q 164 324 133 399 q 250 194 194 250 q 379 108 306 139 q 540 78 453 78 m 542 229 q 455 247 496 229 q 388 299 414 265 q 363 378 363 332 q 381 453 363 421 q 438 506 399 486 q 390 550 407 525 q 374 610 374 575 q 422 708 374 674 q 542 743 469 743 q 619 730 582 743 q 682 688 657 717 q 707 610 707 658 q 688 544 707 571 q 644 506 668 518 q 702 454 685 488 q 719 378 719 421 q 694 296 719 329 q 629 246 669 263 q 542 229 589 229 m 542 536 q 581 549 565 536 q 597 594 597 561 q 583 638 597 622 q 542 654 569 654 q 485 594 485 654 q 500 551 485 567 q 542 536 515 536 z "},"➈":{"ha":1081,"x_min":38,"x_max":1043,"o":"m 540 -17 q 345 22 436 -17 q 185 131 254 61 q 76 291 115 200 q 38 486 38 382 q 76 681 38 590 q 185 842 115 772 q 345 950 254 911 q 540 989 436 989 q 735 950 644 989 q 896 842 826 911 q 1004 681 965 772 q 1043 486 1043 590 q 1004 291 1043 382 q 896 131 965 200 q 735 22 826 61 q 540 -17 644 -17 m 540 78 q 702 108 628 78 q 832 194 776 139 q 918 324 888 250 q 949 486 949 399 q 918 648 949 574 q 832 778 888 722 q 702 864 776 833 q 540 894 628 894 q 379 864 453 894 q 250 778 306 833 q 164 648 194 722 q 133 486 133 574 q 164 324 133 399 q 250 194 194 250 q 379 108 306 139 q 540 78 453 78 m 533 229 q 444 251 481 229 q 388 308 407 274 q 369 378 369 343 l 471 378 q 492 335 478 351 q 535 319 507 319 q 588 346 571 319 q 610 408 604 372 q 617 474 617 444 q 574 431 601 450 q 507 411 546 411 q 444 428 478 411 q 387 480 411 444 q 363 574 363 515 q 383 658 363 619 q 440 719 403 696 q 529 743 478 743 q 646 708 603 743 q 708 618 689 674 q 726 500 726 563 q 706 365 726 426 q 644 266 686 303 q 533 229 601 229 m 538 506 q 587 526 567 506 q 607 575 607 546 q 587 628 607 607 q 535 649 567 649 q 488 629 508 649 q 467 578 467 610 q 487 526 467 547 q 538 506 507 506 z "},"➊":{"ha":1081,"x_min":38,"x_max":1043,"o":"m 540 -17 q 345 22 436 -17 q 185 131 254 61 q 76 291 115 200 q 38 486 38 382 q 76 681 38 590 q 185 842 115 772 q 345 950 254 911 q 540 989 436 989 q 735 950 644 989 q 896 842 826 911 q 1004 681 965 772 q 1043 486 1043 590 q 1004 291 1043 382 q 896 131 965 200 q 735 22 826 61 q 540 -17 644 -17 m 385 244 l 721 244 l 721 342 l 610 342 l 610 740 l 551 740 l 390 683 l 390 596 l 506 617 l 506 342 l 385 342 l 385 244 z "},"➋":{"ha":1081,"x_min":38,"x_max":1043,"o":"m 540 -17 q 345 22 436 -17 q 185 131 254 61 q 76 291 115 200 q 38 486 38 382 q 76 681 38 590 q 185 842 115 772 q 345 950 254 911 q 540 989 436 989 q 735 950 644 989 q 896 842 826 911 q 1004 681 965 772 q 1043 486 1043 590 q 1004 291 1043 382 q 896 131 965 200 q 735 22 826 61 q 540 -17 644 -17 m 367 244 l 719 244 l 719 342 l 522 342 l 585 403 q 642 460 613 431 q 690 525 671 490 q 710 600 710 560 q 688 681 710 647 q 629 732 667 714 q 543 750 592 750 q 456 733 496 750 q 392 678 417 715 q 367 581 368 642 l 474 581 q 489 632 474 608 q 540 656 504 656 q 586 640 571 656 q 601 594 601 624 q 585 550 601 574 q 547 504 568 526 q 510 467 525 482 l 367 319 l 367 244 z "},"➌":{"ha":1081,"x_min":38,"x_max":1043,"o":"m 540 -17 q 345 22 436 -17 q 185 131 254 61 q 76 291 115 200 q 38 486 38 382 q 76 681 38 590 q 185 842 115 772 q 345 950 254 911 q 540 989 436 989 q 735 950 644 989 q 896 842 826 911 q 1004 681 965 772 q 1043 486 1043 590 q 1004 291 1043 382 q 896 131 965 200 q 735 22 826 61 q 540 -17 644 -17 m 542 219 q 670 263 618 219 q 722 389 722 307 q 695 485 722 442 q 599 542 668 529 l 707 631 l 707 725 l 371 725 l 371 629 l 568 629 l 431 514 l 490 444 q 515 455 503 451 q 542 458 528 458 q 592 441 569 458 q 615 388 615 424 q 594 332 615 349 q 542 315 574 315 q 490 333 514 315 q 467 393 467 350 l 360 393 q 409 263 358 306 q 542 219 460 219 z "},"➍":{"ha":1081,"x_min":38,"x_max":1043,"o":"m 540 -17 q 345 22 436 -17 q 185 131 254 61 q 76 291 115 200 q 38 486 38 382 q 76 681 38 590 q 185 842 115 772 q 345 950 254 911 q 540 989 436 989 q 735 950 644 989 q 896 842 826 911 q 1004 681 965 772 q 1043 486 1043 590 q 1004 291 1043 382 q 896 131 965 200 q 735 22 826 61 q 540 -17 644 -17 m 557 244 l 669 244 l 669 328 l 717 328 l 717 424 l 669 424 l 669 544 l 565 544 l 565 424 l 447 424 l 601 740 l 493 740 l 329 418 l 329 328 l 557 328 l 557 244 z "},"➎":{"ha":1081,"x_min":38,"x_max":1043,"o":"m 540 -17 q 345 22 436 -17 q 185 131 254 61 q 76 291 115 200 q 38 486 38 382 q 76 681 38 590 q 185 842 115 772 q 345 950 254 911 q 540 989 436 989 q 735 950 644 989 q 896 842 826 911 q 1004 681 965 772 q 1043 486 1043 590 q 1004 291 1043 382 q 896 131 965 200 q 735 22 826 61 q 540 -17 644 -17 m 544 222 q 674 274 624 222 q 725 404 725 325 q 708 485 725 447 q 656 549 692 524 q 565 574 621 574 q 515 565 540 574 q 471 539 489 557 l 490 631 l 693 631 l 693 728 l 407 728 l 365 436 l 472 436 q 501 470 481 457 q 546 483 522 483 q 599 460 579 483 q 618 404 618 438 q 598 344 618 369 q 544 318 578 318 q 497 333 518 318 q 468 375 475 349 l 360 375 q 416 261 363 300 q 544 222 469 222 z "},"➏":{"ha":1081,"x_min":38,"x_max":1043,"o":"m 540 -17 q 345 22 436 -17 q 185 131 254 61 q 76 291 115 200 q 38 486 38 382 q 76 681 38 590 q 185 842 115 772 q 345 950 254 911 q 540 989 436 989 q 735 950 644 989 q 896 842 826 911 q 1004 681 965 772 q 1043 486 1043 590 q 1004 291 1043 382 q 896 131 965 200 q 735 22 826 61 q 540 -17 644 -17 m 544 324 q 493 344 513 324 q 474 397 474 365 q 493 447 474 428 q 542 467 513 467 q 590 451 567 467 q 613 394 613 435 q 590 340 613 356 q 544 324 567 324 m 550 229 q 640 253 603 229 q 698 315 678 276 q 718 399 718 354 q 701 476 718 439 q 651 538 683 514 q 574 561 618 561 q 506 542 535 561 q 464 499 478 522 q 471 569 465 533 q 494 628 476 604 q 546 653 511 653 q 589 637 574 653 q 610 594 604 621 l 711 594 q 688 671 710 638 q 631 724 667 704 q 546 743 594 743 q 434 704 476 743 q 372 603 392 665 q 353 472 353 542 q 373 353 353 408 q 437 263 393 297 q 550 229 481 229 z "},"➐":{"ha":1081,"x_min":38,"x_max":1043,"o":"m 540 -17 q 345 22 436 -17 q 185 131 254 61 q 76 291 115 200 q 38 486 38 382 q 76 681 38 590 q 185 842 115 772 q 345 950 254 911 q 540 989 436 989 q 735 950 644 989 q 896 842 826 911 q 1004 681 965 772 q 1043 486 1043 590 q 1004 291 1043 382 q 896 131 965 200 q 735 22 826 61 q 540 -17 644 -17 m 424 232 l 539 232 l 731 650 l 731 728 l 357 728 l 357 633 l 611 633 l 424 232 z "},"➑":{"ha":1081,"x_min":38,"x_max":1043,"o":"m 540 -17 q 345 22 436 -17 q 185 131 254 61 q 76 291 115 200 q 38 486 38 382 q 76 681 38 590 q 185 842 115 772 q 345 950 254 911 q 540 989 436 989 q 735 950 644 989 q 896 842 826 911 q 1004 681 965 772 q 1043 486 1043 590 q 1004 291 1043 382 q 896 131 965 200 q 735 22 826 61 q 540 -17 644 -17 m 542 229 q 629 246 589 229 q 694 296 669 263 q 719 378 719 329 q 702 454 719 421 q 644 506 685 488 q 688 544 668 518 q 707 610 707 571 q 682 688 707 658 q 619 730 657 717 q 542 743 582 743 q 422 708 469 743 q 374 610 374 674 q 390 550 374 575 q 438 506 407 525 q 381 453 399 486 q 363 378 363 421 q 388 299 363 332 q 455 247 414 265 q 542 229 496 229 m 543 321 q 488 340 504 321 q 472 389 472 358 q 492 442 472 425 q 543 458 513 458 q 593 440 575 458 q 611 389 611 421 q 593 339 611 357 q 543 321 575 321 m 542 536 q 500 551 515 536 q 485 594 485 567 q 542 654 485 654 q 583 638 569 654 q 597 594 597 622 q 581 549 597 561 q 542 536 565 536 z "},"➒":{"ha":1081,"x_min":38,"x_max":1043,"o":"m 540 -17 q 345 22 436 -17 q 185 131 254 61 q 76 291 115 200 q 38 486 38 382 q 76 681 38 590 q 185 842 115 772 q 345 950 254 911 q 540 989 436 989 q 735 950 644 989 q 896 842 826 911 q 1004 681 965 772 q 1043 486 1043 590 q 1004 291 1043 382 q 896 131 965 200 q 735 22 826 61 q 540 -17 644 -17 m 533 229 q 644 266 601 229 q 706 365 686 303 q 726 500 726 426 q 708 618 726 563 q 646 708 689 674 q 529 743 603 743 q 440 719 478 743 q 383 658 403 696 q 363 574 363 619 q 387 480 363 515 q 444 428 411 444 q 507 411 478 411 q 574 431 546 411 q 617 474 601 450 q 610 408 617 444 q 588 346 604 372 q 535 319 571 319 q 492 335 507 319 q 471 378 478 351 l 369 378 q 388 308 369 343 q 444 251 407 274 q 533 229 481 229 m 538 506 q 487 526 507 506 q 467 578 467 547 q 488 629 467 610 q 535 649 508 649 q 587 628 567 649 q 607 575 607 607 q 587 526 607 546 q 538 506 567 506 z "},"⁄":{"ha":832,"x_min":-10,"x_max":849,"o":"m -10 0 l 713 972 l 849 972 l 126 0 l -10 0 z "},"½":{"ha":1069,"x_min":49,"x_max":1007,"o":"m 49 482 l 49 576 l 174 576 l 174 853 l 53 825 l 53 911 l 219 972 l 276 972 l 276 576 l 388 576 l 388 482 l 49 482 m 119 0 l 842 972 l 978 972 l 256 0 l 119 0 m 663 0 l 663 76 l 808 228 q 867 292 843 264 q 890 344 890 321 q 875 388 890 372 q 832 404 860 404 q 783 381 797 404 q 768 332 768 358 l 664 332 q 713 454 667 411 q 833 497 758 497 q 951 458 907 497 q 994 346 994 419 q 966 258 994 296 q 894 178 938 221 l 813 94 l 1007 94 l 1007 0 l 663 0 z "},"¼":{"ha":1063,"x_min":49,"x_max":1006,"o":"m 111 0 l 833 972 l 969 972 l 247 0 l 111 0 m 49 482 l 49 576 l 174 576 l 174 853 l 53 825 l 53 911 l 219 972 l 276 972 l 276 576 l 388 576 l 388 482 l 49 482 m 844 0 l 844 88 l 617 88 l 617 169 l 778 490 l 886 490 l 735 183 l 850 183 l 850 306 l 951 306 l 951 183 l 1006 183 l 1006 88 l 951 88 l 951 0 l 844 0 z "},"¾":{"ha":1076,"x_min":56,"x_max":1019,"o":"m 125 0 l 847 972 l 983 972 l 261 0 l 125 0 m 858 0 l 858 88 l 631 88 l 631 169 l 792 490 l 900 490 l 749 183 l 864 183 l 864 306 l 965 306 l 965 183 l 1019 183 l 1019 88 l 965 88 l 965 0 l 858 0 m 235 475 q 106 517 156 475 q 56 638 56 558 l 160 638 q 180 588 160 607 q 235 569 200 569 q 289 588 269 569 q 308 640 308 606 q 287 691 308 674 q 235 708 265 708 q 211 705 224 708 q 183 692 199 701 l 124 761 l 253 878 l 69 878 l 69 972 l 396 972 l 396 886 l 290 790 q 378 739 346 779 q 411 642 411 699 q 363 520 411 565 q 235 475 315 475 z "},"⅛":{"ha":1063,"x_min":49,"x_max":999,"o":"m 113 -1 l 835 971 l 971 971 l 249 -1 l 113 -1 m 49 482 l 49 576 l 174 576 l 174 853 l 53 825 l 53 911 l 219 972 l 276 972 l 276 576 l 388 576 l 388 482 l 49 482 m 825 86 q 874 102 856 86 q 893 149 893 118 q 876 197 893 181 q 825 214 858 214 q 775 197 793 214 q 757 149 757 181 q 775 102 757 118 q 825 86 793 86 m 825 -7 q 735 13 775 -7 q 674 65 696 32 q 651 142 651 99 q 669 213 651 182 q 717 263 686 244 q 676 306 690 281 q 663 363 663 332 q 711 463 663 428 q 825 497 760 497 q 906 482 869 497 q 965 437 943 467 q 988 363 988 407 q 973 306 988 332 q 933 263 958 279 q 983 212 967 244 q 999 142 999 179 q 974 61 999 94 q 910 10 950 28 q 825 -7 871 -7 m 825 299 q 867 313 851 299 q 882 351 882 328 q 867 392 882 378 q 825 407 853 407 q 768 351 768 407 q 783 313 768 328 q 825 299 799 299 z "},"⅜":{"ha":1056,"x_min":56,"x_max":999,"o":"m 110 -1 l 832 971 l 968 971 l 246 -1 l 110 -1 m 235 475 q 106 517 156 475 q 56 638 56 558 l 160 638 q 180 588 160 607 q 235 569 200 569 q 289 588 269 569 q 308 640 308 606 q 287 691 308 674 q 235 708 265 708 q 211 705 224 708 q 183 692 199 701 l 124 761 l 253 878 l 69 878 l 69 972 l 396 972 l 396 886 l 290 790 q 378 739 346 779 q 411 642 411 699 q 363 520 411 565 q 235 475 315 475 m 825 86 q 874 102 856 86 q 893 149 893 118 q 876 197 893 181 q 825 214 858 214 q 775 197 793 214 q 757 149 757 181 q 775 102 757 118 q 825 86 793 86 m 825 -7 q 735 13 775 -7 q 674 65 696 32 q 651 142 651 99 q 669 213 651 182 q 717 263 686 244 q 676 306 690 281 q 663 363 663 332 q 711 463 663 428 q 825 497 760 497 q 906 482 869 497 q 965 437 943 467 q 988 363 988 407 q 973 306 988 332 q 933 263 958 279 q 983 212 967 244 q 999 142 999 179 q 974 61 999 94 q 910 10 950 28 q 825 -7 871 -7 m 825 299 q 867 313 851 299 q 882 351 882 328 q 867 392 882 378 q 825 407 853 407 q 768 351 768 407 q 783 313 768 328 q 825 299 799 299 z "},"⅝":{"ha":1061,"x_min":54,"x_max":1004,"o":"m 114 -1 l 836 971 l 974 971 l 251 -1 l 114 -1 m 236 475 q 109 515 157 475 q 54 628 61 556 l 160 628 q 186 585 165 601 q 236 569 207 569 q 290 593 268 569 q 311 654 311 617 q 290 713 311 690 q 238 735 269 735 q 192 722 211 735 q 161 683 172 710 l 60 683 l 103 972 l 382 972 l 382 876 l 185 876 l 171 804 q 208 820 188 815 q 251 825 229 825 q 372 774 331 825 q 414 654 414 724 q 364 526 414 576 q 236 475 314 475 m 831 86 q 880 102 861 86 q 899 149 899 118 q 881 197 899 181 q 831 214 864 214 q 781 197 799 214 q 763 149 763 181 q 781 102 763 118 q 831 86 799 86 m 831 -7 q 741 13 781 -7 q 679 65 701 32 q 657 142 657 99 q 674 213 657 182 q 722 263 692 244 q 682 306 696 281 q 668 363 668 332 q 717 463 668 428 q 831 497 765 497 q 912 482 875 497 q 971 437 949 467 q 993 363 993 407 q 978 306 993 332 q 939 263 964 279 q 988 212 972 244 q 1004 142 1004 179 q 980 61 1004 94 q 916 10 956 28 q 831 -7 876 -7 m 831 299 q 872 313 857 299 q 888 351 888 328 q 873 392 888 378 q 831 407 858 407 q 774 351 774 407 q 789 313 774 328 q 831 299 804 299 z "},"⅞":{"ha":1028,"x_min":69,"x_max":976,"o":"m 69 -1 l 792 971 l 929 971 l 207 -1 l 69 -1 m 803 86 q 852 102 833 86 q 871 149 871 118 q 853 197 871 181 q 803 214 836 214 q 753 197 771 214 q 735 149 735 181 q 753 102 735 118 q 803 86 771 86 m 131 481 l 317 876 l 71 876 l 71 971 l 435 971 l 435 897 l 243 481 l 131 481 m 803 -7 q 713 13 753 -7 q 651 65 674 32 q 629 142 629 99 q 647 213 629 182 q 694 263 664 244 q 654 306 668 281 q 640 363 640 332 q 689 463 640 428 q 803 497 738 497 q 884 482 847 497 q 943 437 921 467 q 965 363 965 407 q 951 306 965 332 q 911 263 936 279 q 960 212 944 244 q 976 142 976 179 q 952 61 976 94 q 888 10 928 28 q 803 -7 849 -7 m 803 299 q 844 313 829 299 q 860 351 860 328 q 845 392 860 378 q 803 407 831 407 q 746 351 746 407 q 761 313 746 328 q 803 299 776 299 z "},"₀":{"ha":450,"x_min":39,"x_max":411,"o":"m 225 -7 q 116 28 157 -7 q 57 120 75 63 q 39 246 39 178 q 57 371 39 314 q 116 463 75 428 q 225 497 157 497 q 335 463 294 497 q 393 372 375 429 q 411 246 411 315 q 393 119 411 176 q 335 27 375 61 q 225 -7 294 -7 m 225 90 q 265 105 250 90 q 289 143 281 119 q 300 194 297 167 q 303 246 303 221 q 297 315 303 279 q 275 376 292 351 q 225 400 258 400 q 189 388 207 400 q 158 343 171 376 q 146 246 146 310 q 158 148 146 182 q 189 102 171 114 q 225 90 207 90 z "},"₁":{"ha":439,"x_min":56,"x_max":394,"o":"m 56 0 l 56 94 l 181 94 l 181 371 l 60 343 l 60 429 l 226 490 l 283 490 l 283 94 l 394 94 l 394 0 l 56 0 z "},"₂":{"ha":432,"x_min":42,"x_max":386,"o":"m 42 0 l 42 76 q 88 125 68 104 q 124 162 108 146 q 150 190 139 178 q 170 210 161 201 q 188 228 179 219 q 246 292 222 264 q 269 344 269 321 q 254 388 269 372 q 211 404 239 404 q 162 381 176 404 q 147 332 147 358 l 43 332 q 92 454 46 411 q 213 497 138 497 q 330 458 286 497 q 374 346 374 419 q 345 258 374 296 q 274 178 317 221 l 192 94 l 386 94 l 386 0 l 42 0 z "},"₃":{"ha":439,"x_min":42,"x_max":397,"o":"m 221 -7 q 92 35 142 -7 q 42 156 42 76 l 146 156 q 166 106 146 125 q 221 88 186 88 q 275 106 256 88 q 294 158 294 124 q 273 209 294 192 q 221 226 251 226 q 197 223 210 226 q 169 210 185 219 l 110 279 l 239 396 l 56 396 l 56 490 l 382 490 l 382 404 l 276 308 q 365 257 332 297 q 397 160 397 217 q 349 38 397 83 q 221 -7 301 -7 z "},"₄":{"ha":422,"x_min":26,"x_max":401,"o":"m 240 0 l 240 88 l 26 88 l 26 169 l 188 490 l 296 490 l 144 183 l 246 183 l 246 306 l 347 306 l 347 183 l 401 183 l 401 88 l 347 88 l 347 0 l 240 0 z "},"₅":{"ha":433,"x_min":35,"x_max":394,"o":"m 217 -7 q 90 33 138 -7 q 35 146 42 74 l 140 146 q 167 103 146 119 q 217 88 188 88 q 270 111 249 88 q 292 172 292 135 q 271 231 292 208 q 218 253 250 253 q 172 240 192 253 q 142 201 153 228 l 40 201 l 83 490 l 363 490 l 363 394 l 165 394 l 151 322 q 189 338 168 333 q 232 343 210 343 q 353 292 311 343 q 394 172 394 242 q 344 44 394 94 q 217 -7 294 -7 z "},"₆":{"ha":433,"x_min":39,"x_max":394,"o":"m 229 -7 q 121 26 163 -7 q 59 113 79 60 q 39 229 39 167 q 57 356 39 294 q 117 457 75 417 q 226 497 158 497 q 338 456 297 497 q 386 353 379 415 l 286 353 q 266 392 281 379 q 226 406 251 406 q 167 367 185 406 q 146 283 150 329 q 191 313 165 303 q 243 324 217 324 q 314 306 279 324 q 372 252 349 288 q 394 161 394 217 q 374 78 394 117 q 317 16 354 39 q 229 -7 279 -7 m 225 88 q 273 108 254 88 q 292 158 292 128 q 273 210 292 190 q 224 231 254 231 q 175 210 194 231 q 156 160 156 190 q 175 108 156 129 q 225 88 194 88 z "},"₇":{"ha":442,"x_min":39,"x_max":403,"o":"m 99 -1 l 285 394 l 39 394 l 39 489 l 403 489 l 403 415 l 211 -1 l 99 -1 z "},"₈":{"ha":422,"x_min":38,"x_max":385,"o":"m 211 -7 q 122 13 161 -7 q 60 65 82 32 q 38 142 38 99 q 55 213 38 182 q 103 263 72 244 q 63 306 76 281 q 49 363 49 332 q 97 463 49 428 q 211 497 146 497 q 292 482 256 497 q 351 437 329 467 q 374 363 374 407 q 359 306 374 332 q 319 263 344 279 q 369 212 353 244 q 385 142 385 179 q 360 61 385 94 q 297 10 336 28 q 211 -7 257 -7 m 211 86 q 260 102 242 86 q 279 149 279 118 q 262 197 279 181 q 211 214 244 214 q 161 197 179 214 q 143 149 143 181 q 161 102 143 118 q 211 86 179 86 m 211 299 q 253 313 238 299 q 268 351 268 328 q 253 392 268 378 q 211 407 239 407 q 154 351 154 407 q 169 313 154 328 q 211 299 185 299 z "},"₉":{"ha":435,"x_min":39,"x_max":396,"o":"m 208 -7 q 97 35 138 -7 q 49 140 56 76 l 149 140 q 169 99 154 113 q 208 85 183 85 q 267 123 250 85 q 289 207 285 161 q 245 178 271 189 q 192 167 219 167 q 114 188 149 167 q 59 247 79 210 q 39 329 39 285 q 60 412 39 374 q 118 474 81 450 q 206 497 156 497 q 315 465 272 497 q 376 378 357 432 q 396 261 396 324 q 377 133 396 194 q 317 32 358 71 q 208 -7 275 -7 m 211 260 q 260 280 240 260 q 279 331 279 300 q 260 383 279 363 q 210 403 240 403 q 162 383 181 403 q 143 332 143 364 q 162 280 143 300 q 211 260 181 260 z "},"⁰":{"ha":450,"x_min":39,"x_max":411,"o":"m 225 475 q 116 510 157 475 q 57 602 75 544 q 39 728 39 660 q 57 853 39 796 q 116 944 75 910 q 225 979 157 979 q 335 945 294 979 q 393 854 375 911 q 411 728 411 797 q 393 601 411 658 q 335 509 375 543 q 225 475 294 475 m 225 572 q 265 587 250 572 q 289 625 281 601 q 300 676 297 649 q 303 728 303 703 q 297 797 303 761 q 275 858 292 833 q 225 882 258 882 q 189 870 207 882 q 158 825 171 858 q 146 728 146 792 q 158 630 146 664 q 189 584 171 596 q 225 572 207 572 z "},"¹":{"ha":425,"x_min":56,"x_max":394,"o":"m 56 482 l 56 576 l 181 576 l 181 853 l 60 825 l 60 911 l 226 972 l 283 972 l 283 576 l 394 576 l 394 482 l 56 482 z "},"²":{"ha":432,"x_min":42,"x_max":386,"o":"m 42 482 l 42 558 q 88 607 68 586 q 124 644 108 628 q 150 672 139 660 q 170 692 161 683 q 188 710 179 701 q 246 774 222 746 q 269 826 269 803 q 254 870 269 854 q 211 886 239 886 q 162 863 176 886 q 147 814 147 840 l 43 814 q 92 936 46 893 q 213 979 138 979 q 330 940 286 979 q 374 828 374 901 q 345 740 374 778 q 274 660 317 703 l 192 576 l 386 576 l 386 482 l 42 482 z "},"³":{"ha":439,"x_min":42,"x_max":397,"o":"m 221 475 q 92 517 142 475 q 42 638 42 558 l 146 638 q 166 588 146 607 q 221 569 186 569 q 275 588 256 569 q 294 640 294 606 q 273 691 294 674 q 221 708 251 708 q 197 705 210 708 q 169 692 185 701 l 110 761 l 239 878 l 56 878 l 56 972 l 382 972 l 382 886 l 276 790 q 365 739 332 779 q 397 642 397 699 q 349 520 397 565 q 221 475 301 475 z "},"⁴":{"ha":422,"x_min":26,"x_max":401,"o":"m 242 482 l 242 569 l 26 569 l 26 650 l 188 972 l 293 972 l 142 664 l 247 664 l 247 786 l 346 786 l 346 664 l 401 664 l 401 569 l 346 569 l 346 482 l 242 482 z "},"⁵":{"ha":433,"x_min":35,"x_max":394,"o":"m 217 475 q 90 515 138 475 q 35 628 42 556 l 140 628 q 167 585 146 601 q 217 569 188 569 q 270 593 249 569 q 292 654 292 617 q 271 713 292 690 q 218 735 250 735 q 172 722 192 735 q 142 683 153 710 l 40 683 l 83 972 l 363 972 l 363 876 l 165 876 l 151 804 q 189 820 168 815 q 232 825 210 825 q 353 774 311 825 q 394 654 394 724 q 344 526 394 576 q 217 475 294 475 z "},"⁶":{"ha":433,"x_min":39,"x_max":394,"o":"m 229 475 q 121 508 163 475 q 59 595 79 542 q 39 711 39 649 q 57 838 39 776 q 117 939 75 899 q 226 979 158 979 q 338 938 297 979 q 386 835 379 897 l 286 835 q 266 874 281 861 q 226 888 251 888 q 167 849 185 888 q 146 765 150 811 q 191 795 165 785 q 243 806 217 806 q 314 788 279 806 q 372 734 349 769 q 394 643 394 699 q 374 560 394 599 q 317 498 354 521 q 229 475 279 475 m 225 569 q 273 590 254 569 q 292 640 292 610 q 273 692 292 672 q 224 713 254 713 q 175 692 194 713 q 156 642 156 672 q 175 590 156 611 q 225 569 194 569 z "},"⁷":{"ha":442,"x_min":39,"x_max":403,"o":"m 99 481 l 285 876 l 39 876 l 39 971 l 403 971 l 403 897 l 211 481 l 99 481 z "},"⁸":{"ha":422,"x_min":38,"x_max":385,"o":"m 211 475 q 122 494 161 475 q 60 547 82 514 q 38 624 38 581 q 55 695 38 664 q 103 744 72 726 q 63 788 76 763 q 49 844 49 814 q 97 944 49 910 q 211 979 146 979 q 292 964 256 979 q 351 919 329 949 q 374 844 374 889 q 359 788 374 814 q 319 744 344 761 q 369 694 353 726 q 385 624 385 661 q 360 543 385 576 q 297 492 336 510 q 211 475 257 475 m 211 568 q 260 584 242 568 q 279 631 279 600 q 262 679 279 663 q 211 696 244 696 q 161 679 179 696 q 143 631 143 663 q 161 584 143 600 q 211 568 179 568 m 211 781 q 253 795 238 781 q 268 833 268 810 q 253 874 268 860 q 211 889 239 889 q 154 833 154 889 q 169 795 154 810 q 211 781 185 781 z "},"⁹":{"ha":435,"x_min":39,"x_max":396,"o":"m 208 475 q 97 517 138 475 q 49 622 56 558 l 149 622 q 169 581 154 594 q 208 567 183 567 q 267 605 250 567 q 289 689 285 643 q 245 660 271 671 q 192 649 219 649 q 114 670 149 649 q 59 729 79 692 q 39 811 39 767 q 60 894 39 856 q 118 956 81 932 q 206 979 156 979 q 315 947 272 979 q 376 860 357 914 q 396 743 396 806 q 377 615 396 676 q 317 515 358 554 q 208 475 275 475 m 211 742 q 260 762 240 742 q 279 813 279 782 q 260 865 279 844 q 210 885 240 885 q 162 865 181 885 q 143 814 143 846 q 162 762 143 782 q 211 742 181 742 z "}," ":{"ha":319,"x_min":0,"x_max":0,"o":""}," ":{"ha":331,"x_min":0,"x_max":0,"o":""},"\r":{"ha":833,"x_min":0,"x_max":0,"o":""},".":{"ha":314,"x_min":42,"x_max":272,"o":"m 157 -17 q 75 17 108 -17 q 42 99 42 51 q 75 181 42 147 q 157 214 108 214 q 239 181 206 214 q 272 99 272 147 q 239 17 272 51 q 157 -17 206 -17 z "},",":{"ha":319,"x_min":19,"x_max":271,"o":"m 19 -161 l 99 185 l 271 185 l 136 -161 l 19 -161 z "},":":{"ha":336,"x_min":51,"x_max":282,"o":"m 167 481 q 85 515 118 481 q 51 596 51 549 q 85 678 51 644 q 167 711 118 711 q 249 678 215 711 q 282 596 282 644 q 249 515 282 549 q 167 481 215 481 m 167 -17 q 85 17 118 -17 q 51 99 51 51 q 85 181 51 147 q 167 214 118 214 q 249 181 215 214 q 282 99 282 147 q 249 17 282 51 q 167 -17 215 -17 z "},";":{"ha":369,"x_min":33,"x_max":315,"o":"m 33 -161 l 113 185 l 285 185 l 150 -161 l 33 -161 m 200 481 q 118 515 151 481 q 85 596 85 549 q 118 678 85 644 q 200 711 151 711 q 282 678 249 711 q 315 596 315 644 q 282 515 315 549 q 200 481 249 481 z "},"…":{"ha":954,"x_min":56,"x_max":900,"o":"m 785 -17 q 703 17 736 -17 q 669 99 669 51 q 703 181 669 147 q 785 214 736 214 q 867 181 833 214 q 900 99 900 147 q 867 17 900 51 q 785 -17 833 -17 m 171 -17 q 89 17 122 -17 q 56 99 56 51 q 89 181 56 147 q 171 214 122 214 q 253 181 219 214 q 286 99 286 147 q 253 17 286 51 q 171 -17 219 -17 m 478 -17 q 396 17 429 -17 q 363 99 363 51 q 396 181 363 147 q 478 214 429 214 q 560 181 526 214 q 593 99 593 147 q 560 17 593 51 q 478 -17 526 -17 z "},"!":{"ha":397,"x_min":83,"x_max":314,"o":"m 121 307 l 101 972 l 292 972 l 271 307 l 121 307 m 199 -17 q 117 17 150 -17 q 83 99 83 51 q 117 181 83 147 q 199 214 150 214 q 281 181 247 214 q 314 99 314 147 q 281 17 314 51 q 199 -17 247 -17 z "},"¡":{"ha":411,"x_min":90,"x_max":321,"o":"m 108 -193 l 128 472 l 278 472 l 299 -193 l 108 -193 m 206 565 q 124 599 157 565 q 90 681 90 633 q 124 763 90 729 q 206 796 157 796 q 288 763 254 796 q 321 681 321 729 q 288 599 321 633 q 206 565 254 565 z "},"?":{"ha":732,"x_min":42,"x_max":678,"o":"m 190 303 l 185 532 l 249 532 q 378 544 319 532 q 471 593 436 557 q 506 699 506 628 q 465 803 506 765 q 358 842 425 842 q 250 803 289 842 q 211 700 211 765 l 43 700 q 79 849 42 783 q 189 951 117 914 q 267 980 225 971 q 360 989 310 989 q 524 955 453 989 q 638 856 596 921 q 667 784 657 824 q 678 697 678 744 q 636 539 678 601 q 521 446 594 476 q 442 423 485 431 q 351 414 400 415 l 347 303 l 190 303 m 269 -17 q 188 17 221 -17 q 154 99 154 51 q 188 181 154 147 q 269 214 221 214 q 351 181 318 214 q 385 99 385 147 q 351 17 385 51 q 269 -17 318 -17 z "},"¿":{"ha":732,"x_min":54,"x_max":690,"o":"m 372 -217 q 208 -182 279 -217 q 94 -83 136 -147 q 54 75 54 -15 q 97 233 54 171 q 211 326 139 296 q 290 349 247 342 q 381 358 333 357 l 385 469 l 542 469 l 547 240 l 483 240 q 354 228 413 240 q 261 179 296 215 q 226 74 226 144 q 267 -31 226 7 q 374 -69 307 -69 q 482 -31 443 -69 q 521 72 521 7 l 689 72 q 653 -76 690 -11 q 543 -179 615 -142 q 372 -217 472 -217 m 463 558 q 381 592 415 558 q 347 674 347 626 q 381 756 347 722 q 463 789 415 789 q 544 756 511 789 q 578 674 578 722 q 544 592 578 626 q 463 558 511 558 z "},"·":{"ha":333,"x_min":51,"x_max":282,"o":"m 167 354 q 85 388 118 354 q 51 469 51 422 q 85 551 51 518 q 167 585 118 585 q 249 551 215 585 q 282 469 282 518 q 249 388 282 422 q 167 354 215 354 z "},"•":{"ha":528,"x_min":75,"x_max":451,"o":"m 263 275 q 169 300 211 275 q 101 368 126 325 q 75 463 75 411 q 101 558 75 515 q 169 626 126 601 q 263 651 211 651 q 359 626 317 651 q 426 558 401 601 q 451 463 451 515 q 426 367 451 410 q 359 300 401 325 q 263 275 317 275 z "},"*":{"ha":693,"x_min":94,"x_max":603,"o":"m 293 500 l 293 667 l 149 583 l 94 679 l 238 763 l 94 844 l 149 940 l 293 857 l 293 1024 l 403 1024 l 403 857 l 547 940 l 603 844 l 458 763 l 603 679 l 547 583 l 403 667 l 403 500 l 293 500 z "},"#":{"ha":1194,"x_min":46,"x_max":1138,"o":"m 194 0 l 246 243 l 46 243 l 46 403 l 281 403 l 324 606 l 119 606 l 119 765 l 358 765 l 410 1004 l 576 1004 l 525 765 l 789 765 l 840 1004 l 1007 1004 l 957 765 l 1138 765 l 1138 606 l 922 606 l 879 403 l 1064 403 l 1064 243 l 844 243 l 793 0 l 625 0 l 678 243 l 414 243 l 363 0 l 194 0 m 447 403 l 711 403 l 756 606 l 492 606 l 447 403 z "},"/":{"ha":585,"x_min":32,"x_max":553,"o":"m 32 -154 l 379 1079 l 553 1079 l 204 -154 l 32 -154 z "},"\\":{"ha":585,"x_min":32,"x_max":553,"o":"m 379 -154 l 32 1079 l 206 1079 l 553 -154 l 379 -154 z "},"-":{"ha":601,"x_min":75,"x_max":526,"o":"m 75 328 l 75 476 l 526 476 l 526 328 l 75 328 z "},"–":{"ha":900,"x_min":75,"x_max":825,"o":"m 75 328 l 75 476 l 825 476 l 825 328 l 75 328 z "},"—":{"ha":1206,"x_min":75,"x_max":1131,"o":"m 75 328 l 75 476 l 1131 476 l 1131 328 l 75 328 z "},"_":{"ha":946,"x_min":75,"x_max":871,"o":"m 75 -222 l 75 -53 l 871 -53 l 871 -222 l 75 -222 z "},"(":{"ha":554,"x_min":63,"x_max":510,"o":"m 332 -201 q 194 -22 254 -124 q 99 203 135 81 q 72 329 81 264 q 63 463 63 394 q 99 723 63 600 q 194 947 135 846 q 332 1126 256 1050 l 510 1126 l 510 1110 q 311 812 385 978 q 238 463 238 646 q 311 113 238 279 q 510 -185 385 -53 l 510 -201 l 332 -201 z "},")":{"ha":554,"x_min":44,"x_max":492,"o":"m 44 -201 l 44 -185 q 243 113 169 -53 q 317 463 317 279 q 243 812 317 646 q 44 1110 169 978 l 44 1126 l 222 1126 q 296 1043 261 1088 q 361 947 331 999 q 457 723 422 846 q 492 463 492 600 q 483 329 492 394 q 457 203 475 264 q 361 -22 422 81 q 222 -201 300 -124 l 44 -201 z "},"{":{"ha":642,"x_min":124,"x_max":557,"o":"m 469 -240 q 297 -182 363 -240 q 232 -10 232 -124 q 239 74 232 36 q 253 153 246 113 q 261 242 261 193 q 231 326 261 289 q 124 372 201 363 l 124 515 q 231 560 201 525 q 261 646 261 596 q 253 736 261 699 q 239 811 246 774 q 232 897 232 849 q 297 1068 232 1010 q 469 1126 363 1126 l 557 1126 l 557 979 l 503 979 q 428 954 453 979 q 403 881 403 929 q 406 827 403 854 q 417 772 410 800 q 426 711 424 744 q 429 639 429 678 q 393 513 429 565 q 278 444 357 461 l 278 442 q 393 373 357 425 q 429 247 429 321 q 426 176 429 208 q 417 115 424 143 q 406 60 410 88 q 403 6 403 33 q 428 -68 403 -43 q 503 -93 453 -93 l 557 -93 l 557 -240 l 469 -240 z "},"}":{"ha":642,"x_min":85,"x_max":518,"o":"m 85 -240 l 85 -93 l 139 -93 q 214 -68 189 -93 q 239 6 239 -43 q 236 60 239 33 q 226 115 233 88 q 216 176 219 143 q 213 247 213 208 q 249 373 213 321 q 364 442 285 425 l 364 444 q 249 513 285 461 q 213 639 213 565 q 216 711 213 678 q 226 772 219 744 q 236 827 233 800 q 239 881 239 854 q 214 954 239 929 q 139 979 189 979 l 85 979 l 85 1126 l 172 1126 q 344 1068 279 1126 q 410 897 410 1010 q 403 811 410 849 q 388 736 396 774 q 381 646 381 699 q 410 560 381 596 q 518 515 440 525 l 518 372 q 410 326 440 363 q 381 242 381 289 q 388 153 381 193 q 403 74 396 113 q 410 -10 410 36 q 344 -182 410 -124 q 172 -240 279 -240 l 85 -240 z "},"[":{"ha":500,"x_min":94,"x_max":425,"o":"m 94 -236 l 94 1126 l 425 1126 l 425 982 l 261 982 l 261 -90 l 425 -90 l 425 -236 l 94 -236 z "},"]":{"ha":500,"x_min":75,"x_max":406,"o":"m 75 -236 l 75 -90 l 239 -90 l 239 982 l 75 982 l 75 1126 l 406 1126 l 406 -236 l 75 -236 z "},"‚":{"ha":333,"x_min":19,"x_max":283,"o":"m 19 -157 l 96 185 l 283 185 l 142 -157 l 19 -157 z "},"„":{"ha":600,"x_min":19,"x_max":550,"o":"m 19 -157 l 96 185 l 283 185 l 142 -157 l 19 -157 m 288 -157 l 364 185 l 550 185 l 410 -157 l 288 -157 z "},"“":{"ha":633,"x_min":46,"x_max":576,"o":"m 314 631 l 456 972 l 576 972 l 500 631 l 314 631 m 46 631 l 188 972 l 308 972 l 233 631 l 46 631 z "},"”":{"ha":633,"x_min":57,"x_max":588,"o":"m 324 632 l 400 974 l 588 974 l 446 632 l 324 632 m 57 632 l 133 974 l 321 974 l 179 632 l 57 632 z "},"‘":{"ha":367,"x_min":46,"x_max":308,"o":"m 46 631 l 188 972 l 308 972 l 233 631 l 46 631 z "},"’":{"ha":367,"x_min":57,"x_max":321,"o":"m 57 631 l 133 972 l 321 972 l 179 631 l 57 631 z "},"«":{"ha":701,"x_min":58,"x_max":632,"o":"m 464 167 l 339 410 l 464 653 l 632 653 l 503 410 l 632 167 l 464 167 m 185 167 l 58 410 l 185 653 l 351 653 l 222 410 l 351 167 l 185 167 z "},"»":{"ha":701,"x_min":69,"x_max":643,"o":"m 350 167 l 479 410 l 350 653 l 518 653 l 643 410 l 518 167 l 350 167 m 69 167 l 199 410 l 69 653 l 238 653 l 363 410 l 238 167 l 69 167 z "},"‹":{"ha":421,"x_min":58,"x_max":351,"o":"m 185 167 l 58 410 l 185 653 l 351 653 l 222 410 l 351 167 l 185 167 z "},"›":{"ha":421,"x_min":69,"x_max":363,"o":"m 69 167 l 199 410 l 69 653 l 238 653 l 363 410 l 238 167 l 69 167 z "},"\"":{"ha":633,"x_min":57,"x_max":588,"o":"m 324 632 l 400 974 l 588 974 l 446 632 l 324 632 m 57 632 l 133 974 l 321 974 l 179 632 l 57 632 z "},"'":{"ha":335,"x_min":43,"x_max":307,"o":"m 43 631 l 119 972 l 307 972 l 165 631 l 43 631 z "},"ƒ":{"ha":464,"x_min":-75,"x_max":474,"o":"m -75 -318 l -60 -168 l -26 -168 q 22 -151 6 -168 q 44 -94 39 -135 l 119 621 l 33 621 l 47 768 l 136 768 l 140 817 q 236 1013 154 951 q 474 1075 318 1075 l 458 925 q 358 901 392 925 q 318 817 324 876 l 314 768 l 451 768 l 438 621 l 297 621 l 222 -94 q 179 -226 214 -178 q 90 -297 144 -275 q -37 -318 35 -318 l -75 -318 z "},"@":{"ha":1419,"x_min":97,"x_max":1336,"o":"m 718 -294 q 460 -249 575 -294 q 265 -122 346 -203 q 140 68 183 -40 q 97 303 97 176 q 144 547 97 436 q 276 739 192 658 q 475 864 361 819 q 724 908 589 908 q 966 867 854 908 q 1160 751 1078 826 q 1290 573 1243 676 q 1336 343 1336 469 q 1305 164 1336 243 q 1213 39 1274 85 q 1064 -7 1151 -7 q 952 24 999 -7 q 882 110 906 54 q 799 24 850 58 q 672 -10 749 -10 q 522 33 586 -10 q 422 148 457 76 q 388 304 388 219 q 424 461 388 390 q 524 574 460 532 q 672 615 589 615 q 781 592 729 615 q 865 519 832 569 l 865 601 l 1014 601 l 1014 208 q 1032 149 1014 169 q 1083 129 1050 129 q 1157 164 1131 129 q 1194 248 1183 199 q 1204 340 1204 297 q 1141 578 1204 479 q 969 731 1078 678 q 724 785 861 785 q 530 750 619 785 q 373 651 440 715 q 268 499 306 588 q 231 303 231 410 q 264 119 231 206 q 361 -31 297 33 q 515 -133 425 -96 q 718 -169 606 -169 q 852 -156 788 -169 q 974 -112 917 -142 l 1014 -232 q 951 -258 986 -246 q 876 -278 917 -269 q 718 -294 797 -294 m 704 125 q 824 176 781 125 q 868 303 868 228 q 847 394 868 353 q 790 458 826 435 q 704 482 753 482 q 586 433 633 482 q 539 304 539 385 q 584 176 539 228 q 704 125 629 125 z "},"&":{"ha":990,"x_min":60,"x_max":963,"o":"m 386 -17 q 262 3 321 -17 q 158 63 203 24 q 86 156 113 101 q 60 281 60 211 q 75 374 60 329 q 119 458 90 418 q 189 531 147 499 l 201 540 l 189 558 q 148 638 161 599 q 135 719 135 678 q 173 860 135 800 q 278 955 211 921 q 433 989 346 989 q 588 955 521 989 q 694 858 656 921 q 732 708 732 796 l 556 708 q 543 765 556 738 q 503 811 531 793 q 431 829 475 829 q 364 813 390 829 q 325 771 338 796 q 313 719 313 746 q 351 621 313 668 q 456 507 389 574 l 624 339 l 763 563 l 951 563 l 739 224 l 963 0 l 739 0 l 644 94 l 631 81 q 519 8 582 32 q 386 -17 456 -17 m 397 146 q 465 159 433 146 q 533 206 497 172 l 310 428 q 254 364 271 397 q 238 294 238 331 q 260 219 238 253 q 319 166 282 186 q 397 146 356 146 z "},"¶":{"ha":890,"x_min":43,"x_max":796,"o":"m 396 -139 l 396 393 l 372 393 q 185 433 257 393 q 78 539 113 472 q 51 607 60 571 q 43 682 43 643 q 78 826 43 760 q 186 932 114 892 q 269 962 222 951 q 372 972 315 972 l 796 972 l 796 -139 l 646 -139 l 646 836 l 546 836 l 546 -139 l 396 -139 z "},"§":{"ha":846,"x_min":60,"x_max":785,"o":"m 418 -322 q 250 -288 325 -322 q 131 -192 175 -254 q 85 -42 88 -129 l 275 -42 q 293 -103 276 -74 q 342 -153 310 -133 q 421 -172 374 -172 q 486 -160 456 -172 q 537 -124 517 -149 q 557 -57 557 -99 q 525 20 557 -4 q 444 63 493 44 q 388 81 418 71 q 324 101 357 90 q 195 160 256 125 q 97 251 135 196 q 60 389 60 307 q 138 579 60 501 q 100 711 100 633 q 141 860 99 797 q 258 956 183 922 q 426 989 333 989 q 595 956 521 989 q 714 860 669 922 q 760 708 758 797 l 569 708 q 554 767 568 736 q 509 818 540 797 q 424 839 478 839 q 326 811 367 842 q 286 724 286 781 q 317 649 286 675 q 400 606 347 622 q 456 586 426 596 q 521 565 486 576 q 590 538 557 553 q 653 506 622 524 q 707 465 683 488 q 749 415 731 443 q 785 278 785 358 q 780 225 785 251 q 765 175 775 199 q 707 88 747 125 q 744 -44 744 33 q 700 -197 744 -135 q 582 -290 656 -258 q 418 -322 508 -322 m 567 186 q 596 265 596 218 q 581 327 596 303 q 540 369 565 351 q 482 400 514 386 q 440 417 464 408 q 391 435 415 426 q 346 451 367 443 q 314 464 325 458 q 295 472 304 468 q 278 481 286 476 q 249 401 249 450 q 264 340 249 365 q 305 297 279 314 q 361 267 331 279 q 419 244 385 257 q 488 217 454 231 q 544 195 521 204 q 567 186 567 186 z "},"©":{"ha":1092,"x_min":61,"x_max":1031,"o":"m 546 -8 q 294 56 403 -8 q 124 232 185 119 q 61 489 61 343 q 123 745 61 633 q 294 921 185 857 q 546 983 403 983 q 799 920 690 983 q 969 746 908 857 q 1031 489 1031 632 q 969 231 1031 343 q 800 56 908 119 q 546 -8 690 -8 m 547 171 q 392 209 461 171 q 283 319 324 247 q 243 489 243 392 q 283 658 243 588 q 392 768 322 729 q 465 797 426 788 q 547 807 504 807 q 733 749 654 807 q 835 586 811 690 l 679 586 q 628 658 664 632 q 543 683 593 683 q 434 635 478 683 q 390 489 390 586 q 434 342 390 392 q 543 293 478 293 q 629 319 596 293 q 679 390 663 346 l 835 390 q 733 231 811 290 q 547 171 654 171 m 546 57 q 768 111 675 57 q 913 263 861 165 q 963 489 963 361 q 912 715 963 618 q 768 867 861 813 q 666 906 721 893 q 546 919 611 919 q 325 866 418 919 q 182 715 232 813 q 131 489 131 618 q 181 263 131 360 q 325 111 232 165 q 546 57 419 57 z "},"®":{"ha":510,"x_min":56,"x_max":454,"o":"m 256 590 q 156 617 201 590 q 83 690 110 644 q 56 789 56 735 q 83 890 56 844 q 156 962 110 935 q 256 989 201 989 q 356 962 311 989 q 427 890 400 935 q 454 789 454 844 q 427 690 454 735 q 356 617 400 644 q 256 590 311 590 m 163 689 q 172 707 164 692 q 192 741 181 722 q 211 774 203 760 q 219 789 219 789 q 179 843 179 803 q 193 884 179 864 q 246 904 207 904 l 321 904 l 321 689 l 282 689 l 282 779 l 257 779 q 250 766 257 779 q 233 735 243 753 q 216 704 224 718 q 208 689 208 690 l 163 689 m 256 622 q 340 645 301 622 q 400 706 378 668 q 422 789 422 743 q 400 873 422 835 q 340 933 378 911 q 256 956 301 956 q 172 933 210 956 q 112 873 135 911 q 89 789 89 835 q 112 706 89 743 q 172 645 135 668 q 256 622 210 622 m 256 813 l 282 813 l 282 872 l 251 872 q 217 843 217 872 q 228 820 217 828 q 256 813 239 813 z "},"™":{"ha":1042,"x_min":38,"x_max":976,"o":"m 489 486 l 489 972 l 607 972 l 733 683 l 858 972 l 976 972 l 976 486 l 871 486 l 871 767 l 772 546 l 692 546 l 594 767 l 594 486 l 489 486 m 174 486 l 174 881 l 38 881 l 38 972 l 417 972 l 417 881 l 279 881 l 279 486 l 174 486 z "},"°":{"ha":500,"x_min":50,"x_max":451,"o":"m 250 592 q 151 616 196 592 q 78 685 106 640 q 50 790 50 729 q 78 896 50 851 q 151 965 106 940 q 250 989 196 989 q 394 935 336 989 q 451 790 451 882 q 394 645 451 699 q 250 592 336 592 m 250 706 q 309 729 285 706 q 333 790 333 753 q 309 852 333 829 q 250 875 285 875 q 193 852 217 875 q 169 790 169 829 q 193 729 169 753 q 250 706 217 706 z "},"|":{"ha":367,"x_min":94,"x_max":272,"o":"m 94 -139 l 94 1000 l 272 1000 l 272 -139 l 94 -139 z "},"¦":{"ha":367,"x_min":94,"x_max":272,"o":"m 94 547 l 94 1000 l 272 1000 l 272 547 l 94 547 m 94 -139 l 94 314 l 272 314 l 272 -139 l 94 -139 z "},"†":{"ha":824,"x_min":64,"x_max":760,"o":"m 322 -365 l 340 644 l 64 631 l 64 768 l 340 753 l 322 1090 l 500 1090 l 482 753 l 760 768 l 760 631 l 482 644 l 500 -365 l 322 -365 z "},"ℓ":{"ha":367,"x_min":94,"x_max":272,"o":"m 94 -139 l 94 1000 l 272 1000 l 272 -139 l 94 -139 z "},"‡":{"ha":825,"x_min":64,"x_max":761,"o":"m 322 -365 l 342 -28 l 64 -43 l 64 94 l 342 81 l 342 644 l 64 631 l 64 768 l 342 753 l 322 1090 l 500 1090 l 483 753 l 761 768 l 761 631 l 483 644 l 483 81 l 761 94 l 761 -43 l 483 -28 l 500 -365 l 322 -365 z "},"℮":{"ha":1049,"x_min":50,"x_max":997,"o":"m 536 -17 q 288 40 397 -17 q 115 201 178 96 q 50 463 50 307 q 105 731 50 611 q 265 919 160 850 q 524 989 369 989 q 728 951 639 989 q 876 847 817 913 q 967 700 936 783 q 997 528 997 617 l 997 440 l 276 440 l 276 199 q 390 120 328 147 q 536 93 453 93 q 726 138 643 93 q 889 263 808 182 l 958 183 q 765 37 869 90 q 536 -17 660 -17 m 276 546 l 764 546 l 764 789 q 661 857 721 833 q 524 881 601 881 q 383 854 444 881 q 276 776 321 828 l 276 546 z "},"¢":{"ha":833,"x_min":68,"x_max":765,"o":"m 343 -144 l 343 -8 q 199 59 261 10 q 103 181 138 108 q 76 258 85 217 q 68 344 68 299 q 103 508 68 435 q 200 631 138 582 q 267 671 231 654 q 343 697 303 688 l 343 833 l 507 833 l 507 699 q 676 614 608 679 q 765 447 744 549 l 578 447 q 523 526 564 497 q 426 554 482 554 q 338 529 378 554 q 274 458 297 504 q 250 344 250 411 q 274 232 250 279 q 338 160 297 185 q 426 135 378 135 q 523 163 482 135 q 578 242 564 190 l 765 242 q 676 76 744 143 q 507 -10 608 10 l 507 -144 l 343 -144 z "},"¤":{"ha":771,"x_min":88,"x_max":683,"o":"m 160 113 l 88 186 l 167 265 q 121 414 121 326 q 133 494 121 457 q 168 563 144 532 l 88 644 l 160 717 l 247 629 q 388 660 307 660 q 525 629 465 660 l 611 717 l 683 644 l 604 564 q 640 496 628 533 q 653 414 653 458 q 641 333 653 371 q 606 264 629 296 l 683 186 l 611 113 l 526 197 q 386 165 463 165 q 244 197 306 165 l 160 113 m 386 279 q 442 293 415 279 q 487 336 469 307 q 504 413 504 365 q 467 515 504 483 q 386 547 431 547 q 305 515 340 547 q 269 413 269 483 q 305 310 269 342 q 386 279 340 279 z "},"$":{"ha":819,"x_min":54,"x_max":763,"o":"m 354 -119 l 354 -12 q 202 36 269 -1 q 96 138 135 74 q 54 293 57 203 l 242 293 q 274 200 244 240 q 354 143 303 160 l 354 426 l 342 431 q 188 505 246 463 q 103 599 129 547 q 78 711 78 650 q 114 853 78 794 q 213 945 150 911 q 354 986 275 979 l 354 1099 l 450 1099 l 450 986 q 594 944 531 979 q 697 851 658 910 q 738 708 736 792 l 547 708 q 521 784 546 750 q 450 832 496 818 l 450 574 l 499 557 q 580 525 535 544 q 667 473 625 506 q 735 391 708 440 q 763 269 763 342 q 722 123 763 185 q 610 26 681 61 q 450 -15 540 -10 l 450 -119 l 354 -119 m 450 135 q 540 174 507 142 q 574 257 574 206 q 564 310 574 288 q 528 353 554 333 q 450 392 501 372 l 450 135 m 354 614 l 354 833 q 290 796 315 824 q 264 724 264 768 q 288 660 264 686 q 354 614 313 635 z "},"€":{"ha":1097,"x_min":29,"x_max":1033,"o":"m 607 -17 q 310 77 428 -17 q 153 329 192 171 l 29 329 l 29 435 l 138 435 q 135 460 136 447 q 135 485 135 472 q 135 511 135 499 q 138 536 136 524 l 29 536 l 29 643 l 154 643 q 310 894 193 800 q 607 989 428 989 q 894 902 782 989 q 1033 658 1006 815 l 838 658 q 760 783 819 738 q 606 828 701 828 q 440 779 507 828 q 340 643 372 731 l 629 643 l 629 536 l 318 536 q 317 511 317 524 q 317 485 317 499 q 317 458 317 471 q 318 435 317 446 l 629 435 l 629 329 l 340 329 q 439 192 371 240 q 606 143 507 143 q 760 185 701 143 q 838 303 819 228 l 1033 303 q 894 68 1006 153 q 607 -17 782 -17 z "},"₽":{"ha":913,"x_min":40,"x_max":869,"o":"m 165 0 l 165 142 l 40 142 l 40 293 l 165 293 l 165 388 l 40 388 l 40 539 l 165 539 l 165 972 l 525 972 q 703 938 626 972 q 825 839 781 904 q 869 681 869 774 q 825 522 869 588 q 703 422 781 456 q 525 388 626 388 l 343 388 l 343 293 l 606 293 l 606 142 l 343 142 l 343 0 l 165 0 m 343 539 l 521 539 q 651 578 614 539 q 689 681 689 618 q 651 781 689 742 q 521 821 614 821 l 343 821 l 343 539 z "},"₨":{"ha":1457,"x_min":89,"x_max":1418,"o":"m 89 0 l 89 972 l 426 972 q 602 940 528 972 q 718 844 676 907 q 760 692 760 782 q 704 525 760 588 q 553 439 649 463 l 824 0 l 614 0 l 375 410 l 267 410 l 267 0 l 89 0 m 267 561 l 422 561 q 519 578 485 561 q 566 625 553 596 q 579 692 579 654 q 566 758 579 729 q 519 804 553 788 q 422 821 485 821 l 267 821 l 267 561 m 1143 -17 q 997 12 1065 -17 q 885 93 929 40 q 838 217 842 146 l 1015 217 q 1059 147 1022 172 q 1142 122 1096 122 q 1215 140 1181 122 q 1249 194 1249 157 q 1224 240 1249 224 q 1165 267 1199 257 q 1104 283 1132 276 q 978 323 1035 300 q 888 387 921 346 q 854 496 854 428 q 892 610 854 563 q 994 681 931 657 q 1131 706 1057 706 q 1325 647 1246 706 q 1411 475 1404 589 l 1243 475 q 1206 542 1239 519 q 1125 565 1174 565 q 1056 551 1086 565 q 1025 499 1025 538 q 1050 453 1025 471 q 1110 426 1075 436 q 1171 408 1144 415 q 1298 367 1243 390 q 1385 303 1353 343 q 1418 194 1417 263 q 1380 79 1418 126 q 1279 8 1342 32 q 1143 -17 1217 -17 z "},"£":{"ha":863,"x_min":56,"x_max":785,"o":"m 106 0 l 106 104 q 167 177 142 140 q 205 259 192 214 q 218 365 218 304 q 217 389 218 376 q 214 414 217 401 l 56 414 l 56 536 l 175 536 q 153 611 163 572 q 144 693 144 650 q 185 855 144 789 q 298 955 226 921 q 460 989 369 989 q 599 965 540 989 q 697 900 658 942 q 757 804 736 858 q 781 689 778 750 l 617 689 q 575 798 614 754 q 463 842 536 842 q 388 825 422 842 q 333 774 353 808 q 313 688 313 740 q 324 613 313 651 q 349 536 335 575 l 608 536 l 608 414 l 382 414 q 385 389 385 401 q 386 365 386 376 q 364 250 386 308 q 290 142 342 192 l 785 142 l 785 0 l 106 0 z "},"¥":{"ha":890,"x_min":29,"x_max":861,"o":"m 357 0 l 357 208 l 79 208 l 79 331 l 357 331 l 357 346 l 310 436 l 79 436 l 79 558 l 246 558 l 29 972 l 231 972 l 446 508 l 661 972 l 861 972 l 646 558 l 813 558 l 813 435 l 582 435 l 535 346 l 535 331 l 813 331 l 813 208 l 535 208 l 535 0 l 357 0 z "},"∕":{"ha":585,"x_min":32,"x_max":553,"o":"m 32 -154 l 379 1079 l 553 1079 l 204 -154 l 32 -154 z "},"+":{"ha":833,"x_min":81,"x_max":753,"o":"m 342 74 l 342 328 l 81 328 l 81 476 l 342 476 l 342 731 l 493 731 l 493 476 l 753 476 l 753 328 l 493 328 l 493 74 l 342 74 z "},"−":{"ha":833,"x_min":126,"x_max":708,"o":"m 126 328 l 126 476 l 708 476 l 708 328 l 126 328 z "},"×":{"ha":833,"x_min":139,"x_max":696,"o":"m 244 124 l 139 228 l 313 403 l 143 572 l 249 678 l 418 507 l 592 682 l 696 576 l 522 403 l 693 232 l 588 128 l 418 299 l 244 124 z "},"÷":{"ha":833,"x_min":104,"x_max":729,"o":"m 104 328 l 104 476 l 729 476 l 729 328 l 104 328 m 417 31 q 333 64 365 31 q 301 144 301 97 q 333 228 301 194 q 417 261 365 261 q 500 228 468 261 q 532 144 532 194 q 500 64 532 97 q 417 31 468 31 m 417 544 q 333 578 365 544 q 301 660 301 613 q 333 742 301 710 q 417 775 365 775 q 500 742 468 775 q 532 660 532 710 q 500 578 532 613 q 417 544 468 544 z "},"=":{"ha":833,"x_min":122,"x_max":711,"o":"m 122 479 l 122 635 l 711 635 l 711 479 l 122 479 m 122 171 l 122 326 l 711 326 l 711 171 l 122 171 z "},"≠":{"ha":833,"x_min":122,"x_max":711,"o":"m 175 78 l 225 171 l 122 171 l 122 326 l 307 326 l 386 478 l 122 478 l 122 633 l 468 633 l 518 726 l 657 726 l 608 633 l 711 633 l 711 478 l 526 478 l 446 326 l 711 326 l 711 171 l 365 171 l 315 78 l 175 78 z "},">":{"ha":833,"x_min":150,"x_max":685,"o":"m 150 185 l 461 499 l 150 811 l 374 811 l 685 499 l 374 185 l 150 185 z "},"<":{"ha":833,"x_min":150,"x_max":685,"o":"m 460 185 l 150 499 l 460 811 l 685 811 l 372 499 l 685 185 l 460 185 z "},"≥":{"ha":833,"x_min":149,"x_max":686,"o":"m 149 288 l 457 550 l 149 811 l 374 811 l 686 549 l 374 288 l 149 288 m 150 61 l 150 197 l 669 197 l 669 61 l 150 61 z "},"≤":{"ha":833,"x_min":149,"x_max":686,"o":"m 460 288 l 149 549 l 460 811 l 686 811 l 376 550 l 686 288 l 460 288 m 164 61 l 164 197 l 683 197 l 683 61 l 164 61 z "},"±":{"ha":833,"x_min":75,"x_max":760,"o":"m 342 214 l 342 392 l 75 392 l 75 540 l 342 540 l 342 717 l 493 717 l 493 540 l 760 540 l 760 392 l 493 392 l 493 214 l 342 214 m 75 0 l 75 156 l 760 156 l 760 0 l 75 0 z "},"≈":{"ha":833,"x_min":64,"x_max":771,"o":"m 538 438 q 465 451 497 438 q 403 484 432 465 q 347 517 375 503 q 286 531 318 531 q 225 508 247 531 q 196 439 203 485 l 64 439 q 147 628 86 569 q 296 688 208 688 q 369 674 336 688 q 431 642 403 660 q 488 610 460 624 q 549 596 517 596 q 608 619 585 596 q 638 688 632 643 l 771 688 q 689 497 750 557 q 538 438 628 438 m 538 121 q 465 135 497 121 q 403 167 432 149 q 347 200 375 186 q 286 214 318 214 q 225 191 247 214 q 196 122 203 168 l 64 122 q 147 312 86 253 q 296 371 208 371 q 369 357 336 371 q 431 325 403 343 q 488 293 460 307 q 549 279 517 279 q 608 303 585 279 q 638 371 632 326 l 771 371 q 689 181 750 240 q 538 121 628 121 z "},"~":{"ha":833,"x_min":64,"x_max":771,"o":"m 538 317 q 465 331 497 317 q 403 363 432 344 q 347 396 375 382 q 286 410 318 410 q 225 387 247 410 q 196 318 203 364 l 64 318 q 147 508 86 449 q 296 567 208 567 q 369 553 336 567 q 431 521 403 539 q 488 489 460 503 q 549 475 517 475 q 608 499 585 475 q 638 567 632 522 l 771 567 q 689 376 750 436 q 538 317 628 317 z "},"¬":{"ha":833,"x_min":61,"x_max":774,"o":"m 596 279 l 596 469 l 61 469 l 61 607 l 774 607 l 774 279 l 596 279 z "},"^":{"ha":924,"x_min":46,"x_max":878,"o":"m 46 236 l 378 972 l 547 972 l 878 236 l 697 236 l 463 763 l 226 236 l 46 236 z "},"∞":{"ha":1028,"x_min":46,"x_max":982,"o":"m 272 178 q 110 235 175 178 q 46 396 46 293 q 77 517 46 467 q 160 594 108 568 q 276 621 213 621 q 418 581 361 621 q 518 486 475 540 q 614 583 554 544 q 756 621 674 621 q 917 563 853 621 q 982 403 982 506 q 951 281 982 331 q 867 204 919 231 q 749 178 814 178 q 609 216 667 178 q 507 306 551 254 q 410 215 469 251 q 272 178 351 178 m 286 300 q 369 324 331 300 q 436 392 408 349 q 365 468 400 436 q 283 500 329 500 q 216 473 243 500 q 189 399 189 446 q 216 326 189 351 q 286 300 243 300 m 738 299 q 811 326 783 299 q 839 400 839 353 q 812 473 839 447 q 742 499 785 499 q 655 472 696 499 q 586 397 614 444 q 655 328 619 357 q 738 299 690 299 z "},"∫":{"ha":382,"x_min":-61,"x_max":450,"o":"m -61 -318 l -46 -168 l -19 -168 q 25 -151 11 -168 q 43 -94 39 -135 l 168 1069 q 210 1201 176 1153 q 299 1270 244 1250 q 422 1290 353 1290 l 450 1290 l 435 1139 l 410 1139 q 366 1123 382 1139 q 346 1069 350 1107 l 221 -94 q 179 -226 213 -178 q 92 -297 146 -275 q -33 -318 39 -318 l -61 -318 z "},"Ω":{"ha":1094,"x_min":54,"x_max":1042,"o":"m 67 0 l 67 136 l 229 136 q 97 296 139 200 q 54 504 54 392 q 92 701 54 613 q 196 855 129 790 q 353 954 263 919 q 547 989 443 989 q 742 954 653 989 q 899 856 832 919 q 1004 703 967 792 q 1042 504 1042 614 q 999 296 1042 392 q 865 136 957 200 l 1028 136 l 1028 0 l 650 0 l 650 142 q 760 218 713 169 q 834 335 807 267 q 861 486 861 403 q 838 630 861 567 q 773 737 815 693 q 674 803 731 781 q 547 826 617 826 q 406 797 465 826 q 309 719 347 768 q 253 610 271 671 q 235 486 235 549 q 262 335 235 403 q 336 218 289 267 q 444 142 383 169 l 444 0 l 67 0 z "},"∆":{"ha":988,"x_min":32,"x_max":956,"o":"m 32 0 l 32 136 l 421 972 l 567 972 l 956 136 l 956 0 l 32 0 m 214 136 l 774 136 l 493 771 l 214 136 z "},"∏":{"ha":1022,"x_min":40,"x_max":983,"o":"m 143 0 l 143 836 l 40 836 l 40 972 l 983 972 l 983 836 l 879 836 l 879 0 l 701 0 l 701 836 l 321 836 l 321 0 l 143 0 z "},"∑":{"ha":685,"x_min":60,"x_max":650,"o":"m 60 -69 l 60 138 l 406 458 l 61 767 l 61 972 l 650 972 l 650 836 l 204 836 l 572 524 l 572 394 l 211 67 l 649 67 l 649 -69 l 60 -69 z "},"√":{"ha":1086,"x_min":26,"x_max":1160,"o":"m 368 -58 l 179 275 l 78 217 l 26 303 l 282 453 l 454 147 l 1046 1229 l 1160 1229 l 454 -58 l 368 -58 z "},"µ":{"ha":857,"x_min":90,"x_max":765,"o":"m 90 -306 l 90 689 l 268 689 l 268 317 q 305 181 268 228 q 418 133 342 133 q 540 186 493 133 q 588 333 588 239 l 588 689 l 765 689 l 765 0 l 610 0 l 596 117 q 503 19 563 56 q 361 -17 443 -17 q 310 -11 333 -17 q 268 6 288 -6 l 268 -306 l 90 -306 z "},"∂":{"ha":821,"x_min":51,"x_max":771,"o":"m 349 -11 q 200 25 268 -11 q 92 136 132 61 q 51 326 51 213 q 78 499 51 418 q 156 643 106 581 q 274 741 206 706 q 425 776 343 776 q 526 753 481 776 q 597 668 571 729 q 569 801 592 743 q 500 892 546 858 q 382 925 454 925 q 334 922 360 925 q 281 911 308 918 l 281 1007 q 357 1023 321 1018 q 428 1028 393 1028 q 682 906 593 1028 q 771 568 771 785 q 717 258 771 388 q 568 58 663 128 q 349 -11 471 -11 m 367 140 q 476 182 429 140 q 550 293 524 224 q 575 446 575 363 q 538 583 575 539 q 438 628 500 628 q 329 588 376 628 q 257 481 282 549 q 231 328 231 414 q 270 185 231 229 q 367 140 310 140 z "},"%":{"ha":1211,"x_min":56,"x_max":1156,"o":"m 242 0 l 790 972 l 964 972 l 415 0 l 242 0 m 294 494 q 174 524 228 494 q 88 610 119 554 q 56 742 56 667 q 88 874 56 818 q 174 960 119 929 q 296 989 228 989 q 416 959 363 989 q 501 874 469 929 q 525 813 517 846 q 533 742 533 781 q 501 610 533 665 q 415 525 469 554 q 294 494 363 494 m 294 618 q 364 649 335 618 q 393 742 393 681 q 365 835 393 803 q 294 867 336 867 q 224 835 253 867 q 196 742 196 803 q 224 649 196 681 q 294 618 253 618 m 917 -17 q 796 13 850 -17 q 710 99 742 43 q 678 231 678 156 q 710 362 678 307 q 796 447 742 417 q 918 476 850 476 q 1038 447 985 476 q 1124 363 1092 417 q 1147 302 1139 335 q 1156 231 1156 269 q 1124 99 1156 154 q 1039 14 1092 43 q 917 -17 986 -17 m 917 107 q 987 138 958 107 q 1015 231 1015 169 q 987 324 1015 292 q 917 356 958 356 q 847 324 875 356 q 818 231 818 292 q 847 138 818 169 q 917 107 875 107 z "},"‰":{"ha":1731,"x_min":56,"x_max":1675,"o":"m 242 0 l 790 972 l 964 972 l 415 0 l 242 0 m 294 494 q 174 524 228 494 q 88 610 119 554 q 56 742 56 667 q 88 874 56 818 q 174 960 119 929 q 296 989 228 989 q 416 959 363 989 q 501 874 469 929 q 525 813 517 846 q 533 742 533 781 q 501 610 533 665 q 415 525 469 554 q 294 494 363 494 m 294 617 q 365 649 336 617 q 393 742 393 681 q 365 836 393 804 q 294 868 336 868 q 224 837 253 868 q 194 742 194 806 q 223 649 194 681 q 294 617 251 617 m 917 -17 q 796 13 850 -17 q 710 99 742 43 q 678 231 678 156 q 710 362 678 307 q 796 447 742 417 q 918 476 850 476 q 1038 447 985 476 q 1124 363 1092 417 q 1147 302 1139 335 q 1156 231 1156 269 q 1124 99 1156 154 q 1039 14 1092 43 q 917 -17 986 -17 m 917 106 q 988 138 958 106 q 1017 231 1017 169 q 988 324 1017 292 q 917 357 958 357 q 846 324 875 357 q 817 231 817 292 q 846 138 817 169 q 917 106 875 106 m 1436 -17 q 1315 13 1369 -17 q 1229 99 1261 43 q 1197 232 1197 156 q 1229 362 1197 307 q 1317 447 1261 417 q 1438 476 1371 476 q 1559 447 1504 476 q 1644 363 1614 417 q 1667 302 1660 335 q 1675 231 1675 269 q 1643 99 1675 154 q 1558 14 1611 43 q 1436 -17 1506 -17 m 1436 106 q 1507 138 1478 106 q 1536 231 1536 169 q 1507 324 1536 292 q 1436 357 1478 357 q 1366 324 1394 357 q 1338 231 1338 292 q 1366 138 1338 169 q 1436 106 1394 106 z "},"↑":{"ha":707,"x_min":35,"x_max":672,"o":"m 281 0 l 281 728 l 228 667 l 133 572 l 35 671 l 354 989 l 672 671 l 574 572 l 479 667 l 426 728 l 426 0 l 281 0 z "},"→":{"ha":1140,"x_min":89,"x_max":1079,"o":"m 761 167 l 663 267 l 757 360 l 818 414 l 89 414 l 89 560 l 818 560 l 757 613 l 663 707 l 761 806 l 1079 486 l 761 167 z "},"↓":{"ha":707,"x_min":35,"x_max":672,"o":"m 353 -17 l 35 301 l 133 400 l 228 306 l 281 244 l 281 972 l 426 972 l 426 244 l 479 306 l 574 400 l 672 301 l 353 -17 z "},"←":{"ha":1140,"x_min":61,"x_max":1051,"o":"m 379 167 l 61 486 l 379 806 l 478 707 l 383 613 l 322 560 l 1051 560 l 1051 414 l 322 414 l 383 360 l 478 267 l 379 167 z "},"◊":{"ha":776,"x_min":40,"x_max":738,"o":"m 389 139 l 40 488 l 389 836 l 738 488 l 389 139 m 389 317 l 558 488 l 389 658 l 219 488 l 389 317 z "},"̈":{"ha":0,"x_min":0,"x_max":539,"o":"m 115 778 q 33 811 67 778 q 0 893 0 844 q 33 975 0 942 q 115 1008 67 1008 q 197 975 164 1008 q 231 893 231 942 q 197 811 231 844 q 115 778 164 778 m 424 778 q 342 811 375 778 q 308 893 308 844 q 342 975 308 942 q 424 1008 375 1008 q 506 975 472 1008 q 539 893 539 942 q 506 811 539 844 q 424 778 472 778 z "},"̇":{"ha":0,"x_min":0,"x_max":231,"o":"m 115 778 q 33 811 67 778 q 0 893 0 844 q 33 975 0 942 q 115 1008 67 1008 q 197 975 164 1008 q 231 893 231 942 q 197 811 231 844 q 115 778 164 778 z "},"̀":{"ha":0,"x_min":0,"x_max":314,"o":"m 314 749 l 0 899 l 0 1043 l 314 874 l 314 749 z "},"́":{"ha":0,"x_min":0,"x_max":314,"o":"m 0 749 l 0 874 l 314 1043 l 314 899 l 0 749 z "},"̋":{"ha":0,"x_min":0,"x_max":494,"o":"m 236 756 l 349 1004 l 494 1004 l 347 756 l 236 756 m 0 756 l 99 1004 l 243 1004 l 113 756 l 0 756 z "},"̂":{"ha":0,"x_min":0,"x_max":406,"o":"m 0 769 l 0 897 l 203 1008 l 406 897 l 406 769 l 203 883 l 0 769 z "},"̌":{"ha":0,"x_min":0,"x_max":406,"o":"m 203 769 l 0 881 l 0 1008 l 203 890 l 406 1008 l 406 881 l 203 769 z "},"̆":{"ha":0,"x_min":0,"x_max":432,"o":"m 215 756 q 58 813 115 756 q 0 967 0 869 l 0 989 l 94 989 q 122 915 94 942 q 217 889 149 889 q 310 915 283 889 q 338 989 338 942 l 432 989 l 432 965 q 374 813 432 869 q 215 756 315 756 z "},"̊":{"ha":0,"x_min":0,"x_max":317,"o":"m 157 757 q 47 799 93 757 q 0 913 0 840 q 47 1026 0 985 q 157 1068 93 1068 q 270 1026 224 1068 q 317 913 317 985 q 270 799 317 840 q 157 757 224 757 m 157 838 q 210 858 189 838 q 231 913 231 879 q 210 967 231 947 q 157 988 189 988 q 107 967 128 988 q 86 913 86 947 q 107 858 86 879 q 157 838 128 838 z "},"̃":{"ha":0,"x_min":0,"x_max":488,"o":"m 325 804 q 261 820 288 804 q 211 852 235 836 q 154 868 188 868 q 115 853 129 868 q 94 806 100 838 l 0 806 q 56 936 14 894 q 163 978 99 978 q 227 962 201 978 q 277 930 253 946 q 333 914 301 914 q 373 929 357 914 q 393 976 389 944 l 488 976 q 431 846 475 888 q 325 804 388 804 z "},"̄":{"ha":0,"x_min":0,"x_max":492,"o":"m 0 832 l 0 958 l 492 958 l 492 832 l 0 832 z "},"̒":{"ha":0,"x_min":0,"x_max":172,"o":"m 165 1144 l 165 1072 q 96 986 96 1072 l 96 965 l 172 965 l 172 826 l 21 826 q 5 897 10 863 q 0 960 0 931 q 42 1097 0 1049 q 165 1144 83 1144 z "},"̦":{"ha":0,"x_min":0,"x_max":172,"o":"m 7 -381 l 7 -308 q 76 -222 76 -308 l 76 -201 l 0 -201 l 0 -62 l 151 -62 q 167 -133 163 -99 q 172 -196 172 -167 q 131 -333 172 -285 q 7 -381 89 -381 z "},"̧":{"ha":0,"x_min":0,"x_max":363,"o":"m 0 -365 l 0 -262 l 156 -262 q 229 -212 229 -262 q 156 -164 229 -164 l 71 -164 l 71 24 l 182 24 l 182 -69 q 272 -84 231 -68 q 338 -133 313 -100 q 363 -215 363 -165 q 338 -299 363 -265 q 272 -349 313 -332 q 182 -365 231 -365 l 0 -365 z "},"̨":{"ha":0,"x_min":0,"x_max":306,"o":"m 185 -292 q 55 -257 110 -292 q 0 -147 0 -222 q 42 -42 0 -92 q 194 56 85 8 l 258 83 l 299 0 l 226 -36 q 156 -83 176 -61 q 135 -131 135 -106 q 154 -172 135 -157 q 207 -187 174 -187 q 306 -167 251 -187 l 306 -272 q 248 -286 279 -281 q 185 -292 217 -292 z "},"¨":{"ha":694,"x_min":107,"x_max":646,"o":"m 222 778 q 140 811 174 778 q 107 893 107 844 q 140 975 107 942 q 222 1008 174 1008 q 304 975 271 1008 q 338 893 338 942 q 304 811 338 844 q 222 778 271 778 m 531 778 q 449 811 482 778 q 415 893 415 844 q 449 975 415 942 q 531 1008 482 1008 q 613 975 579 1008 q 646 893 646 942 q 613 811 646 844 q 531 778 579 778 z "},"˙":{"ha":694,"x_min":238,"x_max":468,"o":"m 353 778 q 271 811 304 778 q 238 893 238 844 q 271 975 238 942 q 353 1008 304 1008 q 435 975 401 1008 q 468 893 468 942 q 435 811 468 844 q 353 778 401 778 z "},"`":{"ha":694,"x_min":168,"x_max":482,"o":"m 482 749 l 168 899 l 168 1043 l 482 874 l 482 749 z "},"´":{"ha":694,"x_min":190,"x_max":504,"o":"m 190 749 l 190 874 l 504 1043 l 504 899 l 190 749 z "},"˝":{"ha":694,"x_min":100,"x_max":594,"o":"m 336 756 l 449 1004 l 594 1004 l 447 756 l 336 756 m 100 756 l 199 1004 l 343 1004 l 213 756 l 100 756 z "},"ˆ":{"ha":694,"x_min":144,"x_max":550,"o":"m 144 769 l 144 897 l 347 1008 l 550 897 l 550 769 l 347 883 l 144 769 z "},"ˇ":{"ha":694,"x_min":144,"x_max":550,"o":"m 347 769 l 144 881 l 144 1008 l 347 890 l 550 1008 l 550 881 l 347 769 z "},"˘":{"ha":694,"x_min":132,"x_max":564,"o":"m 347 756 q 190 813 247 756 q 132 967 132 869 l 132 989 l 226 989 q 253 915 226 942 q 349 889 281 889 q 442 915 415 889 q 469 989 469 942 l 564 989 l 564 965 q 506 813 564 869 q 347 756 447 756 z "},"˚":{"ha":694,"x_min":189,"x_max":506,"o":"m 346 757 q 235 799 282 757 q 189 913 189 840 q 235 1026 189 985 q 346 1068 282 1068 q 459 1026 413 1068 q 506 913 506 985 q 459 799 506 840 q 346 757 413 757 m 346 838 q 399 858 378 838 q 419 913 419 879 q 399 967 419 947 q 346 988 378 988 q 296 967 317 988 q 275 913 275 947 q 296 858 275 879 q 346 838 317 838 z "},"˜":{"ha":694,"x_min":104,"x_max":592,"o":"m 429 804 q 365 820 392 804 q 315 852 339 836 q 258 868 292 868 q 219 853 233 868 q 199 806 204 838 l 104 806 q 160 936 118 894 q 267 978 203 978 q 331 962 306 978 q 381 930 357 946 q 438 914 406 914 q 477 929 461 914 q 497 976 493 944 l 592 976 q 535 846 579 888 q 429 804 492 804 z "},"¯":{"ha":694,"x_min":101,"x_max":593,"o":"m 101 832 l 101 958 l 593 958 l 593 832 l 101 832 z "},"¸":{"ha":694,"x_min":167,"x_max":529,"o":"m 167 -365 l 167 -262 l 322 -262 q 396 -212 396 -262 q 322 -164 396 -164 l 238 -164 l 238 24 l 349 24 l 349 -69 q 438 -84 397 -68 q 504 -133 479 -100 q 529 -215 529 -165 q 504 -299 529 -265 q 438 -349 479 -332 q 349 -365 397 -365 l 167 -365 z "},"˛":{"ha":694,"x_min":194,"x_max":500,"o":"m 379 -292 q 249 -257 304 -292 q 194 -147 194 -222 q 237 -42 194 -92 q 389 56 279 8 l 453 83 l 493 0 l 421 -36 q 350 -83 371 -61 q 329 -131 329 -106 q 349 -172 329 -157 q 401 -187 368 -187 q 500 -167 446 -187 l 500 -272 q 442 -286 474 -281 q 379 -292 411 -292 z "},"ʺ":{"ha":483,"x_min":54,"x_max":429,"o":"m 293 758 l 276 1049 l 429 1049 l 414 758 l 293 758 m 69 758 l 54 1049 l 207 1049 l 190 758 l 69 758 z "},"ʹ":{"ha":263,"x_min":54,"x_max":210,"o":"m 71 758 l 54 1049 l 210 1049 l 192 758 l 71 758 z "}}}
